solid AssimpScene
 facet normal -0.573675 0.819083 1.96842e-05
  outer loop
  vertex -1.0037 3.82762 -0.94267
  vertex -1.0037 3.82766 -3.44265
  vertex -1.2881 3.62849 -3.4427
  endloop
 endfacet

 facet normal -0.573695 0.819069 2.29644e-05
  outer loop
  vertex -1.0037 3.82762 -0.94267
  vertex -1.2881 3.62849 -3.4427
  vertex -1.2881 3.62842 -0.94263
  endloop
 endfacet

 facet normal -0.258998 0.965878 2.57861e-06
  outer loop
  vertex -0.6683 3.91759 -0.94269
  vertex -0.6683 3.91753 -3.44269
  vertex -1.0037 3.82766 -3.44265
  endloop
 endfacet

 facet normal -0.259088 0.965854 1.54748e-05
  outer loop
  vertex -0.6683 3.91759 -0.94269
  vertex -1.0037 3.82766 -3.44265
  vertex -1.0037 3.82762 -0.94267
  endloop
 endfacet

 facet normal 0.0872865 0.996183 -1.06401e-05
  outer loop
  vertex -0.3223 3.88724 -0.94264
  vertex -0.3223 3.88728 -3.44261
  vertex -0.6683 3.91753 -3.44269
  endloop
 endfacet

 facet normal 0.0873818 0.996175 -2.39407e-05
  outer loop
  vertex -0.3223 3.88724 -0.94264
  vertex -0.6683 3.91753 -3.44269
  vertex -0.6683 3.91759 -0.94269
  endloop
 endfacet

 facet normal 0.422712 0.906264 2.44989e-06
  outer loop
  vertex -0.0075 3.74044 -0.94264
  vertex -0.0075 3.74038 -3.44264
  vertex -0.3223 3.88728 -3.44261
  endloop
 endfacet

 facet normal 0.422633 0.906301 1.45207e-05
  outer loop
  vertex -0.0075 3.74044 -0.94264
  vertex -0.3223 3.88728 -3.44261
  vertex -0.3223 3.88724 -0.94264
  endloop
 endfacet

 facet normal 0.707049 0.707164 -1.695e-05
  outer loop
  vertex 0.2379 3.49508 -0.94264
  vertex 0.2379 3.49502 -3.44264
  vertex -0.0075 3.74038 -3.44264
  endloop
 endfacet

 facet normal 0.707049 0.707165 -1.69276e-05
  outer loop
  vertex 0.2379 3.49508 -0.94264
  vertex -0.0075 3.74038 -3.44264
  vertex -0.0075 3.74044 -0.94264
  endloop
 endfacet

 facet normal 0.906294 0.422648 -2.81993e-06
  outer loop
  vertex 0.3847 3.18025 -0.94262
  vertex 0.3847 3.18032 -3.44269
  vertex 0.2379 3.49502 -3.44264
  endloop
 endfacet

 facet normal 0.906316 0.4226 -1.01562e-05
  outer loop
  vertex 0.3847 3.18025 -0.94262
  vertex 0.2379 3.49502 -3.44264
  vertex 0.2379 3.49508 -0.94264
  endloop
 endfacet

 facet normal 0.996185 0.0872659 2.09443e-06
  outer loop
  vertex 0.415 2.83437 -0.94265
  vertex 0.415 2.83441 -3.44262
  vertex 0.3847 3.18032 -3.44269
  endloop
 endfacet

 facet normal 0.996185 0.0872684 2.44677e-06
  outer loop
  vertex 0.415 2.83437 -0.94265
  vertex 0.3847 3.18032 -3.44269
  vertex 0.3847 3.18025 -0.94262
  endloop
 endfacet

 facet normal 0.965929 -0.258808 -4.46748e-06
  outer loop
  vertex 0.3251 2.49884 -0.94269
  vertex 0.3251 2.49889 -3.44266
  vertex 0.415 2.83441 -3.44262
  endloop
 endfacet

 facet normal 0.965929 -0.258806 -4.12188e-06
  outer loop
  vertex 0.3251 2.49884 -0.94269
  vertex 0.415 2.83441 -3.44262
  vertex 0.415 2.83437 -0.94265
  endloop
 endfacet

 facet normal 0.819085 -0.573672 -3.04704e-06
  outer loop
  vertex 0.1259 2.21446 -0.94269
  vertex 0.1259 2.2144 -3.44269
  vertex 0.3251 2.49889 -3.44266
  endloop
 endfacet

 facet normal 0.819051 -0.573721 -1.14354e-05
  outer loop
  vertex 0.1259 2.21446 -0.94269
  vertex 0.3251 2.49889 -3.44266
  vertex 0.3251 2.49884 -0.94269
  endloop
 endfacet

 facet normal 0.573823 -0.818979 8.72038e-06
  outer loop
  vertex -0.1585 2.01516 -0.94267
  vertex -0.1585 2.0152 -3.44265
  vertex 0.1259 2.2144 -3.44269
  endloop
 endfacet

 facet normal 0.573887 -0.818934 1.9603e-05
  outer loop
  vertex -0.1585 2.01516 -0.94267
  vertex 0.1259 2.2144 -3.44269
  vertex 0.1259 2.21446 -0.94269
  endloop
 endfacet

 facet normal 0.258577 -0.965991 -3.80839e-06
  outer loop
  vertex -0.4939 1.92541 -0.9427
  vertex -0.4939 1.92536 -3.4427
  vertex -0.1585 2.0152 -3.44265
  endloop
 endfacet

 facet normal 0.258496 -0.966012 -1.53852e-05
  outer loop
  vertex -0.4939 1.92541 -0.9427
  vertex -0.1585 2.0152 -3.44265
  vertex -0.1585 2.01516 -0.94267
  endloop
 endfacet

 facet normal -0.0871051 -0.996199 6.66632e-06
  outer loop
  vertex -0.8399 1.95563 -0.94268
  vertex -0.8399 1.95568 -3.44265
  vertex -0.4939 1.92536 -3.4427
  endloop
 endfacet

 facet normal -0.0870099 -0.996207 1.99512e-05
  outer loop
  vertex -0.8399 1.95563 -0.94268
  vertex -0.4939 1.92536 -3.4427
  vertex -0.4939 1.92541 -0.9427
  endloop
 endfacet

 facet normal -0.42257 -0.90633 -4.83929e-06
  outer loop
  vertex -1.1547 2.10244 -0.94268
  vertex -1.1547 2.10238 -3.44268
  vertex -0.8399 1.95568 -3.44265
  endloop
 endfacet

 facet normal -0.422656 -0.90629 -1.81074e-05
  outer loop
  vertex -1.1547 2.10244 -0.94268
  vertex -0.8399 1.95568 -3.44265
  vertex -0.8399 1.95563 -0.94268
  endloop
 endfacet

 facet normal -0.70704 -0.707174 1.59836e-05
  outer loop
  vertex -1.4002 2.34789 -0.94265
  vertex -1.4002 2.34784 -3.44265
  vertex -1.1547 2.10238 -3.44268
  endloop
 endfacet

 facet normal -0.707035 -0.707179 1.69279e-05
  outer loop
  vertex -1.4002 2.34789 -0.94265
  vertex -1.1547 2.10238 -3.44268
  vertex -1.1547 2.10244 -0.94268
  endloop
 endfacet

 facet normal -0.906337 -0.422555 2.2311e-06
  outer loop
  vertex -1.5469 2.66251 -0.94263
  vertex -1.5469 2.66257 -3.4427
  vertex -1.4002 2.34784 -3.44265
  endloop
 endfacet

 facet normal -0.906318 -0.422595 8.42308e-06
  outer loop
  vertex -1.5469 2.66251 -0.94263
  vertex -1.4002 2.34784 -3.44265
  vertex -1.4002 2.34789 -0.94265
  endloop
 endfacet

 facet normal -0.996187 -0.0872397 -1.86082e-06
  outer loop
  vertex -1.5772 3.00851 -0.94267
  vertex -1.5772 3.00855 -3.44265
  vertex -1.5469 2.66257 -3.4427
  endloop
 endfacet

 facet normal -0.996187 -0.087238 -2.0965e-06
  outer loop
  vertex -1.5772 3.00851 -0.94267
  vertex -1.5469 2.66257 -3.4427
  vertex -1.5469 2.66251 -0.94263
  endloop
 endfacet

 facet normal -0.965922 0.258834 1.02802e-06
  outer loop
  vertex -1.4873 3.34403 -0.94263
  vertex -1.4873 3.34398 -3.44263
  vertex -1.5772 3.00855 -3.44265
  endloop
 endfacet

 facet normal -0.965928 0.258813 4.12198e-06
  outer loop
  vertex -1.4873 3.34403 -0.94263
  vertex -1.5772 3.00855 -3.44265
  vertex -1.5772 3.00851 -0.94267
  endloop
 endfacet

 facet normal 2.00428e-05 4.60796e-05 1
  outer loop
  vertex -1.3581 3.98181 -3.44265
  vertex -1.2881 3.62849 -3.4427
  vertex -1.0037 3.82766 -3.44265
  endloop
 endfacet

 facet normal 6.36283e-05 0.000146285 1
  outer loop
  vertex -1.3581 3.98181 -3.44265
  vertex -1.0037 3.82766 -3.44265
  vertex -1.1568 4.09798 -3.44268
  endloop
 endfacet

 facet normal -8.51429e-05 -0.000126935 1
  outer loop
  vertex -0.9384 4.17759 -3.44268
  vertex -1.0037 3.82766 -3.44265
  vertex -0.6683 3.91753 -3.44269
  endloop
 endfacet

 facet normal -0.000178184 -0.000223568 1
  outer loop
  vertex -0.9384 4.17759 -3.44268
  vertex -0.6683 3.91753 -3.44269
  vertex -0.7094 4.21796 -3.44263
  endloop
 endfacet

 facet normal 8.75522e-05 0.000101523 1
  outer loop
  vertex -0.477 4.21796 -3.44263
  vertex -0.6683 3.91753 -3.44269
  vertex -0.3223 3.88728 -3.44261
  endloop
 endfacet

 facet normal 0.000248909 0.000177009 1
  outer loop
  vertex -0.477 4.21796 -3.44263
  vertex -0.3223 3.88728 -3.44261
  vertex -0.2481 4.17759 -3.44268
  endloop
 endfacet

 facet normal -7.34138e-06 0.000110888 1
  outer loop
  vertex -0.0296 4.09798 -3.44268
  vertex -0.3223 3.88728 -3.44261
  vertex -0.0075 3.74038 -3.44264
  endloop
 endfacet

 facet normal -8.6893e-05 0.000105972 1
  outer loop
  vertex -0.0296 4.09798 -3.44268
  vertex -0.0075 3.74038 -3.44264
  vertex 0.1717 3.98181 -3.44265
  endloop
 endfacet

 facet normal 0.000206839 -0.000127899 1
  outer loop
  vertex 0.3497 3.83241 -3.44262
  vertex -0.0075 3.74038 -3.44264
  vertex 0.2379 3.49502 -3.44264
  endloop
 endfacet

 facet normal 0.000332548 -0.000169555 1
  outer loop
  vertex 0.3497 3.83241 -3.44262
  vertex 0.2379 3.49502 -3.44264
  vertex 0.4991 3.65437 -3.4427
  endloop
 endfacet

 facet normal -6.49768e-05 -0.000201219 1
  outer loop
  vertex 0.6154 3.45299 -3.44262
  vertex 0.2379 3.49502 -3.44264
  vertex 0.3847 3.18032 -3.44269
  endloop
 endfacet

 facet normal -6.01886e-05 -0.000205271 1
  outer loop
  vertex 0.6154 3.45299 -3.44262
  vertex 0.3847 3.18032 -3.44269
  vertex 0.6949 3.23455 -3.44266
  endloop
 endfacet

 facet normal 0.000134846 0.000214184 1
  outer loop
  vertex 0.7353 3.00566 -3.4427
  vertex 0.3847 3.18032 -3.44269
  vertex 0.415 2.83441 -3.44262
  endloop
 endfacet

 facet normal 0.000134739 0.000214385 1
  outer loop
  vertex 0.7353 3.00566 -3.4427
  vertex 0.415 2.83441 -3.44262
  vertex 0.7353 2.77323 -3.44265
  endloop
 endfacet

 facet normal -9.2183e-05 -0.000131592 1
  outer loop
  vertex 0.6949 2.54422 -3.44262
  vertex 0.415 2.83441 -3.44262
  vertex 0.3251 2.49889 -3.44266
  endloop
 endfacet

 facet normal -8.98439e-05 -0.000150674 1
  outer loop
  vertex 0.6949 2.54422 -3.44262
  vertex 0.3251 2.49889 -3.44266
  vertex 0.6154 2.32579 -3.44266
  endloop
 endfacet

 facet normal -1.48773e-05 4.95873e-05 1
  outer loop
  vertex 0.4991 2.12443 -3.44268
  vertex 0.3251 2.49889 -3.44266
  vertex 0.1259 2.2144 -3.44269
  endloop
 endfacet

 facet normal -3.40738e-08 0.000111158 1
  outer loop
  vertex 0.4991 2.12443 -3.44268
  vertex 0.1259 2.2144 -3.44269
  vertex 0.3497 1.94636 -3.44266
  endloop
 endfacet

 facet normal -0.000112408 -7.83085e-05 1
  outer loop
  vertex 0.1717 1.79696 -3.44263
  vertex 0.1259 2.2144 -3.44269
  vertex -0.1585 2.0152 -3.44265
  endloop
 endfacet

 facet normal -0.000186994 -0.000191158 1
  outer loop
  vertex 0.1717 1.79696 -3.44263
  vertex -0.1585 2.0152 -3.44265
  vertex -0.0296 1.68082 -3.44269
  endloop
 endfacet

 facet normal 8.68387e-05 6.5849e-05 1
  outer loop
  vertex -0.2481 1.60121 -3.4427
  vertex -0.1585 2.0152 -3.44265
  vertex -0.4939 1.92536 -3.4427
  endloop
 endfacet

 facet normal 0.000192001 0.000145593 1
  outer loop
  vertex -0.2481 1.60121 -3.4427
  vertex -0.4939 1.92536 -3.4427
  vertex -0.477 1.56082 -3.44265
  endloop
 endfacet

 facet normal -0.000104606 -3.45721e-05 1
  outer loop
  vertex -0.7094 1.56082 -3.44265
  vertex -0.4939 1.92536 -3.4427
  vertex -0.8399 1.95568 -3.44265
  endloop
 endfacet

 facet normal -0.000231065 -7.63663e-05 1
  outer loop
  vertex -0.7094 1.56082 -3.44265
  vertex -0.8399 1.95568 -3.44265
  vertex -0.9384 1.60121 -3.4427
  endloop
 endfacet

 facet normal 0.000153345 -2.45175e-05 1
  outer loop
  vertex -1.1568 1.68082 -3.44269
  vertex -0.8399 1.95568 -3.44265
  vertex -1.1547 2.10238 -3.44268
  endloop
 endfacet

 facet normal 0.000282766 -2.51622e-05 1
  outer loop
  vertex -1.1568 1.68082 -3.44269
  vertex -1.1547 2.10238 -3.44268
  vertex -1.3581 1.79696 -3.44263
  endloop
 endfacet

 facet normal 4.172e-05 -3.90742e-05 1
  outer loop
  vertex -1.5362 1.94636 -3.44266
  vertex -1.1547 2.10238 -3.44268
  vertex -1.4002 2.34784 -3.44265
  endloop
 endfacet

 facet normal 2.65535e-05 -3.39366e-05 1
  outer loop
  vertex -1.5362 1.94636 -3.44266
  vertex -1.4002 2.34784 -3.44265
  vertex -1.6856 2.12453 -3.44265
  endloop
 endfacet

 facet normal 0.00016846 -9.27784e-06 1
  outer loop
  vertex -1.8018 2.32579 -3.44266
  vertex -1.4002 2.34784 -3.44265
  vertex -1.5469 2.66257 -3.4427
  endloop
 endfacet

 facet normal 0.000269084 -8.54376e-05 1
  outer loop
  vertex -1.8018 2.32579 -3.44266
  vertex -1.5469 2.66257 -3.4427
  vertex -1.8813 2.54422 -3.44262
  endloop
 endfacet

 facet normal -0.000105976 0.000155146 1
  outer loop
  vertex -1.9217 2.77323 -3.44265
  vertex -1.5469 2.66257 -3.4427
  vertex -1.5772 3.00855 -3.44265
  endloop
 endfacet

 facet normal -0.000205378 0.000300666 1
  outer loop
  vertex -1.9217 2.77323 -3.44265
  vertex -1.5772 3.00855 -3.44265
  vertex -1.9217 3.00557 -3.44272
  endloop
 endfacet

 facet normal -4.02633e-05 -0.000129553 1
  outer loop
  vertex -1.8813 3.23455 -3.44266
  vertex -1.5772 3.00855 -3.44265
  vertex -1.4873 3.34398 -3.44263
  endloop
 endfacet

 facet normal -2.81643e-05 -0.000173115 1
  outer loop
  vertex -1.8813 3.23455 -3.44266
  vertex -1.4873 3.34398 -3.44263
  vertex -1.8018 3.45299 -3.44262
  endloop
 endfacet

 facet normal -1.33667e-05 -0.000205303 1
  outer loop
  vertex -1.6856 3.65437 -3.4427
  vertex -1.4873 3.34398 -3.44263
  vertex -1.2881 3.62849 -3.4427
  endloop
 endfacet

 facet normal -2.76946e-05 -0.000425369 1
  outer loop
  vertex -1.6856 3.65437 -3.4427
  vertex -1.2881 3.62849 -3.4427
  vertex -1.5362 3.83241 -3.44262
  endloop
 endfacet

 facet normal -0.307516 0.439213 0.844112
  outer loop
  vertex -0.6182 2.92976 -0.33505
  vertex -1.0037 3.82762 -0.94267
  vertex -1.2881 3.62842 -0.94263
  endloop
 endfacet

 facet normal -0.137791 0.513861 0.846735
  outer loop
  vertex -0.6182 2.92976 -0.33505
  vertex -0.6683 3.91759 -0.94269
  vertex -1.0037 3.82762 -0.94267
  endloop
 endfacet

 facet normal 0.0459353 0.525074 0.849816
  outer loop
  vertex -0.6182 2.92976 -0.33505
  vertex -0.3223 3.88724 -0.94264
  vertex -0.6683 3.91759 -0.94269
  endloop
 endfacet

 facet normal 0.220611 0.473081 0.852951
  outer loop
  vertex -0.6182 2.92976 -0.33505
  vertex -0.0075 3.74044 -0.94264
  vertex -0.3223 3.88724 -0.94264
  endloop
 endfacet

 facet normal 0.365783 0.365842 0.855782
  outer loop
  vertex -0.6182 2.92976 -0.33505
  vertex 0.2379 3.49508 -0.94264
  vertex -0.0075 3.74044 -0.94264
  endloop
 endfacet

 facet normal 0.465543 0.217129 0.857977
  outer loop
  vertex -0.6182 2.92976 -0.33505
  vertex 0.3847 3.18025 -0.94262
  vertex 0.2379 3.49508 -0.94264
  endloop
 endfacet

 facet normal 0.509468 0.0445562 0.859335
  outer loop
  vertex -0.6182 2.92976 -0.33505
  vertex 0.415 2.83437 -0.94265
  vertex 0.3847 3.18025 -0.94262
  endloop
 endfacet

 facet normal 0.493359 -0.13229 0.859707
  outer loop
  vertex -0.6182 2.92976 -0.33505
  vertex 0.3251 2.49884 -0.94269
  vertex 0.415 2.83437 -0.94265
  endloop
 endfacet

 facet normal 0.419233 -0.293661 0.859073
  outer loop
  vertex -0.6182 2.92976 -0.33505
  vertex 0.1259 2.21446 -0.94269
  vertex 0.3251 2.49884 -0.94269
  endloop
 endfacet

 facet normal 0.295282 -0.42128 0.857515
  outer loop
  vertex -0.6182 2.92976 -0.33505
  vertex -0.1585 2.01516 -0.94267
  vertex 0.1259 2.21446 -0.94269
  endloop
 endfacet

 facet normal 0.133933 -0.500799 0.855139
  outer loop
  vertex -0.6182 2.92976 -0.33505
  vertex -0.4939 1.92541 -0.9427
  vertex -0.1585 2.01516 -0.94267
  endloop
 endfacet

 facet normal -0.0454753 -0.521228 0.852205
  outer loop
  vertex -0.6182 2.92976 -0.33505
  vertex -0.8399 1.95563 -0.94268
  vertex -0.4939 1.92541 -0.9427
  endloop
 endfacet

 facet normal -0.22329 -0.478795 0.849056
  outer loop
  vertex -0.6182 2.92976 -0.33505
  vertex -1.1547 2.10244 -0.94268
  vertex -0.8399 1.95563 -0.94268
  endloop
 endfacet

 facet normal -0.376846 -0.377026 0.846072
  outer loop
  vertex -0.6182 2.92976 -0.33505
  vertex -1.4002 2.34789 -0.94265
  vertex -1.1547 2.10244 -0.94268
  endloop
 endfacet

 facet normal -0.486612 -0.22695 0.843624
  outer loop
  vertex -0.6182 2.92976 -0.33505
  vertex -1.5469 2.66251 -0.94263
  vertex -1.4002 2.34789 -0.94265
  endloop
 endfacet

 facet normal -0.53737 -0.0469612 0.842038
  outer loop
  vertex -0.6182 2.92976 -0.33505
  vertex -1.5772 3.00851 -0.94267
  vertex -1.5469 2.66251 -0.94263
  endloop
 endfacet

 facet normal -0.521752 0.139699 0.841581
  outer loop
  vertex -0.6182 2.92976 -0.33505
  vertex -1.4873 3.34403 -0.94263
  vertex -1.5772 3.00851 -0.94267
  endloop
 endfacet

 facet normal -0.441461 0.30922 0.842315
  outer loop
  vertex -0.6182 2.92976 -0.33505
  vertex -1.2881 3.62842 -0.94263
  vertex -1.4873 3.34403 -0.94263
  endloop
 endfacet

 facet normal 0 0.121409 0.992603
  outer loop
  vertex -0.477 4.21796 -3.44263
  vertex 3.2617 9.06934 -4.03602
  vertex -4.3831 9.06934 -4.03602
  endloop
 endfacet

 facet normal 0 0.121409 0.992603
  outer loop
  vertex -0.477 4.21796 -3.44263
  vertex -4.3831 9.06934 -4.03602
  vertex -0.7094 4.21796 -3.44263
  endloop
 endfacet

 facet normal -0.100848 0.0585847 0.993176
  outer loop
  vertex -4.3831 9.06934 -4.03602
  vertex -1.8018 3.45299 -3.44262
  vertex -1.6856 3.65437 -3.4427
  endloop
 endfacet

 facet normal -0.127332 0.04616 0.990786
  outer loop
  vertex -4.3831 9.06934 -4.03602
  vertex -1.8813 3.23455 -3.44266
  vertex -1.8018 3.45299 -3.44262
  endloop
 endfacet

 facet normal -0.166052 0.0290397 0.985689
  outer loop
  vertex -4.3831 9.06934 -4.03602
  vertex -1.9217 3.00557 -3.44272
  vertex -1.8813 3.23455 -3.44266
  endloop
 endfacet

 facet normal -0.0818018 0.0681971 0.994313
  outer loop
  vertex -4.3831 9.06934 -4.03602
  vertex -1.6856 3.65437 -3.4427
  vertex -1.5362 3.83241 -3.44262
  endloop
 endfacet

 facet normal -0.0648323 0.0774867 0.994883
  outer loop
  vertex -4.3831 9.06934 -4.03602
  vertex -1.5362 3.83241 -3.44262
  vertex -1.3581 3.98181 -3.44265
  endloop
 endfacet

 facet normal -0.0497531 0.0864676 0.995012
  outer loop
  vertex -4.3831 9.06934 -4.03602
  vertex -1.3581 3.98181 -3.44265
  vertex -1.1568 4.09798 -3.44268
  endloop
 endfacet

 facet normal 0.0810812 0.0675923 0.994413
  outer loop
  vertex 3.2617 9.06934 -4.03602
  vertex 0.3497 3.83241 -3.44262
  vertex 0.4991 3.65437 -3.4427
  endloop
 endfacet

 facet normal 0.0644006 0.0769289 0.994955
  outer loop
  vertex 3.2617 9.06934 -4.03602
  vertex 0.1717 3.98181 -3.44265
  vertex 0.3497 3.83241 -3.44262
  endloop
 endfacet

 facet normal 0.0494841 0.0860016 0.995065
  outer loop
  vertex 3.2617 9.06934 -4.03602
  vertex -0.0296 4.09798 -3.44268
  vertex 0.1717 3.98181 -3.44265
  endloop
 endfacet

 facet normal 0.0348525 0.0956573 0.994804
  outer loop
  vertex 3.2617 9.06934 -4.03602
  vertex -0.2481 4.17759 -3.44268
  vertex -0.0296 4.09798 -3.44268
  endloop
 endfacet

 facet normal -0.0349983 0.0960137 0.994765
  outer loop
  vertex -4.3831 9.06934 -4.03602
  vertex -1.1568 4.09798 -3.44268
  vertex -0.9384 4.17759 -3.44268
  endloop
 endfacet

 facet normal 0.019069 0.106895 0.994087
  outer loop
  vertex 3.2617 9.06934 -4.03602
  vertex -0.477 4.21796 -3.44263
  vertex -0.2481 4.17759 -3.44268
  endloop
 endfacet

 facet normal -0.0191009 0.107123 0.994062
  outer loop
  vertex -4.3831 9.06934 -4.03602
  vertex -0.9384 4.17759 -3.44268
  vertex -0.7094 4.21796 -3.44263
  endloop
 endfacet

 facet normal 0.099702 0.0579734 0.993327
  outer loop
  vertex 3.2617 9.06934 -4.03602
  vertex 0.4991 3.65437 -3.4427
  vertex 0.6154 3.45299 -3.44262
  endloop
 endfacet

 facet normal 0.125599 0.0455292 0.991036
  outer loop
  vertex 3.2617 9.06934 -4.03602
  vertex 0.6154 3.45299 -3.44262
  vertex 0.6949 3.23455 -3.44266
  endloop
 endfacet

 facet normal 0.162979 0.0285949 0.986215
  outer loop
  vertex 3.2617 9.06934 -4.03602
  vertex 0.6949 3.23455 -3.44266
  vertex 0.7353 3.00566 -3.4427
  endloop
 endfacet

 facet normal 0.112164 -0.966794 -0.229625
  outer loop
  vertex 3.2662 2.29773 -7.25264
  vertex 19.2158 3.81049 -7.25272
  vertex 15.1624 2.63682 -2.86943
  endloop
 endfacet

 facet normal 0.121634 -0.959013 -0.255929
  outer loop
  vertex 3.2662 2.29773 -7.25264
  vertex 15.1624 2.63682 -2.86943
  vertex 3.2612 1.52838 -4.37212
  endloop
 endfacet

 facet normal -0.000195414 0.00200736 -0.999998
  outer loop
  vertex 3.2662 2.29773 -7.25264
  vertex 3.2634 8.21063 -7.24077
  vertex 19.2158 3.81049 -7.25272
  endloop
 endfacet

 facet normal 0.345425 0.000201189 0.938446
  outer loop
  vertex 3.2612 1.52838 -4.37212
  vertex 0.7353 3.00566 -3.4427
  vertex 0.7353 2.77323 -3.44265
  endloop
 endfacet

 facet normal 0.0100697 -0.94245 0.334194
  outer loop
  vertex -4.3577 1.38264 -3.8282
  vertex 3.2612 1.52838 -4.37212
  vertex -0.477 1.56082 -3.44265
  endloop
 endfacet

 facet normal 0 -0.90775 0.419512
  outer loop
  vertex -4.3577 1.38264 -3.8282
  vertex -0.477 1.56082 -3.44265
  vertex -0.7094 1.56082 -3.44265
  endloop
 endfacet

 facet normal -0.173151 0.0260464 0.984551
  outer loop
  vertex -4.3577 1.38264 -3.8282
  vertex -1.9217 3.00557 -3.44272
  vertex -4.3831 9.06934 -4.03602
  endloop
 endfacet

 facet normal -0.999968 6.68572e-05 -0.00803703
  outer loop
  vertex -4.3577 2.29773 -7.25264
  vertex -4.3831 9.06934 -4.03602
  vertex -4.3574 8.21063 -7.24077
  endloop
 endfacet

 facet normal -0.999994 -0.00332846 -0.000889441
  outer loop
  vertex -4.3577 1.38264 -3.8282
  vertex -4.3831 9.06934 -4.03602
  vertex -4.3577 2.29773 -7.25264
  endloop
 endfacet

 facet normal 0.323206 -0.0421574 0.945389
  outer loop
  vertex 3.2612 1.52838 -4.37212
  vertex 3.2617 9.06934 -4.03602
  vertex 0.7353 3.00566 -3.4427
  endloop
 endfacet

 facet normal 0.320206 -0.0563639 0.94567
  outer loop
  vertex 3.2612 1.52838 -4.37212
  vertex 0.7353 2.77323 -3.44265
  vertex 0.6949 2.54422 -3.44262
  endloop
 endfacet

 facet normal 0.299956 -0.109346 0.947666
  outer loop
  vertex 3.2612 1.52838 -4.37212
  vertex 0.6949 2.54422 -3.44262
  vertex 0.6154 2.32579 -3.44266
  endloop
 endfacet

 facet normal 0.282779 -0.163419 0.945161
  outer loop
  vertex 3.2612 1.52838 -4.37212
  vertex 0.6154 2.32579 -3.44266
  vertex 0.4991 2.12443 -3.44268
  endloop
 endfacet

 facet normal 0.267066 -0.223963 0.937292
  outer loop
  vertex 3.2612 1.52838 -4.37212
  vertex 0.4991 2.12443 -3.44268
  vertex 0.3497 1.94636 -3.44266
  endloop
 endfacet

 facet normal 0.231598 -0.401874 0.885923
  outer loop
  vertex 3.2612 1.52838 -4.37212
  vertex 0.1717 1.79696 -3.44263
  vertex -0.0296 1.68082 -3.44269
  endloop
 endfacet

 facet normal 0.202183 -0.555019 0.806893
  outer loop
  vertex 3.2612 1.52838 -4.37212
  vertex -0.0296 1.68082 -3.44269
  vertex -0.2481 1.60121 -3.4427
  endloop
 endfacet

 facet normal 0.140217 -0.793913 0.591642
  outer loop
  vertex 3.2612 1.52838 -4.37212
  vertex -0.2481 1.60121 -3.4427
  vertex -0.477 1.56082 -3.44265
  endloop
 endfacet

 facet normal 0.251011 -0.298877 0.920688
  outer loop
  vertex 3.2612 1.52838 -4.37212
  vertex 0.3497 1.94636 -3.44266
  vertex 0.1717 1.79696 -3.44263
  endloop
 endfacet

 facet normal -0.0747842 -0.422891 0.903089
  outer loop
  vertex -4.3577 1.38264 -3.8282
  vertex -0.7094 1.56082 -3.44265
  vertex -0.9384 1.60121 -3.4427
  endloop
 endfacet

 facet normal -0.0923578 -0.253493 0.962918
  outer loop
  vertex -4.3577 1.38264 -3.8282
  vertex -0.9384 1.60121 -3.4427
  vertex -1.1568 1.68082 -3.44269
  endloop
 endfacet

 facet normal -0.101485 -0.176403 0.979072
  outer loop
  vertex -4.3577 1.38264 -3.8282
  vertex -1.1568 1.68082 -3.44269
  vertex -1.3581 1.79696 -3.44263
  endloop
 endfacet

 facet normal -0.108801 -0.129503 0.985592
  outer loop
  vertex -4.3577 1.38264 -3.8282
  vertex -1.3581 1.79696 -3.44263
  vertex -1.5362 1.94636 -3.44266
  endloop
 endfacet

 facet normal -0.115685 -0.0970599 0.988532
  outer loop
  vertex -4.3577 1.38264 -3.8282
  vertex -1.5362 1.94636 -3.44266
  vertex -1.6856 2.12453 -3.44265
  endloop
 endfacet

 facet normal -0.123103 -0.0710257 0.989849
  outer loop
  vertex -4.3577 1.38264 -3.8282
  vertex -1.6856 2.12453 -3.44265
  vertex -1.8018 2.32579 -3.44266
  endloop
 endfacet

 facet normal -0.131612 -0.0480831 0.990135
  outer loop
  vertex -4.3577 1.38264 -3.8282
  vertex -1.8018 2.32579 -3.44266
  vertex -1.8813 2.54422 -3.44262
  endloop
 endfacet

 facet normal -0.142349 -0.0249822 0.989501
  outer loop
  vertex -4.3577 1.38264 -3.8282
  vertex -1.8813 2.54422 -3.44262
  vertex -1.9217 2.77323 -3.44265
  endloop
 endfacet

 facet normal -0.156491 0.000296961 0.987679
  outer loop
  vertex -4.3577 1.38264 -3.8282
  vertex -1.9217 2.77323 -3.44265
  vertex -1.9217 3.00557 -3.44272
  endloop
 endfacet

 facet normal 1.96923e-05 -0.966112 -0.258124
  outer loop
  vertex 3.2662 2.29773 -7.25264
  vertex 3.2612 1.52838 -4.37212
  vertex -4.3577 1.38264 -3.8282
  endloop
 endfacet

 facet normal 0 -0.966101 -0.258165
  outer loop
  vertex 3.2662 2.29773 -7.25264
  vertex -4.3577 1.38264 -3.8282
  vertex -4.3577 2.29773 -7.25264
  endloop
 endfacet

 facet normal -0.81906 0.573708 -1.1435e-05
  outer loop
  vertex -1.2881 3.62842 -0.94263
  vertex -1.4873 3.34398 -3.44263
  vertex -1.4873 3.34403 -0.94263
  endloop
 endfacet

 facet normal -0.819174 0.573546 1.60806e-05
  outer loop
  vertex -1.2881 3.62842 -0.94263
  vertex -1.2881 3.62849 -3.4427
  vertex -1.4873 3.34398 -3.44263
  endloop
 endfacet

 facet normal 0.000246081 -9.22783e-05 1
  outer loop
  vertex -1.5362 3.83241 -3.44262
  vertex -1.2881 3.62849 -3.4427
  vertex -1.3581 3.98181 -3.44265
  endloop
 endfacet

 facet normal -3.33102e-05 9.13826e-05 1
  outer loop
  vertex -1.1568 4.09798 -3.44268
  vertex -1.0037 3.82766 -3.44265
  vertex -0.9384 4.17759 -3.44268
  endloop
 endfacet

 facet normal 0 -0.000199191 1
  outer loop
  vertex -0.7094 4.21796 -3.44263
  vertex -0.6683 3.91753 -3.44269
  vertex -0.477 4.21796 -3.44263
  endloop
 endfacet

 facet normal 8.02033e-05 0.000220129 1
  outer loop
  vertex -0.2481 4.17759 -3.44268
  vertex -0.3223 3.88728 -3.44261
  vertex -0.0296 4.09798 -3.44268
  endloop
 endfacet

 facet normal -8.25369e-05 0.000102739 1
  outer loop
  vertex 0.1717 3.98181 -3.44265
  vertex -0.0075 3.74038 -3.44264
  vertex 0.3497 3.83241 -3.44262
  endloop
 endfacet

 facet normal -9.50525e-06 0.000391125 1
  outer loop
  vertex 0.4991 3.65437 -3.4427
  vertex 0.2379 3.49502 -3.44264
  vertex 0.6154 3.45299 -3.44262
  endloop
 endfacet

 facet normal -6.36982e-05 -0.000185195 1
  outer loop
  vertex 0.6949 3.23455 -3.44266
  vertex 0.3847 3.18032 -3.44269
  vertex 0.7353 3.00566 -3.4427
  endloop
 endfacet

 facet normal 0.000114971 0.000110894 1
  outer loop
  vertex 0.7353 2.77323 -3.44265
  vertex 0.415 2.83441 -3.44262
  vertex 0.6949 2.54422 -3.44262
  endloop
 endfacet

 facet normal -4.35881e-05 -7.31001e-05 1
  outer loop
  vertex 0.6154 2.32579 -3.44266
  vertex 0.3251 2.49889 -3.44266
  vertex 0.4991 2.12443 -3.44268
  endloop
 endfacet

 facet normal 4.43598e-05 0.000148224 1
  outer loop
  vertex 0.3497 1.94636 -3.44266
  vertex 0.1259 2.2144 -3.44269
  vertex 0.1717 1.79696 -3.44263
  endloop
 endfacet

 facet normal -2.1434e-06 -0.0001199 1
  outer loop
  vertex -0.0296 1.68082 -3.44269
  vertex -0.1585 2.0152 -3.44265
  vertex -0.2481 1.60121 -3.4427
  endloop
 endfacet

 facet normal 0 0.000136691 1
  outer loop
  vertex -0.477 1.56082 -3.44265
  vertex -0.4939 1.92536 -3.4427
  vertex -0.7094 1.56082 -3.44265
  endloop
 endfacet

 facet normal -4.89586e-06 -0.000139214 1
  outer loop
  vertex -0.9384 1.60121 -3.4427
  vertex -0.8399 1.95568 -3.44265
  vertex -1.1568 1.68082 -3.44269
  endloop
 endfacet

 facet normal -2.04111e-05 0.000176744 1
  outer loop
  vertex -1.3581 1.79696 -3.44263
  vertex -1.1547 2.10238 -3.44268
  vertex -1.5362 1.94636 -3.44266
  endloop
 endfacet

 facet normal -2.68159e-05 3.4272e-05 1
  outer loop
  vertex -1.6856 2.12453 -3.44265
  vertex -1.4002 2.34784 -3.44265
  vertex -1.8018 2.32579 -3.44266
  endloop
 endfacet

 facet normal 0.000181113 0.000163127 1
  outer loop
  vertex -1.8813 2.54422 -3.44262
  vertex -1.5469 2.66257 -3.4427
  vertex -1.9217 2.77323 -3.44265
  endloop
 endfacet

 facet normal -0.000200823 -0.000225914 1
  outer loop
  vertex -1.9217 3.00557 -3.44272
  vertex -1.5772 3.00855 -3.44265
  vertex -1.8813 3.23455 -3.44266
  endloop
 endfacet

 facet normal 0.000141093 0.000315201 1
  outer loop
  vertex -1.8018 3.45299 -3.44262
  vertex -1.4873 3.34398 -3.44263
  vertex -1.6856 3.65437 -3.4427
  endloop
 endfacet

 facet normal 1 0 0
  outer loop
  vertex 80.5968 12.6599 -7.25014
  vertex 80.5968 14.2706 -1.2386
  vertex 80.5968 11.6675 -0.54107
  endloop
 endfacet

 facet normal 1 0 0
  outer loop
  vertex 80.5968 12.6599 -7.25014
  vertex 80.5968 11.6675 -0.54107
  vertex 80.5968 9.94676 -7.25263
  endloop
 endfacet

 facet normal -0.0403446 0.0307127 0.998714
  outer loop
  vertex 7.5661 7.35135 5.79926
  vertex 6.3762 3.94354 5.85599
  vertex 7.5661 3.74089 5.91029
  endloop
 endfacet

 facet normal -0.116265 0.0571027 0.991575
  outer loop
  vertex 7.5661 7.35135 5.79926
  vertex 5.3301 4.52686 5.69974
  vertex 6.3762 3.94354 5.85599
  endloop
 endfacet

 facet normal -0.178623 0.106943 0.978088
  outer loop
  vertex 7.5661 7.35135 5.79926
  vertex 4.5534 5.42083 5.46015
  vertex 5.3301 4.52686 5.69974
  endloop
 endfacet

 facet normal -0.219798 0.174408 0.959828
  outer loop
  vertex 7.5661 7.35135 5.79926
  vertex 4.1404 6.51756 5.16629
  vertex 4.5534 5.42083 5.46015
  endloop
 endfacet

 facet normal -0.234725 0.251598 0.938937
  outer loop
  vertex 7.5661 7.35135 5.79926
  vertex 4.1404 7.68456 4.85358
  vertex 4.1404 6.51756 5.16629
  endloop
 endfacet

 facet normal -0.221357 0.329334 0.9179
  outer loop
  vertex 7.5661 7.35135 5.79926
  vertex 4.5534 8.78107 4.55976
  vertex 4.1404 7.68456 4.85358
  endloop
 endfacet

 facet normal -0.181007 0.398201 0.899262
  outer loop
  vertex 7.5661 7.35135 5.79926
  vertex 5.3301 9.67513 4.3202
  vertex 4.5534 8.78107 4.55976
  endloop
 endfacet

 facet normal -0.118434 0.449563 0.885362
  outer loop
  vertex 7.5661 7.35135 5.79926
  vertex 6.3762 10.2586 4.16388
  vertex 5.3301 9.67513 4.3202
  endloop
 endfacet

 facet normal -0.0411306 0.477021 0.877929
  outer loop
  vertex 7.5661 7.35135 5.79926
  vertex 7.5661 10.4611 4.10956
  vertex 6.3762 10.2586 4.16388
  endloop
 endfacet

 facet normal 0.041134 0.477021 0.877929
  outer loop
  vertex 7.5661 7.35135 5.79926
  vertex 8.7559 10.2586 4.16388
  vertex 7.5661 10.4611 4.10956
  endloop
 endfacet

 facet normal 0.118407 0.449576 0.885359
  outer loop
  vertex 7.5661 7.35135 5.79926
  vertex 9.8023 9.67513 4.3202
  vertex 8.7559 10.2586 4.16388
  endloop
 endfacet

 facet normal 0.181034 0.398166 0.899272
  outer loop
  vertex 7.5661 7.35135 5.79926
  vertex 10.5787 8.78107 4.55976
  vertex 9.8023 9.67513 4.3202
  endloop
 endfacet

 facet normal 0.221345 0.329367 0.917891
  outer loop
  vertex 7.5661 7.35135 5.79926
  vertex 10.9919 7.68456 4.85358
  vertex 10.5787 8.78107 4.55976
  endloop
 endfacet

 facet normal 0.234719 0.251598 0.938938
  outer loop
  vertex 7.5661 7.35135 5.79926
  vertex 10.9919 6.51756 5.16629
  vertex 10.9919 7.68456 4.85358
  endloop
 endfacet

 facet normal 0.219785 0.174375 0.959837
  outer loop
  vertex 7.5661 7.35135 5.79926
  vertex 10.5787 5.42083 5.46015
  vertex 10.9919 6.51756 5.16629
  endloop
 endfacet

 facet normal 0.178649 0.106978 0.97808
  outer loop
  vertex 7.5661 7.35135 5.79926
  vertex 9.8023 4.52686 5.69974
  vertex 10.5787 5.42083 5.46015
  endloop
 endfacet

 facet normal 0.116239 0.0570904 0.991579
  outer loop
  vertex 7.5661 7.35135 5.79926
  vertex 8.7559 3.94354 5.85599
  vertex 9.8023 4.52686 5.69974
  endloop
 endfacet

 facet normal 0.040348 0.0307127 0.998714
  outer loop
  vertex 7.5661 7.35135 5.79926
  vertex 7.5661 3.74089 5.91029
  vertex 8.7559 3.94354 5.85599
  endloop
 endfacet

 facet normal -0.500019 0.837457 -0.22056
  outer loop
  vertex 5.3189 8.60431 0.27968
  vertex 5.3301 9.67513 4.3202
  vertex 6.3762 10.2586 4.16388
  endloop
 endfacet

 facet normal -0.500015 0.837459 -0.220563
  outer loop
  vertex 5.3189 8.60431 0.27968
  vertex 6.3762 10.2586 4.16388
  vertex 6.3704 9.19075 0.1226
  endloop
 endfacet

 facet normal -2.98472e-05 0.258783 0.965936
  outer loop
  vertex 5.3189 8.60431 0.27968
  vertex 6.3704 9.19075 0.1226
  vertex 6.2248 9.67392 -0.00685
  endloop
 endfacet

 facet normal -2.98126e-05 0.258783 0.965936
  outer loop
  vertex 5.3189 8.60431 0.27968
  vertex 6.2248 9.67392 -0.00685
  vertex 5.0455 9.01621 0.16932
  endloop
 endfacet

 facet normal 4.53943e-07 0.258846 0.965919
  outer loop
  vertex 5.3189 8.60431 0.27968
  vertex 5.0455 9.01621 0.16932
  vertex 4.1701 8.00837 0.43938
  endloop
 endfacet

 facet normal -8.76851e-06 0.258863 0.965914
  outer loop
  vertex 5.3189 8.60431 0.27968
  vertex 4.1701 8.00837 0.43938
  vertex 4.5383 7.70588 0.52045
  endloop
 endfacet

 facet normal -0.766013 0.621898 -0.162686
  outer loop
  vertex 5.3189 8.60431 0.27968
  vertex 4.5383 7.70588 0.52045
  vertex 4.5534 8.78107 4.55976
  endloop
 endfacet

 facet normal -0.766026 0.621881 -0.162688
  outer loop
  vertex 5.3189 8.60431 0.27968
  vertex 4.5534 8.78107 4.55976
  vertex 5.3301 9.67513 4.3202
  endloop
 endfacet

 facet normal -0.173649 0.952198 -0.251327
  outer loop
  vertex 6.3704 9.19075 0.1226
  vertex 6.3762 10.2586 4.16388
  vertex 7.5661 10.4611 4.10956
  endloop
 endfacet

 facet normal -0.173685 0.952195 -0.251315
  outer loop
  vertex 6.3704 9.19075 0.1226
  vertex 7.5661 10.4611 4.10956
  vertex 7.5661 9.39443 0.06796
  endloop
 endfacet

 facet normal 3.09558e-05 0.258759 0.965942
  outer loop
  vertex 6.3704 9.19075 0.1226
  vertex 7.5661 9.39443 0.06796
  vertex 7.5661 9.90245 -0.06809
  endloop
 endfacet

 facet normal 8.65756e-06 0.258794 0.965933
  outer loop
  vertex 6.3704 9.19075 0.1226
  vertex 7.5661 9.90245 -0.06809
  vertex 6.2248 9.67392 -0.00685
  endloop
 endfacet

 facet normal 1.76787e-05 0.258801 0.965931
  outer loop
  vertex 4.5383 7.70588 0.52045
  vertex 4.1701 8.00837 0.43938
  vertex 3.7043 6.77222 0.77062
  endloop
 endfacet

 facet normal 4.09769e-05 0.258782 0.965936
  outer loop
  vertex 4.5383 7.70588 0.52045
  vertex 3.7043 6.77222 0.77062
  vertex 4.1231 6.6037 0.81575
  endloop
 endfacet

 facet normal -0.939726 0.331281 -0.0846626
  outer loop
  vertex 4.5383 7.70588 0.52045
  vertex 4.1231 6.6037 0.81575
  vertex 4.1404 7.68456 4.85358
  endloop
 endfacet

 facet normal -0.939732 0.331264 -0.0846632
  outer loop
  vertex 4.5383 7.70588 0.52045
  vertex 4.1404 7.68456 4.85358
  vertex 4.5534 8.78107 4.55976
  endloop
 endfacet

 facet normal 0.173654 0.952195 -0.251334
  outer loop
  vertex 7.5661 9.39443 0.06796
  vertex 7.5661 10.4611 4.10956
  vertex 8.7559 10.2586 4.16388
  endloop
 endfacet

 facet normal 0.173685 0.952188 -0.251341
  outer loop
  vertex 7.5661 9.39443 0.06796
  vertex 8.7559 10.2586 4.16388
  vertex 8.7618 9.19075 0.1226
  endloop
 endfacet

 facet normal -3.65644e-05 0.258728 0.96595
  outer loop
  vertex 7.5661 9.39443 0.06796
  vertex 8.7618 9.19075 0.1226
  vertex 8.9073 9.67392 -0.00685
  endloop
 endfacet

 facet normal -2.78084e-05 0.258689 0.965961
  outer loop
  vertex 7.5661 9.39443 0.06796
  vertex 8.9073 9.67392 -0.00685
  vertex 7.5661 9.90245 -0.06809
  endloop
 endfacet

 facet normal 6.57957e-05 0.258799 0.965931
  outer loop
  vertex 4.1231 6.6037 0.81575
  vertex 3.7043 6.77222 0.77062
  vertex 3.7043 5.45678 1.12307
  endloop
 endfacet

 facet normal 7.32413e-05 0.258797 0.965932
  outer loop
  vertex 4.1231 6.6037 0.81575
  vertex 3.7043 5.45678 1.12307
  vertex 4.1231 5.43102 1.12994
  endloop
 endfacet

 facet normal -0.999991 0.00107118 0.00399772
  outer loop
  vertex 4.1231 6.6037 0.81575
  vertex 4.1231 5.43102 1.12994
  vertex 4.1404 6.51756 5.16629
  endloop
 endfacet

 facet normal -0.999991 0.00107123 0.00399772
  outer loop
  vertex 4.1231 6.6037 0.81575
  vertex 4.1404 6.51756 5.16629
  vertex 4.1404 7.68456 4.85358
  endloop
 endfacet

 facet normal 0.499936 0.837505 -0.220567
  outer loop
  vertex 8.7618 9.19075 0.1226
  vertex 8.7559 10.2586 4.16388
  vertex 9.8023 9.67513 4.3202
  endloop
 endfacet

 facet normal 0.499943 0.8375 -0.220569
  outer loop
  vertex 8.7618 9.19075 0.1226
  vertex 9.8023 9.67513 4.3202
  vertex 9.8135 8.60431 0.27968
  endloop
 endfacet

 facet normal 2.98684e-05 0.258783 0.965935
  outer loop
  vertex 8.7618 9.19075 0.1226
  vertex 9.8135 8.60431 0.27968
  vertex 10.0868 9.01621 0.16932
  endloop
 endfacet

 facet normal 2.98734e-05 0.258783 0.965935
  outer loop
  vertex 8.7618 9.19075 0.1226
  vertex 10.0868 9.01621 0.16932
  vertex 8.9073 9.67392 -0.00685
  endloop
 endfacet

 facet normal -6.77558e-05 0.258817 0.965926
  outer loop
  vertex 4.1231 5.43102 1.12994
  vertex 3.7043 5.45678 1.12307
  vertex 4.1701 4.22053 1.45429
  endloop
 endfacet

 facet normal -0.000139077 0.258814 0.965927
  outer loop
  vertex 4.1231 5.43102 1.12994
  vertex 4.1701 4.22053 1.45429
  vertex 4.5383 4.32881 1.42533
  endloop
 endfacet

 facet normal -0.939741 -0.329105 0.0926092
  outer loop
  vertex 4.1231 5.43102 1.12994
  vertex 4.5383 4.32881 1.42533
  vertex 4.5534 5.42083 5.46015
  endloop
 endfacet

 facet normal -0.939753 -0.329072 0.0926104
  outer loop
  vertex 4.1231 5.43102 1.12994
  vertex 4.5534 5.42083 5.46015
  vertex 4.1404 6.51756 5.16629
  endloop
 endfacet

 facet normal 0.766123 0.621773 -0.162647
  outer loop
  vertex 9.8135 8.60431 0.27968
  vertex 9.8023 9.67513 4.3202
  vertex 10.5787 8.78107 4.55976
  endloop
 endfacet

 facet normal 0.76611 0.62179 -0.162645
  outer loop
  vertex 9.8135 8.60431 0.27968
  vertex 10.5787 8.78107 4.55976
  vertex 10.5938 7.70588 0.52045
  endloop
 endfacet

 facet normal -9.67887e-06 0.25883 0.965923
  outer loop
  vertex 9.8135 8.60431 0.27968
  vertex 10.5938 7.70588 0.52045
  vertex 10.9622 8.00837 0.43938
  endloop
 endfacet

 facet normal -1.89019e-05 0.258813 0.965927
  outer loop
  vertex 9.8135 8.60431 0.27968
  vertex 10.9622 8.00837 0.43938
  vertex 10.0868 9.01621 0.16932
  endloop
 endfacet

 facet normal -1.89023e-05 0.258814 0.965927
  outer loop
  vertex 4.5383 4.32881 1.42533
  vertex 4.1701 4.22053 1.45429
  vertex 5.0455 3.21279 1.72437
  endloop
 endfacet

 facet normal 3.40271e-05 0.258836 0.965921
  outer loop
  vertex 4.5383 4.32881 1.42533
  vertex 5.0455 3.21279 1.72437
  vertex 5.3189 3.43028 1.66608
  endloop
 endfacet

 facet normal -0.766004 -0.619781 0.170613
  outer loop
  vertex 4.5383 4.32881 1.42533
  vertex 5.3189 3.43028 1.66608
  vertex 5.3301 4.52686 5.69974
  endloop
 endfacet

 facet normal -0.765997 -0.61979 0.170612
  outer loop
  vertex 4.5383 4.32881 1.42533
  vertex 5.3301 4.52686 5.69974
  vertex 4.5534 5.42083 5.46015
  endloop
 endfacet

 facet normal 0.939667 0.331439 -0.0847
  outer loop
  vertex 10.5938 7.70588 0.52045
  vertex 10.5787 8.78107 4.55976
  vertex 10.9919 7.68456 4.85358
  endloop
 endfacet

 facet normal 0.939661 0.331456 -0.0846993
  outer loop
  vertex 10.5938 7.70588 0.52045
  vertex 10.9919 7.68456 4.85358
  vertex 11.0092 6.6037 0.81575
  endloop
 endfacet

 facet normal 5.61233e-06 0.25882 0.965925
  outer loop
  vertex 10.5938 7.70588 0.52045
  vertex 11.0092 6.6037 0.81575
  vertex 11.428 6.77222 0.77062
  endloop
 endfacet

 facet normal 2.89056e-05 0.25884 0.96592
  outer loop
  vertex 10.5938 7.70588 0.52045
  vertex 11.428 6.77222 0.77062
  vertex 10.9622 8.00837 0.43938
  endloop
 endfacet

 facet normal 2.25294e-05 0.258846 0.965919
  outer loop
  vertex 5.3189 3.43028 1.66608
  vertex 5.0455 3.21279 1.72437
  vertex 6.2248 2.55517 1.90057
  endloop
 endfacet

 facet normal 2.1663e-05 0.258845 0.965919
  outer loop
  vertex 5.3189 3.43028 1.66608
  vertex 6.2248 2.55517 1.90057
  vertex 6.3704 2.84395 1.82318
  endloop
 endfacet

 facet normal -0.499946 -0.835372 0.228491
  outer loop
  vertex 5.3189 3.43028 1.66608
  vertex 6.3704 2.84395 1.82318
  vertex 6.3762 3.94354 5.85599
  endloop
 endfacet

 facet normal -0.499944 -0.835373 0.22849
  outer loop
  vertex 5.3189 3.43028 1.66608
  vertex 6.3762 3.94354 5.85599
  vertex 5.3301 4.52686 5.69974
  endloop
 endfacet

 facet normal 0.999991 0.00107111 0.00399761
  outer loop
  vertex 11.0092 6.6037 0.81575
  vertex 10.9919 7.68456 4.85358
  vertex 10.9919 6.51756 5.16629
  endloop
 endfacet

 facet normal 0.999991 0.00107106 0.00399761
  outer loop
  vertex 11.0092 6.6037 0.81575
  vertex 10.9919 6.51756 5.16629
  vertex 11.0092 5.43102 1.12994
  endloop
 endfacet

 facet normal -5.835e-05 0.258802 0.96593
  outer loop
  vertex 11.0092 6.6037 0.81575
  vertex 11.0092 5.43102 1.12994
  vertex 11.428 5.45678 1.12307
  endloop
 endfacet

 facet normal -5.09045e-05 0.258805 0.96593
  outer loop
  vertex 11.0092 6.6037 0.81575
  vertex 11.428 5.45678 1.12307
  vertex 11.428 6.77222 0.77062
  endloop
 endfacet

 facet normal 2.0138e-05 0.258827 0.965924
  outer loop
  vertex 6.3704 2.84395 1.82318
  vertex 6.2248 2.55517 1.90057
  vertex 7.5661 2.32676 1.96174
  endloop
 endfacet

 facet normal 1.64967e-05 0.258819 0.965926
  outer loop
  vertex 6.3704 2.84395 1.82318
  vertex 7.5661 2.32676 1.96174
  vertex 7.5661 2.64029 1.87773
  endloop
 endfacet

 facet normal -0.173641 -0.95006 0.259296
  outer loop
  vertex 6.3704 2.84395 1.82318
  vertex 7.5661 2.64029 1.87773
  vertex 7.5661 3.74089 5.91029
  endloop
 endfacet

 facet normal -0.173636 -0.950062 0.259294
  outer loop
  vertex 6.3704 2.84395 1.82318
  vertex 7.5661 3.74089 5.91029
  vertex 6.3762 3.94354 5.85599
  endloop
 endfacet

 facet normal 0.939677 -0.329279 0.0926457
  outer loop
  vertex 11.0092 5.43102 1.12994
  vertex 10.9919 6.51756 5.16629
  vertex 10.5787 5.42083 5.46015
  endloop
 endfacet

 facet normal 0.939665 -0.329312 0.0926445
  outer loop
  vertex 11.0092 5.43102 1.12994
  vertex 10.5787 5.42083 5.46015
  vertex 10.5938 4.32881 1.42533
  endloop
 endfacet

 facet normal -3.59076e-06 0.258819 0.965926
  outer loop
  vertex 11.0092 5.43102 1.12994
  vertex 10.5938 4.32881 1.42533
  vertex 10.9622 4.22053 1.45429
  endloop
 endfacet

 facet normal -7.48874e-05 0.258822 0.965925
  outer loop
  vertex 11.0092 5.43102 1.12994
  vertex 10.9622 4.22053 1.45429
  vertex 11.428 5.45678 1.12307
  endloop
 endfacet

 facet normal -2.19227e-05 0.258836 0.965921
  outer loop
  vertex 7.5661 2.64029 1.87773
  vertex 7.5661 2.32676 1.96174
  vertex 8.9073 2.55517 1.90057
  endloop
 endfacet

 facet normal -2.13232e-05 0.258845 0.965919
  outer loop
  vertex 7.5661 2.64029 1.87773
  vertex 8.9073 2.55517 1.90057
  vertex 8.7618 2.84395 1.82318
  endloop
 endfacet

 facet normal 0.17365 -0.950058 0.259298
  outer loop
  vertex 7.5661 2.64029 1.87773
  vertex 8.7618 2.84395 1.82318
  vertex 8.7559 3.94354 5.85599
  endloop
 endfacet

 facet normal 0.17365 -0.950058 0.259298
  outer loop
  vertex 7.5661 2.64029 1.87773
  vertex 8.7559 3.94354 5.85599
  vertex 7.5661 3.74089 5.91029
  endloop
 endfacet

 facet normal 0.766133 -0.619633 0.170576
  outer loop
  vertex 10.5938 4.32881 1.42533
  vertex 10.5787 5.42083 5.46015
  vertex 9.8023 4.52686 5.69974
  endloop
 endfacet

 facet normal 0.766139 -0.619624 0.170577
  outer loop
  vertex 10.5938 4.32881 1.42533
  vertex 9.8023 4.52686 5.69974
  vertex 9.8135 3.43028 1.66608
  endloop
 endfacet

 facet normal 7.17913e-05 0.258791 0.965933
  outer loop
  vertex 10.5938 4.32881 1.42533
  vertex 9.8135 3.43028 1.66608
  vertex 10.0868 3.21279 1.72437
  endloop
 endfacet

 facet normal 0.000124707 0.258769 0.965939
  outer loop
  vertex 10.5938 4.32881 1.42533
  vertex 10.0868 3.21279 1.72437
  vertex 10.9622 4.22053 1.45429
  endloop
 endfacet

 facet normal -2.32517e-05 0.258847 0.965918
  outer loop
  vertex 8.7618 2.84395 1.82318
  vertex 8.9073 2.55517 1.90057
  vertex 10.0868 3.21279 1.72437
  endloop
 endfacet

 facet normal -2.3617e-05 0.258848 0.965918
  outer loop
  vertex 8.7618 2.84395 1.82318
  vertex 10.0868 3.21279 1.72437
  vertex 9.8135 3.43028 1.66608
  endloop
 endfacet

 facet normal 0.499851 -0.835422 0.228513
  outer loop
  vertex 8.7618 2.84395 1.82318
  vertex 9.8135 3.43028 1.66608
  vertex 9.8023 4.52686 5.69974
  endloop
 endfacet

 facet normal 0.499837 -0.835429 0.22852
  outer loop
  vertex 8.7618 2.84395 1.82318
  vertex 9.8023 4.52686 5.69974
  vertex 8.7559 3.94354 5.85599
  endloop
 endfacet

 facet normal -0.0595876 0.834428 0.547886
  outer loop
  vertex 7.5661 9.90245 -0.06809
  vertex 11.9885 9.97393 -0.66016
  vertex 3.1232 9.97393 -0.66016
  endloop
 endfacet

 facet normal -0.0847121 0.689861 0.718968
  outer loop
  vertex 7.5661 9.90245 -0.06809
  vertex 3.1232 9.97393 -0.66016
  vertex 6.2248 9.67392 -0.00685
  endloop
 endfacet

 facet normal -0.687553 0.188039 0.701364
  outer loop
  vertex 3.7043 6.77222 0.77062
  vertex 3.1232 9.97393 -0.66016
  vertex 3.1244 2.07395 1.46177
  endloop
 endfacet

 facet normal -0.687053 0.188049 0.701852
  outer loop
  vertex 3.7043 6.77222 0.77062
  vertex 3.1244 2.07395 1.46177
  vertex 3.7043 5.45678 1.12307
  endloop
 endfacet

 facet normal 0.701677 0.184601 0.688166
  outer loop
  vertex 11.428 5.45678 1.12307
  vertex 11.9907 2.07395 1.46177
  vertex 11.9885 9.97393 -0.66016
  endloop
 endfacet

 facet normal 0.702596 0.184162 0.687345
  outer loop
  vertex 11.428 5.45678 1.12307
  vertex 11.9885 9.97393 -0.66016
  vertex 11.428 6.77222 0.77062
  endloop
 endfacet

 facet normal -0.0952593 -0.979492 -0.177539
  outer loop
  vertex 6.2248 2.55517 1.90057
  vertex 3.1244 2.07395 1.46177
  vertex 11.9907 2.07395 1.46177
  endloop
 endfacet

 facet normal -0.111442 -0.808991 -0.577161
  outer loop
  vertex 6.2248 2.55517 1.90057
  vertex 11.9907 2.07395 1.46177
  vertex 7.5661 2.32676 1.96174
  endloop
 endfacet

 facet normal 0.137296 0.478522 0.867275
  outer loop
  vertex 11.9885 9.97393 -0.66016
  vertex 8.9073 9.67392 -0.00685
  vertex 10.0868 9.01621 0.16932
  endloop
 endfacet

 facet normal 0.187708 0.403057 0.895718
  outer loop
  vertex 11.9885 9.97393 -0.66016
  vertex 10.0868 9.01621 0.16932
  vertex 10.9622 8.00837 0.43938
  endloop
 endfacet

 facet normal 0.28913 0.347923 0.891826
  outer loop
  vertex 11.9885 9.97393 -0.66016
  vertex 10.9622 8.00837 0.43938
  vertex 11.428 6.77222 0.77062
  endloop
 endfacet

 facet normal 0.292141 0.14327 0.945583
  outer loop
  vertex 11.9907 2.07395 1.46177
  vertex 11.428 5.45678 1.12307
  vertex 10.9622 4.22053 1.45429
  endloop
 endfacet

 facet normal 0.19171 0.0952586 0.976818
  outer loop
  vertex 11.9907 2.07395 1.46177
  vertex 10.9622 4.22053 1.45429
  vertex 10.0868 3.21279 1.72437
  endloop
 endfacet

 facet normal 0.142385 0.00981276 0.989763
  outer loop
  vertex 11.9907 2.07395 1.46177
  vertex 10.0868 3.21279 1.72437
  vertex 8.9073 2.55517 1.90057
  endloop
 endfacet

 facet normal 0.0917219 -0.282889 0.954757
  outer loop
  vertex 11.9907 2.07395 1.46177
  vertex 8.9073 2.55517 1.90057
  vertex 7.5661 2.32676 1.96174
  endloop
 endfacet

 facet normal -0.14179 0.0109426 0.989836
  outer loop
  vertex 3.1244 2.07395 1.46177
  vertex 6.2248 2.55517 1.90057
  vertex 5.0455 3.21279 1.72437
  endloop
 endfacet

 facet normal -0.1906 0.0962547 0.976937
  outer loop
  vertex 3.1244 2.07395 1.46177
  vertex 5.0455 3.21279 1.72437
  vertex 4.1701 4.22053 1.45429
  endloop
 endfacet

 facet normal -0.289617 0.144383 0.94619
  outer loop
  vertex 3.1244 2.07395 1.46177
  vertex 4.1701 4.22053 1.45429
  vertex 3.7043 5.45678 1.12307
  endloop
 endfacet

 facet normal -0.286197 0.347152 0.893071
  outer loop
  vertex 3.1232 9.97393 -0.66016
  vertex 3.7043 6.77222 0.77062
  vertex 4.1701 8.00837 0.43938
  endloop
 endfacet

 facet normal -0.186444 0.402141 0.896394
  outer loop
  vertex 3.1232 9.97393 -0.66016
  vertex 4.1701 8.00837 0.43938
  vertex 5.0455 9.01621 0.16932
  endloop
 endfacet

 facet normal -0.136637 0.47748 0.867953
  outer loop
  vertex 3.1232 9.97393 -0.66016
  vertex 5.0455 9.01621 0.16932
  vertex 6.2248 9.67392 -0.00685
  endloop
 endfacet

 facet normal 0.0849473 0.690924 0.71792
  outer loop
  vertex 11.9885 9.97393 -0.66016
  vertex 7.5661 9.90245 -0.06809
  vertex 8.9073 9.67392 -0.00685
  endloop
 endfacet

 facet normal 0.309014 -0.246138 -0.918655
  outer loop
  vertex 77.3079 13.9768 -2.32633
  vertex 77.3079 11.9862 -1.79295
  vertex 76.8982 11.9517 -1.92156
  endloop
 endfacet

 facet normal 0.308976 -0.246133 -0.918669
  outer loop
  vertex 77.3079 13.9768 -2.32633
  vertex 76.8982 11.9517 -1.92156
  vertex 76.8982 13.9424 -2.45491
  endloop
 endfacet

 facet normal 0.499894 -0.224152 -0.836578
  outer loop
  vertex 76.8982 13.9424 -2.45491
  vertex 76.8982 11.9517 -1.92156
  vertex 76.5251 11.896 -2.12956
  endloop
 endfacet

 facet normal 0.49992 -0.224154 -0.836561
  outer loop
  vertex 76.8982 13.9424 -2.45491
  vertex 76.5251 11.896 -2.12956
  vertex 76.5251 13.8866 -2.66293
  endloop
 endfacet

 facet normal 0.669109 -0.192325 -0.717847
  outer loop
  vertex 76.5251 13.8866 -2.66293
  vertex 76.5251 11.896 -2.12956
  vertex 76.2049 11.8214 -2.40807
  endloop
 endfacet

 facet normal 0.669075 -0.192324 -0.717879
  outer loop
  vertex 76.5251 13.8866 -2.66293
  vertex 76.2049 11.8214 -2.40807
  vertex 76.2049 13.8119 -2.94135
  endloop
 endfacet

 facet normal 0.809012 -0.152119 -0.567767
  outer loop
  vertex 76.2049 13.8119 -2.94135
  vertex 76.2049 11.8214 -2.40807
  vertex 75.9517 11.7312 -2.74467
  endloop
 endfacet

 facet normal 0.809027 -0.152119 -0.567746
  outer loop
  vertex 76.2049 13.8119 -2.94135
  vertex 75.9517 11.7312 -2.74467
  vertex 75.9517 13.7217 -3.27798
  endloop
 endfacet

 facet normal 0.913481 -0.105306 -0.393017
  outer loop
  vertex 75.9517 13.7217 -3.27798
  vertex 75.9517 11.7312 -2.74467
  vertex 75.7764 11.6293 -3.1248
  endloop
 endfacet

 facet normal 0.913484 -0.105306 -0.39301
  outer loop
  vertex 75.9517 13.7217 -3.27798
  vertex 75.7764 11.6293 -3.1248
  vertex 75.7764 13.6199 -3.65817
  endloop
 endfacet

 facet normal 0.97818 -0.0537664 -0.200681
  outer loop
  vertex 75.7764 13.6199 -3.65817
  vertex 75.7764 11.6293 -3.1248
  vertex 75.6869 11.5203 -3.53189
  endloop
 endfacet

 facet normal 0.978177 -0.053767 -0.200694
  outer loop
  vertex 75.7764 13.6199 -3.65817
  vertex 75.6869 11.5203 -3.53189
  vertex 75.6869 13.5108 -4.06517
  endloop
 endfacet

 facet normal 1 0 0
  outer loop
  vertex 75.6869 13.5108 -4.06517
  vertex 75.6869 11.5203 -3.53189
  vertex 75.6869 11.4088 -3.94803
  endloop
 endfacet

 facet normal 1 0 0
  outer loop
  vertex 75.6869 13.5108 -4.06517
  vertex 75.6869 11.4088 -3.94803
  vertex 75.6869 13.3992 -4.48133
  endloop
 endfacet

 facet normal 0.978183 0.0537703 0.200664
  outer loop
  vertex 75.6869 13.3992 -4.48133
  vertex 75.6869 11.4088 -3.94803
  vertex 75.7764 11.2997 -4.35503
  endloop
 endfacet

 facet normal 0.978186 0.0537695 0.20065
  outer loop
  vertex 75.6869 13.3992 -4.48133
  vertex 75.7764 11.2997 -4.35503
  vertex 75.7764 13.2902 -4.88843
  endloop
 endfacet

 facet normal 0.913506 0.105304 0.392961
  outer loop
  vertex 75.7764 13.2902 -4.88843
  vertex 75.7764 11.2997 -4.35503
  vertex 75.9517 11.1978 -4.73525
  endloop
 endfacet

 facet normal 0.913505 0.105304 0.392961
  outer loop
  vertex 75.7764 13.2902 -4.88843
  vertex 75.9517 11.1978 -4.73525
  vertex 75.9517 13.1883 -5.26865
  endloop
 endfacet

 facet normal 0.808983 0.152156 0.567799
  outer loop
  vertex 75.9517 13.1883 -5.26865
  vertex 75.9517 11.1978 -4.73525
  vertex 76.2049 11.1077 -5.07185
  endloop
 endfacet

 facet normal 0.808983 0.152156 0.567799
  outer loop
  vertex 75.9517 13.1883 -5.26865
  vertex 76.2049 11.1077 -5.07185
  vertex 76.2049 13.0982 -5.60525
  endloop
 endfacet

 facet normal 0.669075 0.192371 0.717866
  outer loop
  vertex 76.2049 13.0982 -5.60525
  vertex 76.2049 11.1077 -5.07185
  vertex 76.5251 11.033 -5.35027
  endloop
 endfacet

 facet normal 0.669075 0.192371 0.717866
  outer loop
  vertex 76.2049 13.0982 -5.60525
  vertex 76.5251 11.033 -5.35027
  vertex 76.5251 13.0235 -5.88367
  endloop
 endfacet

 facet normal 0.500041 0.224132 0.836495
  outer loop
  vertex 76.5251 13.0235 -5.88367
  vertex 76.5251 11.033 -5.35027
  vertex 76.8982 10.9772 -5.55841
  endloop
 endfacet

 facet normal 0.499984 0.224127 0.83653
  outer loop
  vertex 76.5251 13.0235 -5.88367
  vertex 76.8982 10.9772 -5.55841
  vertex 76.8982 12.9678 -6.09176
  endloop
 endfacet

 facet normal 0.309048 0.246144 0.918642
  outer loop
  vertex 76.8982 12.9678 -6.09176
  vertex 76.8982 10.9772 -5.55841
  vertex 77.3079 10.9428 -5.68699
  endloop
 endfacet

 facet normal 0.309085 0.246148 0.918628
  outer loop
  vertex 76.8982 12.9678 -6.09176
  vertex 77.3079 10.9428 -5.68699
  vertex 77.3079 12.9334 -6.22037
  endloop
 endfacet

 facet normal 0.104583 0.257416 0.960624
  outer loop
  vertex 77.3079 12.9334 -6.22037
  vertex 77.3079 10.9428 -5.68699
  vertex 77.7364 10.9311 -5.73049
  endloop
 endfacet

 facet normal 0.104617 0.257422 0.960619
  outer loop
  vertex 77.3079 12.9334 -6.22037
  vertex 77.7364 10.9311 -5.73049
  vertex 77.7364 12.9216 -6.26389
  endloop
 endfacet

 facet normal -0.309048 0.246136 0.918644
  outer loop
  vertex 78.1648 12.9334 -6.22037
  vertex 78.1648 10.9428 -5.68699
  vertex 78.5745 10.9772 -5.55841
  endloop
 endfacet

 facet normal -0.309085 0.246125 0.918634
  outer loop
  vertex 78.1648 12.9334 -6.22037
  vertex 78.5745 10.9772 -5.55841
  vertex 78.5745 12.9678 -6.09176
  endloop
 endfacet

 facet normal -0.500041 0.224145 0.836492
  outer loop
  vertex 78.5745 12.9678 -6.09176
  vertex 78.5745 10.9772 -5.55841
  vertex 78.9476 11.033 -5.35027
  endloop
 endfacet

 facet normal -0.499984 0.224167 0.836519
  outer loop
  vertex 78.5745 12.9678 -6.09176
  vertex 78.9476 11.033 -5.35027
  vertex 78.9476 13.0235 -5.88367
  endloop
 endfacet

 facet normal -0.669075 0.192371 0.717866
  outer loop
  vertex 78.9476 13.0235 -5.88367
  vertex 78.9476 11.033 -5.35027
  vertex 79.2678 11.1077 -5.07185
  endloop
 endfacet

 facet normal -0.669075 0.192371 0.717866
  outer loop
  vertex 78.9476 13.0235 -5.88367
  vertex 79.2678 11.1077 -5.07185
  vertex 79.2678 13.0982 -5.60525
  endloop
 endfacet

 facet normal -0.808983 0.152156 0.567799
  outer loop
  vertex 79.2678 13.0982 -5.60525
  vertex 79.2678 11.1077 -5.07185
  vertex 79.521 11.1978 -4.73525
  endloop
 endfacet

 facet normal -0.808983 0.152156 0.567799
  outer loop
  vertex 79.2678 13.0982 -5.60525
  vertex 79.521 11.1978 -4.73525
  vertex 79.521 13.1883 -5.26865
  endloop
 endfacet

 facet normal -0.913512 0.1053 0.392946
  outer loop
  vertex 79.521 13.1883 -5.26865
  vertex 79.521 11.1978 -4.73525
  vertex 79.6963 11.2997 -4.35503
  endloop
 endfacet

 facet normal -0.913512 0.105301 0.392947
  outer loop
  vertex 79.521 13.1883 -5.26865
  vertex 79.6963 11.2997 -4.35503
  vertex 79.6963 13.2902 -4.88843
  endloop
 endfacet

 facet normal -0.978183 0.0537673 0.200665
  outer loop
  vertex 79.6963 13.2902 -4.88843
  vertex 79.6963 11.2997 -4.35503
  vertex 79.7858 11.4088 -3.94803
  endloop
 endfacet

 facet normal -0.978186 0.0537606 0.200652
  outer loop
  vertex 79.6963 13.2902 -4.88843
  vertex 79.7858 11.4088 -3.94803
  vertex 79.7858 13.3992 -4.48133
  endloop
 endfacet

 facet normal -1 0 0
  outer loop
  vertex 79.7858 13.3992 -4.48133
  vertex 79.7858 11.4088 -3.94803
  vertex 79.7858 11.5203 -3.53189
  endloop
 endfacet

 facet normal -1 0 0
  outer loop
  vertex 79.7858 13.3992 -4.48133
  vertex 79.7858 11.5203 -3.53189
  vertex 79.7858 13.5108 -4.06517
  endloop
 endfacet

 facet normal -0.97818 -0.053769 -0.20068
  outer loop
  vertex 79.7858 13.5108 -4.06517
  vertex 79.7858 11.5203 -3.53189
  vertex 79.6963 11.6293 -3.1248
  endloop
 endfacet

 facet normal -0.978177 -0.0537748 -0.200692
  outer loop
  vertex 79.7858 13.5108 -4.06517
  vertex 79.6963 11.6293 -3.1248
  vertex 79.6963 13.6199 -3.65817
  endloop
 endfacet

 facet normal -0.913488 -0.105301 -0.393003
  outer loop
  vertex 79.6963 13.6199 -3.65817
  vertex 79.6963 11.6293 -3.1248
  vertex 79.521 11.7312 -2.74467
  endloop
 endfacet

 facet normal -0.913491 -0.105297 -0.392997
  outer loop
  vertex 79.6963 13.6199 -3.65817
  vertex 79.521 11.7312 -2.74467
  vertex 79.521 13.7217 -3.27798
  endloop
 endfacet

 facet normal -0.809012 -0.152114 -0.567768
  outer loop
  vertex 79.521 13.7217 -3.27798
  vertex 79.521 11.7312 -2.74467
  vertex 79.2678 11.8214 -2.40807
  endloop
 endfacet

 facet normal -0.809027 -0.152104 -0.56775
  outer loop
  vertex 79.521 13.7217 -3.27798
  vertex 79.2678 11.8214 -2.40807
  vertex 79.2678 13.8119 -2.94135
  endloop
 endfacet

 facet normal -0.669109 -0.192334 -0.717845
  outer loop
  vertex 79.2678 13.8119 -2.94135
  vertex 79.2678 11.8214 -2.40807
  vertex 78.9476 11.896 -2.12956
  endloop
 endfacet

 facet normal -0.669075 -0.192352 -0.717872
  outer loop
  vertex 79.2678 13.8119 -2.94135
  vertex 78.9476 11.896 -2.12956
  vertex 78.9476 13.8866 -2.66293
  endloop
 endfacet

 facet normal -0.499894 -0.224146 -0.836579
  outer loop
  vertex 78.9476 13.8866 -2.66293
  vertex 78.9476 11.896 -2.12956
  vertex 78.5745 11.9517 -1.92156
  endloop
 endfacet

 facet normal -0.49992 -0.224136 -0.836566
  outer loop
  vertex 78.9476 13.8866 -2.66293
  vertex 78.5745 11.9517 -1.92156
  vertex 78.5745 13.9424 -2.45491
  endloop
 endfacet

 facet normal -0.309014 -0.246146 -0.918652
  outer loop
  vertex 78.5745 13.9424 -2.45491
  vertex 78.5745 11.9517 -1.92156
  vertex 78.1648 11.9862 -1.79295
  endloop
 endfacet

 facet normal -0.308976 -0.246158 -0.918662
  outer loop
  vertex 78.5745 13.9424 -2.45491
  vertex 78.1648 11.9862 -1.79295
  vertex 78.1648 13.9768 -2.32633
  endloop
 endfacet

 facet normal -0.104691 -0.257389 -0.96062
  outer loop
  vertex 78.1648 13.9768 -2.32633
  vertex 78.1648 11.9862 -1.79295
  vertex 77.7364 11.9979 -1.74943
  endloop
 endfacet

 facet normal -0.104717 -0.257383 -0.960619
  outer loop
  vertex 78.1648 13.9768 -2.32633
  vertex 77.7364 11.9979 -1.74943
  vertex 77.7364 13.9884 -2.28274
  endloop
 endfacet

 facet normal -0.0131289 0.975462 -0.219776
  outer loop
  vertex 77.9323 11.6935 -3.12934
  vertex 76.8982 11.9517 -1.92156
  vertex 77.3079 11.9862 -1.79295
  endloop
 endfacet

 facet normal -0.0197813 0.974116 -0.225184
  outer loop
  vertex 77.9323 11.6935 -3.12934
  vertex 76.5251 11.896 -2.12956
  vertex 76.8982 11.9517 -1.92156
  endloop
 endfacet

 facet normal -0.0249012 0.972388 -0.23204
  outer loop
  vertex 77.9323 11.6935 -3.12934
  vertex 76.2049 11.8214 -2.40807
  vertex 76.5251 11.896 -2.12956
  endloop
 endfacet

 facet normal -0.0279195 0.970629 -0.238957
  outer loop
  vertex 77.9323 11.6935 -3.12934
  vertex 75.9517 11.7312 -2.74467
  vertex 76.2049 11.8214 -2.40807
  endloop
 endfacet

 facet normal -0.0293499 0.96879 -0.246141
  outer loop
  vertex 77.9323 11.6935 -3.12934
  vertex 75.7764 11.6293 -3.1248
  vertex 75.9517 11.7312 -2.74467
  endloop
 endfacet

 facet normal -0.0293138 0.96712 -0.252624
  outer loop
  vertex 77.9323 11.6935 -3.12934
  vertex 75.6869 11.5203 -3.53189
  vertex 75.7764 11.6293 -3.1248
  endloop
 endfacet

 facet normal -0.0281019 0.965547 -0.258707
  outer loop
  vertex 77.9323 11.6935 -3.12934
  vertex 75.6869 11.4088 -3.94803
  vertex 75.6869 11.5203 -3.53189
  endloop
 endfacet

 facet normal -0.0259632 0.964149 -0.264087
  outer loop
  vertex 77.9323 11.6935 -3.12934
  vertex 75.7764 11.2997 -4.35503
  vertex 75.6869 11.4088 -3.94803
  endloop
 endfacet

 facet normal -0.02314 0.962955 -0.268669
  outer loop
  vertex 77.9323 11.6935 -3.12934
  vertex 75.9517 11.1978 -4.73525
  vertex 75.7764 11.2997 -4.35503
  endloop
 endfacet

 facet normal -0.0197744 0.96195 -0.272509
  outer loop
  vertex 77.9323 11.6935 -3.12934
  vertex 76.2049 11.1077 -5.07185
  vertex 75.9517 11.1978 -4.73525
  endloop
 endfacet

 facet normal -0.0156958 0.961067 -0.27587
  outer loop
  vertex 77.9323 11.6935 -3.12934
  vertex 76.5251 11.033 -5.35027
  vertex 76.2049 11.1077 -5.07185
  endloop
 endfacet

 facet normal -0.0115438 0.960422 -0.278309
  outer loop
  vertex 77.9323 11.6935 -3.12934
  vertex 76.8982 10.9772 -5.55841
  vertex 76.5251 11.033 -5.35027
  endloop
 endfacet

 facet normal -0.0072902 0.959976 -0.279988
  outer loop
  vertex 77.9323 11.6935 -3.12934
  vertex 77.3079 10.9428 -5.68699
  vertex 76.8982 10.9772 -5.55841
  endloop
 endfacet

 facet normal -0.00246623 0.959681 -0.281079
  outer loop
  vertex 77.9323 11.6935 -3.12934
  vertex 77.7364 10.9311 -5.73049
  vertex 77.3079 10.9428 -5.68699
  endloop
 endfacet

 facet normal 0.0076287 0.959681 -0.280988
  outer loop
  vertex 77.9323 11.6935 -3.12934
  vertex 78.5745 10.9772 -5.55841
  vertex 78.1648 10.9428 -5.68699
  endloop
 endfacet

 facet normal 0.0124434 0.959977 -0.279802
  outer loop
  vertex 77.9323 11.6935 -3.12934
  vertex 78.9476 11.033 -5.35027
  vertex 78.5745 10.9772 -5.55841
  endloop
 endfacet

 facet normal 0.017409 0.960513 -0.277692
  outer loop
  vertex 77.9323 11.6935 -3.12934
  vertex 79.2678 11.1077 -5.07185
  vertex 78.9476 11.033 -5.35027
  endloop
 endfacet

 facet normal 0.0225311 0.961346 -0.274421
  outer loop
  vertex 77.9323 11.6935 -3.12934
  vertex 79.521 11.1978 -4.73525
  vertex 79.2678 11.1077 -5.07185
  endloop
 endfacet

 facet normal 0.0270182 0.962395 -0.270306
  outer loop
  vertex 77.9323 11.6935 -3.12934
  vertex 79.6963 11.2997 -4.35503
  vertex 79.521 11.1978 -4.73525
  endloop
 endfacet

 facet normal 0.0309533 0.963732 -0.265072
  outer loop
  vertex 77.9323 11.6935 -3.12934
  vertex 79.7858 11.4088 -3.94803
  vertex 79.6963 11.2997 -4.35503
  endloop
 endfacet

 facet normal 0.0340375 0.965369 -0.258659
  outer loop
  vertex 77.9323 11.6935 -3.12934
  vertex 79.7858 11.5203 -3.53189
  vertex 79.7858 11.4088 -3.94803
  endloop
 endfacet

 facet normal 0.035828 0.967264 -0.25123
  outer loop
  vertex 77.9323 11.6935 -3.12934
  vertex 79.6963 11.6293 -3.1248
  vertex 79.7858 11.5203 -3.53189
  endloop
 endfacet

 facet normal 0.0358814 0.969296 -0.243265
  outer loop
  vertex 77.9323 11.6935 -3.12934
  vertex 79.521 11.7312 -2.74467
  vertex 79.6963 11.6293 -3.1248
  endloop
 endfacet

 facet normal 0.0337744 0.971463 -0.234776
  outer loop
  vertex 77.9323 11.6935 -3.12934
  vertex 79.2678 11.8214 -2.40807
  vertex 79.521 11.7312 -2.74467
  endloop
 endfacet

 facet normal 0.0294407 0.973427 -0.227099
  outer loop
  vertex 77.9323 11.6935 -3.12934
  vertex 78.9476 11.896 -2.12956
  vertex 79.2678 11.8214 -2.40807
  endloop
 endfacet

 facet normal 0.022565 0.975134 -0.220463
  outer loop
  vertex 77.9323 11.6935 -3.12934
  vertex 78.5745 11.9517 -1.92156
  vertex 78.9476 11.896 -2.12956
  endloop
 endfacet

 facet normal 0.014286 0.976224 -0.216294
  outer loop
  vertex 77.9323 11.6935 -3.12934
  vertex 78.1648 11.9862 -1.79295
  vertex 78.5745 11.9517 -1.92156
  endloop
 endfacet

 facet normal 0.00494664 0.976654 -0.214763
  outer loop
  vertex 77.9323 11.6935 -3.12934
  vertex 77.7364 11.9979 -1.74943
  vertex 78.1648 11.9862 -1.79295
  endloop
 endfacet

 facet normal 0.00180026 0.965889 -0.258949
  outer loop
  vertex 75.6869 13.3992 -4.48133
  vertex 74.5794 12.6599 -7.25014
  vertex 74.5794 14.2706 -1.2386
  endloop
 endfacet

 facet normal 0.00159645 0.965872 -0.259014
  outer loop
  vertex 75.6869 13.3992 -4.48133
  vertex 74.5794 14.2706 -1.2386
  vertex 75.6869 13.5108 -4.06517
  endloop
 endfacet

 facet normal -0.0161847 0.964942 -0.261964
  outer loop
  vertex 79.6963 13.6199 -3.65817
  vertex 80.5968 14.2706 -1.2386
  vertex 80.5968 12.6599 -7.25014
  endloop
 endfacet

 facet normal -0.0229797 0.964381 -0.263518
  outer loop
  vertex 79.6963 13.6199 -3.65817
  vertex 80.5968 12.6599 -7.25014
  vertex 79.7858 13.5108 -4.06517
  endloop
 endfacet

 facet normal 0.000753301 0.966097 -0.258178
  outer loop
  vertex 74.5794 12.6599 -7.25014
  vertex 75.9517 13.1883 -5.26865
  vertex 76.2049 13.0982 -5.60525
  endloop
 endfacet

 facet normal 0.00100421 0.966053 -0.258341
  outer loop
  vertex 74.5794 12.6599 -7.25014
  vertex 75.7764 13.2902 -4.88843
  vertex 75.9517 13.1883 -5.26865
  endloop
 endfacet

 facet normal 0.000739395 0.96575 -0.259472
  outer loop
  vertex 74.5794 14.2706 -1.2386
  vertex 76.2049 13.8119 -2.94135
  vertex 75.9517 13.7217 -3.27798
  endloop
 endfacet

 facet normal 0.00130658 0.965845 -0.259116
  outer loop
  vertex 74.5794 14.2706 -1.2386
  vertex 75.9517 13.7217 -3.27798
  vertex 75.7764 13.6199 -3.65817
  endloop
 endfacet

 facet normal 0.00126744 0.96584 -0.259134
  outer loop
  vertex 74.5794 14.2706 -1.2386
  vertex 75.7764 13.6199 -3.65817
  vertex 75.6869 13.5108 -4.06517
  endloop
 endfacet

 facet normal 0.00130021 0.966016 -0.25848
  outer loop
  vertex 74.5794 12.6599 -7.25014
  vertex 75.6869 13.3992 -4.48133
  vertex 75.7764 13.2902 -4.88843
  endloop
 endfacet

 facet normal -0.000571196 0.965685 -0.259715
  outer loop
  vertex 80.5968 14.2706 -1.2386
  vertex 79.2678 13.8119 -2.94135
  vertex 78.9476 13.8866 -2.66293
  endloop
 endfacet

 facet normal 0.000523946 0.965699 -0.259664
  outer loop
  vertex 74.5794 14.2706 -1.2386
  vertex 76.5251 13.8866 -2.66293
  vertex 76.2049 13.8119 -2.94135
  endloop
 endfacet

 facet normal -0.00051545 0.965669 -0.259775
  outer loop
  vertex 80.5968 14.2706 -1.2386
  vertex 78.9476 13.8866 -2.66293
  vertex 78.5745 13.9424 -2.45491
  endloop
 endfacet

 facet normal 0.000481498 0.965684 -0.259718
  outer loop
  vertex 74.5794 14.2706 -1.2386
  vertex 76.8982 13.9424 -2.45491
  vertex 76.5251 13.8866 -2.66293
  endloop
 endfacet

 facet normal -0.000486325 0.965657 -0.25982
  outer loop
  vertex 80.5968 14.2706 -1.2386
  vertex 78.5745 13.9424 -2.45491
  vertex 78.1648 13.9768 -2.32633
  endloop
 endfacet

 facet normal 0.000463055 0.965676 -0.259751
  outer loop
  vertex 74.5794 14.2706 -1.2386
  vertex 77.3079 13.9768 -2.32633
  vertex 76.8982 13.9424 -2.45491
  endloop
 endfacet

 facet normal -0.000307285 0.965557 -0.260193
  outer loop
  vertex 80.5968 14.2706 -1.2386
  vertex 78.1648 13.9768 -2.32633
  vertex 77.7364 13.9884 -2.28274
  endloop
 endfacet

 facet normal -0.000840347 0.966113 -0.258117
  outer loop
  vertex 80.5968 12.6599 -7.25014
  vertex 79.2678 13.0982 -5.60525
  vertex 79.521 13.1883 -5.26865
  endloop
 endfacet

 facet normal -0.000823386 0.965734 -0.259531
  outer loop
  vertex 80.5968 14.2706 -1.2386
  vertex 79.521 13.7217 -3.27798
  vertex 79.2678 13.8119 -2.94135
  endloop
 endfacet

 facet normal -0.00115392 0.96607 -0.258276
  outer loop
  vertex 80.5968 12.6599 -7.25014
  vertex 79.521 13.1883 -5.26865
  vertex 79.6963 13.2902 -4.88843
  endloop
 endfacet

 facet normal -0.00149873 0.965823 -0.259199
  outer loop
  vertex 80.5968 14.2706 -1.2386
  vertex 79.6963 13.6199 -3.65817
  vertex 79.521 13.7217 -3.27798
  endloop
 endfacet

 facet normal -0.00157177 0.96603 -0.258425
  outer loop
  vertex 80.5968 12.6599 -7.25014
  vertex 79.6963 13.2902 -4.88843
  vertex 79.7858 13.3992 -4.48133
  endloop
 endfacet

 facet normal -0.00372764 0.965867 -0.259012
  outer loop
  vertex 80.5968 12.6599 -7.25014
  vertex 79.7858 13.3992 -4.48133
  vertex 79.7858 13.5108 -4.06517
  endloop
 endfacet

 facet normal -0.000885831 0.966104 -0.258152
  outer loop
  vertex 80.5968 12.6599 -7.25014
  vertex 78.9476 13.0235 -5.88367
  vertex 79.2678 13.0982 -5.60525
  endloop
 endfacet

 facet normal 0.000811137 0.966083 -0.258232
  outer loop
  vertex 74.5794 12.6599 -7.25014
  vertex 76.2049 13.0982 -5.60525
  vertex 76.5251 13.0235 -5.88367
  endloop
 endfacet

 facet normal 0.000385302 0.966234 -0.257666
  outer loop
  vertex 74.5794 12.6599 -7.25014
  vertex 76.5251 13.0235 -5.88367
  vertex 76.8982 12.9678 -6.09176
  endloop
 endfacet

 facet normal -0.000413176 0.966247 -0.257619
  outer loop
  vertex 80.5968 12.6599 -7.25014
  vertex 78.5745 12.9678 -6.09176
  vertex 78.9476 13.0235 -5.88367
  endloop
 endfacet

 facet normal 0.000414818 0.966219 -0.257721
  outer loop
  vertex 74.5794 12.6599 -7.25014
  vertex 76.8982 12.9678 -6.09176
  vertex 77.3079 12.9334 -6.22037
  endloop
 endfacet

 facet normal -0.000436357 0.966236 -0.257657
  outer loop
  vertex 80.5968 12.6599 -7.25014
  vertex 78.1648 12.9334 -6.22037
  vertex 78.5745 12.9678 -6.09176
  endloop
 endfacet

 facet normal 0.000321798 0.966281 -0.257491
  outer loop
  vertex 74.5794 12.6599 -7.25014
  vertex 77.3079 12.9334 -6.22037
  vertex 77.7364 12.9216 -6.26389
  endloop
 endfacet

 facet normal 0 0.000917785 -1
  outer loop
  vertex 74.5764 9.94676 -7.25263
  vertex 74.5794 12.6599 -7.25014
  vertex 80.5968 12.6599 -7.25014
  endloop
 endfacet

 facet normal 0 0.000917785 -1
  outer loop
  vertex 74.5764 9.94676 -7.25263
  vertex 80.5968 12.6599 -7.25014
  vertex 80.5968 9.94676 -7.25263
  endloop
 endfacet

 facet normal -0.000210842 0.966675 -0.256008
  outer loop
  vertex 74.5794 12.6599 -7.25014
  vertex 77.7364 12.9216 -6.26389
  vertex 78.1648 12.9334 -6.22037
  endloop
 endfacet

 facet normal 0 0.966493 -0.256694
  outer loop
  vertex 74.5794 12.6599 -7.25014
  vertex 78.1648 12.9334 -6.22037
  vertex 80.5968 12.6599 -7.25014
  endloop
 endfacet

 facet normal 0 0.258826 0.965924
  outer loop
  vertex 74.5818 11.6675 -0.54107
  vertex 80.5968 11.6675 -0.54107
  vertex 80.5968 14.2706 -1.2386
  endloop
 endfacet

 facet normal 0 0.258826 0.965924
  outer loop
  vertex 74.5818 11.6675 -0.54107
  vertex 80.5968 14.2706 -1.2386
  vertex 74.5794 14.2706 -1.2386
  endloop
 endfacet

 facet normal -0.104605 0.257409 0.960624
  outer loop
  vertex 77.7364 12.9216 -6.26389
  vertex 77.7364 10.9311 -5.73049
  vertex 78.1648 10.9428 -5.68699
  endloop
 endfacet

 facet normal -0.104639 0.257401 0.960622
  outer loop
  vertex 77.7364 12.9216 -6.26389
  vertex 78.1648 10.9428 -5.68699
  vertex 78.1648 12.9334 -6.22037
  endloop
 endfacet

 facet normal 0.000200299 0.965497 -0.260413
  outer loop
  vertex 74.5794 14.2706 -1.2386
  vertex 80.5968 14.2706 -1.2386
  vertex 77.7364 13.9884 -2.28274
  endloop
 endfacet

 facet normal 0.000300449 0.965573 -0.260131
  outer loop
  vertex 74.5794 14.2706 -1.2386
  vertex 77.7364 13.9884 -2.28274
  vertex 77.3079 13.9768 -2.32633
  endloop
 endfacet

 facet normal 0.00250451 0.95958 -0.281424
  outer loop
  vertex 77.7364 10.9311 -5.73049
  vertex 77.9323 11.6935 -3.12934
  vertex 78.1648 10.9428 -5.68699
  endloop
 endfacet

 facet normal 0.104643 -0.257395 -0.960623
  outer loop
  vertex 77.3079 13.9768 -2.32633
  vertex 77.7364 13.9884 -2.28274
  vertex 77.7364 11.9979 -1.74943
  endloop
 endfacet

 facet normal 0.104617 -0.257401 -0.960625
  outer loop
  vertex 77.3079 13.9768 -2.32633
  vertex 77.7364 11.9979 -1.74943
  vertex 77.3079 11.9862 -1.79295
  endloop
 endfacet

 facet normal -0.00480355 0.976363 -0.216083
  outer loop
  vertex 77.3079 11.9862 -1.79295
  vertex 77.7364 11.9979 -1.74943
  vertex 77.9323 11.6935 -3.12934
  endloop
 endfacet

 facet normal -0.335687 0.243518 0.909952
  outer loop
  vertex 74.5794 14.2706 -1.2386
  vertex 67.6223 8.97318 -2.38743
  vertex 74.5818 11.6675 -0.54107
  endloop
 endfacet

 facet normal -0.0108329 0.15332 0.988117
  outer loop
  vertex 16.4302 9.30864 -3.00071
  vertex 15.1624 2.63682 -2.86943
  vertex 67.6223 8.97318 -2.38743
  endloop
 endfacet

 facet normal -0.0102625 0.218021 0.97589
  outer loop
  vertex 16.4302 9.30864 -3.00071
  vertex 67.6223 8.97318 -2.38743
  vertex 67.6229 13.681 -3.43919
  endloop
 endfacet

 facet normal -0.0695122 0.98176 -0.176961
  outer loop
  vertex 16.4302 9.30864 -3.00071
  vertex 67.6229 13.681 -3.43919
  vertex 74.5794 12.6599 -7.25014
  endloop
 endfacet

 facet normal -0.0621436 0.995953 -0.0649362
  outer loop
  vertex 16.4302 9.30864 -3.00071
  vertex 74.5794 12.6599 -7.25014
  vertex 3.2634 8.21063 -7.24077
  endloop
 endfacet

 facet normal 0.116784 -0.986457 -0.115174
  outer loop
  vertex 19.2158 3.81049 -7.25272
  vertex 74.5764 9.94676 -7.25263
  vertex 67.6223 8.97318 -2.38743
  endloop
 endfacet

 facet normal 0.119898 -0.981108 -0.151827
  outer loop
  vertex 19.2158 3.81049 -7.25272
  vertex 67.6223 8.97318 -2.38743
  vertex 15.1624 2.63682 -2.86943
  endloop
 endfacet

 facet normal -0.000205274 0.00160033 -0.999999
  outer loop
  vertex 3.2634 8.21063 -7.24077
  vertex 74.5794 12.6599 -7.25014
  vertex 74.5764 9.94676 -7.25263
  endloop
 endfacet

 facet normal -0.00021358 0.0019415 -0.999998
  outer loop
  vertex 3.2634 8.21063 -7.24077
  vertex 74.5764 9.94676 -7.25263
  vertex 19.2158 3.81049 -7.25272
  endloop
 endfacet

 facet normal 1.06773e-06 0.965926 -0.258819
  outer loop
  vertex 67.6229 13.681 -3.43919
  vertex 74.5794 14.2706 -1.2386
  vertex 74.5794 12.6599 -7.25014
  endloop
 endfacet

 facet normal -0.310982 0.207259 0.927542
  outer loop
  vertex 67.6223 8.97318 -2.38743
  vertex 74.5794 14.2706 -1.2386
  vertex 67.6229 13.681 -3.43919
  endloop
 endfacet

 facet normal 0 -0.965924 0.258824
  outer loop
  vertex 3.261 1.73432 0.19428
  vertex 13.0029 1.73432 0.19428
  vertex 11.9907 2.07395 1.46177
  endloop
 endfacet

 facet normal 0 -0.965924 0.258824
  outer loop
  vertex 3.261 1.73432 0.19428
  vertex 11.9907 2.07395 1.46177
  vertex 3.1244 2.07395 1.46177
  endloop
 endfacet

 facet normal -0.998116 -0.0226066 -0.057031
  outer loop
  vertex 3.261 1.73432 0.19428
  vertex 3.1244 2.07395 1.46177
  vertex 3.1232 9.97393 -0.66016
  endloop
 endfacet

 facet normal -0.999161 -0.0203942 -0.0355273
  outer loop
  vertex 3.261 1.73432 0.19428
  vertex 3.1232 9.97393 -0.66016
  vertex 3.2617 9.06934 -4.03602
  endloop
 endfacet

 facet normal 0.701031 0.158409 0.695314
  outer loop
  vertex 13.0029 1.73432 0.19428
  vertex 16.4302 9.30864 -3.00071
  vertex 11.9885 9.97393 -0.66016
  endloop
 endfacet

 facet normal 0.791803 0.158644 0.589814
  outer loop
  vertex 13.0029 1.73432 0.19428
  vertex 11.9885 9.97393 -0.66016
  vertex 11.9907 2.07395 1.46177
  endloop
 endfacet

 facet normal 0.00233405 0.964396 -0.264452
  outer loop
  vertex 3.2617 9.06934 -4.03602
  vertex 3.1232 9.97393 -0.66016
  vertex 11.9885 9.97393 -0.66016
  endloop
 endfacet

 facet normal 0.00350104 0.963618 -0.26726
  outer loop
  vertex 3.2617 9.06934 -4.03602
  vertex 11.9885 9.97393 -0.66016
  vertex 16.4302 9.30864 -3.00071
  endloop
 endfacet

 facet normal 0.00526889 -0.972417 -0.233189
  outer loop
  vertex 3.2609 2.11443 -1.06008
  vertex 3.2607 2.2329 -1.71628
  vertex 14.3348 2.32582 -1.69138
  endloop
 endfacet

 facet normal 0.00356874 -0.965421 -0.260669
  outer loop
  vertex 3.2609 2.11443 -1.06008
  vertex 14.3348 2.32582 -1.69138
  vertex 13.8813 2.15104 -1.05027
  endloop
 endfacet

 facet normal 0.00118761 -0.954426 -0.298444
  outer loop
  vertex 3.2609 2.11443 -1.06008
  vertex 13.8813 2.15104 -1.05027
  vertex 13.0029 1.73432 0.19428
  endloop
 endfacet

 facet normal 0 -0.957024 -0.290008
  outer loop
  vertex 3.2609 2.11443 -1.06008
  vertex 13.0029 1.73432 0.19428
  vertex 3.261 1.73432 0.19428
  endloop
 endfacet

 facet normal 0.0346574 -0.998272 -0.0474619
  outer loop
  vertex 3.2609 2.20268 -2.42878
  vertex 3.2611 1.9827 -3.0447
  vertex 15.1624 2.63682 -2.86943
  endloop
 endfacet

 facet normal 0.0266715 -0.971256 -0.236537
  outer loop
  vertex 3.2609 2.20268 -2.42878
  vertex 15.1624 2.63682 -2.86943
  vertex 14.8054 2.50028 -2.34903
  endloop
 endfacet

 facet normal 0.0145459 -0.998557 -0.0516914
  outer loop
  vertex 3.2609 2.20268 -2.42878
  vertex 14.8054 2.50028 -2.34903
  vertex 14.3348 2.32582 -1.69138
  endloop
 endfacet

 facet normal 0.00828765 -0.999067 0.0423765
  outer loop
  vertex 3.2609 2.20268 -2.42878
  vertex 14.3348 2.32582 -1.69138
  vertex 3.2607 2.2329 -1.71628
  endloop
 endfacet

 facet normal -1 7.07329e-05 -9.94657e-05
  outer loop
  vertex 3.2617 9.06934 -4.03602
  vertex 3.2612 1.52838 -4.37212
  vertex 3.2611 1.9827 -3.0447
  endloop
 endfacet

 facet normal -1 3.73498e-05 -0.000338111
  outer loop
  vertex 3.2617 9.06934 -4.03602
  vertex 3.2611 1.9827 -3.0447
  vertex 3.2609 2.20268 -2.42878
  endloop
 endfacet

 facet normal -1 5.02773e-05 -0.000282881
  outer loop
  vertex 3.2617 9.06934 -4.03602
  vertex 3.2609 2.20268 -2.42878
  vertex 3.2607 2.2329 -1.71628
  endloop
 endfacet

 facet normal -1 0.000265996 0.000352858
  outer loop
  vertex 3.2617 9.06934 -4.03602
  vertex 3.2607 2.2329 -1.71628
  vertex 3.2609 2.11443 -1.06008
  endloop
 endfacet

 facet normal -1 0.0001713 0.000131549
  outer loop
  vertex 3.2617 9.06934 -4.03602
  vertex 3.2609 2.11443 -1.06008
  vertex 3.261 1.73432 0.19428
  endloop
 endfacet

 facet normal 0.833221 -0.147847 0.532808
  outer loop
  vertex 16.4302 9.30864 -3.00071
  vertex 14.8054 2.50028 -2.34903
  vertex 15.1624 2.63682 -2.86943
  endloop
 endfacet

 facet normal 0.822441 -0.143588 0.55043
  outer loop
  vertex 16.4302 9.30864 -3.00071
  vertex 14.3348 2.32582 -1.69138
  vertex 14.8054 2.50028 -2.34903
  endloop
 endfacet

 facet normal 0.825978 -0.145755 0.544533
  outer loop
  vertex 16.4302 9.30864 -3.00071
  vertex 13.8813 2.15104 -1.05027
  vertex 14.3348 2.32582 -1.69138
  endloop
 endfacet

 facet normal 0.830716 -0.149717 0.536186
  outer loop
  vertex 16.4302 9.30864 -3.00071
  vertex 13.0029 1.73432 0.19428
  vertex 13.8813 2.15104 -1.05027
  endloop
 endfacet

 facet normal 0.0471792 -0.945065 0.32346
  outer loop
  vertex 15.1624 2.63682 -2.86943
  vertex 3.2611 1.9827 -3.0447
  vertex 3.2612 1.52838 -4.37212
  endloop
 endfacet

 facet normal 0.163581 -0.955621 0.245008
  outer loop
  vertex 67.6223 8.97318 -2.38743
  vertex 80.5968 9.94676 -7.25263
  vertex 80.5968 11.6675 -0.54107
  endloop
 endfacet

 facet normal 0 -0.98056 -0.196221
  outer loop
  vertex 74.5764 9.94676 -7.25263
  vertex 80.5968 9.94676 -7.25263
  vertex 67.6223 8.97318 -2.38743
  endloop
 endfacet

 facet normal 0 -0.565282 0.824897
  outer loop
  vertex 74.5818 11.6675 -0.54107
  vertex 67.6223 8.97318 -2.38743
  vertex 80.5968 11.6675 -0.54107
  endloop
 endfacet

 facet normal 0.00279532 0.965923 -0.258816
  outer loop
  vertex 3.2634 8.21063 -7.24077
  vertex 3.2617 9.06934 -4.03602
  vertex 16.4302 9.30864 -3.00071
  endloop
 endfacet

 facet normal 0.0994986 0.00271259 -0.995034
  outer loop
  vertex -0.67 8.87795 -4.6976
  vertex -0.67 5.41048 -4.70603
  vertex -0.9746 5.41084 -4.73751
  endloop
 endfacet

 facet normal 0.0978451 0.00285974 -0.995198
  outer loop
  vertex -0.67 8.87795 -4.6976
  vertex -0.9746 5.41084 -4.73751
  vertex -0.9746 8.87004 -4.72757
  endloop
 endfacet

 facet normal 0.294584 0.00352616 -0.955619
  outer loop
  vertex -0.9746 8.87004 -4.72757
  vertex -0.9746 5.41084 -4.73751
  vertex -1.2674 5.41197 -4.83059
  endloop
 endfacet

 facet normal 0.290386 0.00391991 -0.956902
  outer loop
  vertex -0.9746 8.87004 -4.72757
  vertex -1.2674 5.41197 -4.83059
  vertex -1.2674 8.84677 -4.81652
  endloop
 endfacet

 facet normal 0.476948 0.00478205 -0.878918
  outer loop
  vertex -1.2674 8.84677 -4.81652
  vertex -1.2674 5.41197 -4.83059
  vertex -1.5373 5.41383 -4.98166
  endloop
 endfacet

 facet normal 0.471173 0.00538549 -0.882024
  outer loop
  vertex -1.2674 8.84677 -4.81652
  vertex -1.5373 5.41383 -4.98166
  vertex -1.5373 8.80895 -4.96093
  endloop
 endfacet

 facet normal 0.639814 0.00615001 -0.768505
  outer loop
  vertex -1.5373 8.80895 -4.96093
  vertex -1.5373 5.41383 -4.98166
  vertex -1.7739 5.41626 -5.18506
  endloop
 endfacet

 facet normal 0.633701 0.00690949 -0.773548
  outer loop
  vertex -1.5373 8.80895 -4.96093
  vertex -1.7739 5.41626 -5.18506
  vertex -1.7739 8.7581 -5.15521
  endloop
 endfacet

 facet normal 0.777381 0.00712251 -0.628989
  outer loop
  vertex -1.7739 8.7581 -5.15521
  vertex -1.7739 5.41626 -5.18506
  vertex -1.968 5.41931 -5.43291
  endloop
 endfacet

 facet normal 0.772335 0.00792967 -0.635166
  outer loop
  vertex -1.7739 8.7581 -5.15521
  vertex -1.968 5.41931 -5.43291
  vertex -1.968 8.69618 -5.392
  endloop
 endfacet

 facet normal 0.884386 0.0071607 -0.466701
  outer loop
  vertex -1.968 8.69618 -5.392
  vertex -1.968 5.41931 -5.43291
  vertex -2.1123 5.42271 -5.71567
  endloop
 endfacet

 facet normal 0.88115 0.00790349 -0.472771
  outer loop
  vertex -1.968 8.69618 -5.392
  vertex -2.1123 5.42271 -5.71567
  vertex -2.1123 8.62538 -5.66213
  endloop
 endfacet

 facet normal 0.957936 0.00573588 -0.286925
  outer loop
  vertex -2.1123 8.62538 -5.66213
  vertex -2.1123 5.42271 -5.71567
  vertex -2.2011 5.42647 -6.02255
  endloop
 endfacet

 facet normal 0.956573 0.0062807 -0.291424
  outer loop
  vertex -2.1123 8.62538 -5.66213
  vertex -2.2011 5.42647 -6.02255
  vertex -2.2011 8.54874 -5.95526
  endloop
 endfacet

 facet normal 0.995287 0.00243664 -0.0969438
  outer loop
  vertex -2.2011 8.54874 -5.95526
  vertex -2.2011 5.42647 -6.02255
  vertex -2.2311 5.43028 -6.34164
  endloop
 endfacet

 facet normal 0.995121 0.00264654 -0.098625
  outer loop
  vertex -2.2011 8.54874 -5.95526
  vertex -2.2311 5.43028 -6.34164
  vertex -2.2311 8.46892 -6.2601
  endloop
 endfacet

 facet normal 0.995276 -0.00297065 0.0970379
  outer loop
  vertex -2.2311 8.46892 -6.2601
  vertex -2.2311 5.43028 -6.34164
  vertex -2.2011 5.43419 -6.6607
  endloop
 endfacet

 facet normal 0.995106 -0.00320035 0.0987652
  outer loop
  vertex -2.2311 8.46892 -6.2601
  vertex -2.2011 5.43419 -6.6607
  vertex -2.2011 8.3891 -6.56495
  endloop
 endfacet

 facet normal 0.957649 -0.0104349 0.287748
  outer loop
  vertex -2.2011 8.3891 -6.56495
  vertex -2.2011 5.43419 -6.6607
  vertex -2.1123 5.43783 -6.96751
  endloop
 endfacet

 facet normal 0.956153 -0.0111493 0.292655
  outer loop
  vertex -2.2011 8.3891 -6.56495
  vertex -2.1123 5.43783 -6.96751
  vertex -2.1123 8.31233 -6.858
  endloop
 endfacet

 facet normal 0.863288 -0.0102751 0.504607
  outer loop
  vertex -2.1123 8.31233 -6.858
  vertex -2.1123 5.43783 -6.96751
  vertex -1.9172 5.44132 -7.25024
  endloop
 endfacet

 facet normal 0.881584 -0.00457771 0.472006
  outer loop
  vertex -2.1123 8.31233 -6.858
  vertex -1.9172 5.44132 -7.25024
  vertex -1.968 8.24166 -7.1282
  endloop
 endfacet

 facet normal -0.862295 -0.0153382 0.506175
  outer loop
  vertex 0.628 8.24166 -7.1282
  vertex 0.5772 5.44132 -7.25024
  vertex 0.7722 5.43783 -6.96751
  endloop
 endfacet

 facet normal -0.880111 -0.0180742 0.474423
  outer loop
  vertex 0.628 8.24166 -7.1282
  vertex 0.7722 5.43783 -6.96751
  vertex 0.7722 8.31233 -6.858
  endloop
 endfacet

 facet normal -0.957738 -0.00984262 0.287474
  outer loop
  vertex 0.7722 8.31233 -6.858
  vertex 0.7722 5.43783 -6.96751
  vertex 0.861 5.43419 -6.6607
  endloop
 endfacet

 facet normal -0.956293 -0.00947019 0.292257
  outer loop
  vertex 0.7722 8.31233 -6.858
  vertex 0.861 5.43419 -6.6607
  vertex 0.861 8.3891 -6.56495
  endloop
 endfacet

 facet normal -0.995286 -0.00277505 0.0969401
  outer loop
  vertex 0.861 8.3891 -6.56495
  vertex 0.861 5.43419 -6.6607
  vertex 0.891 5.43028 -6.34164
  endloop
 endfacet

 facet normal -0.995121 -0.00264646 0.0986218
  outer loop
  vertex 0.861 8.3891 -6.56495
  vertex 0.891 5.43028 -6.34164
  vertex 0.891 8.46892 -6.2601
  endloop
 endfacet

 facet normal -0.995296 0.00225209 -0.0968513
  outer loop
  vertex 0.891 8.46892 -6.2601
  vertex 0.891 5.43028 -6.34164
  vertex 0.861 5.42647 -6.02255
  endloop
 endfacet

 facet normal -0.995136 0.00212261 -0.0984893
  outer loop
  vertex 0.891 8.46892 -6.2601
  vertex 0.861 5.42647 -6.02255
  vertex 0.861 8.54874 -5.95526
  endloop
 endfacet

 facet normal -0.958008 0.00524058 -0.286694
  outer loop
  vertex 0.861 8.54874 -5.95526
  vertex 0.861 5.42647 -6.02255
  vertex 0.7722 5.42271 -5.71567
  endloop
 endfacet

 facet normal -0.956684 0.00486622 -0.291088
  outer loop
  vertex 0.861 8.54874 -5.95526
  vertex 0.7722 5.42271 -5.71567
  vertex 0.7722 8.62538 -5.66213
  endloop
 endfacet

 facet normal -0.884671 0.0064608 -0.466171
  outer loop
  vertex 0.7722 8.62538 -5.66213
  vertex 0.7722 5.42271 -5.71567
  vertex 0.628 5.41931 -5.43291
  endloop
 endfacet

 facet normal -0.881518 0.00589407 -0.472114
  outer loop
  vertex 0.7722 8.62538 -5.66213
  vertex 0.628 5.41931 -5.43291
  vertex 0.628 8.69618 -5.392
  endloop
 endfacet

 facet normal -0.777423 0.00634812 -0.628946
  outer loop
  vertex 0.628 8.69618 -5.392
  vertex 0.628 5.41931 -5.43291
  vertex 0.4338 5.41626 -5.18506
  endloop
 endfacet

 facet normal -0.772476 0.00567212 -0.635018
  outer loop
  vertex 0.628 8.69618 -5.392
  vertex 0.4338 5.41626 -5.18506
  vertex 0.4338 8.7581 -5.15521
  endloop
 endfacet

 facet normal -0.640167 0.00540488 -0.768217
  outer loop
  vertex 0.4338 8.7581 -5.15521
  vertex 0.4338 5.41626 -5.18506
  vertex 0.1973 5.41383 -4.98166
  endloop
 endfacet

 facet normal -0.63415 0.004721 -0.773196
  outer loop
  vertex 0.4338 8.7581 -5.15521
  vertex 0.1973 5.41383 -4.98166
  vertex 0.1973 8.80895 -4.96093
  endloop
 endfacet

 facet normal -0.477081 0.00418464 -0.87885
  outer loop
  vertex 0.1973 8.80895 -4.96093
  vertex 0.1973 5.41383 -4.98166
  vertex -0.0726 5.41197 -4.83059
  endloop
 endfacet

 facet normal -0.47137 0.00361278 -0.881928
  outer loop
  vertex 0.1973 8.80895 -4.96093
  vertex -0.0726 5.41197 -4.83059
  vertex -0.0726 8.84677 -4.81652
  endloop
 endfacet

 facet normal -0.294551 0.00313454 -0.955631
  outer loop
  vertex -0.0726 8.84677 -4.81652
  vertex -0.0726 5.41197 -4.83059
  vertex -0.3655 5.41084 -4.73751
  endloop
 endfacet

 facet normal -0.290381 0.00274971 -0.956907
  outer loop
  vertex -0.0726 8.84677 -4.81652
  vertex -0.3655 5.41084 -4.73751
  vertex -0.3655 8.87004 -4.72757
  endloop
 endfacet

 facet normal -0.0995387 0.00256576 -0.99503
  outer loop
  vertex -0.3655 8.87004 -4.72757
  vertex -0.3655 5.41084 -4.73751
  vertex -0.67 5.41048 -4.70603
  endloop
 endfacet

 facet normal -0.0978884 0.00241949 -0.995194
  outer loop
  vertex -0.3655 8.87004 -4.72757
  vertex -0.67 5.41048 -4.70603
  vertex -0.67 8.87795 -4.6976
  endloop
 endfacet

 facet normal -6.91965e-05 0.999927 0.0121048
  outer loop
  vertex -0.67 5.43028 -6.34164
  vertex -0.9746 5.41084 -4.73751
  vertex -0.67 5.41048 -4.70603
  endloop
 endfacet

 facet normal 6.70847e-06 0.999927 0.0121192
  outer loop
  vertex -0.67 5.43028 -6.34164
  vertex -1.2674 5.41197 -4.83059
  vertex -0.9746 5.41084 -4.73751
  endloop
 endfacet

 facet normal 8.82331e-05 0.999926 0.0121514
  outer loop
  vertex -0.67 5.43028 -6.34164
  vertex -1.5373 5.41383 -4.98166
  vertex -1.2674 5.41197 -4.83059
  endloop
 endfacet

 facet normal -8.29247e-05 0.999927 0.0120423
  outer loop
  vertex -0.67 5.43028 -6.34164
  vertex -1.7739 5.41626 -5.18506
  vertex -1.5373 5.41383 -4.98166
  endloop
 endfacet

 facet normal 0.000106361 0.999925 0.0122229
  outer loop
  vertex -0.67 5.43028 -6.34164
  vertex -1.968 5.41931 -5.43291
  vertex -1.7739 5.41626 -5.18506
  endloop
 endfacet

 facet normal -2.48232e-05 0.999928 0.0120356
  outer loop
  vertex -0.67 5.43028 -6.34164
  vertex -2.1123 5.42271 -5.71567
  vertex -1.968 5.41931 -5.43291
  endloop
 endfacet

 facet normal 6.10078e-05 0.999925 0.0122333
  outer loop
  vertex -0.67 5.43028 -6.34164
  vertex -2.2011 5.42647 -6.02255
  vertex -2.1123 5.42271 -5.71567
  endloop
 endfacet

 facet normal 0 0.999929 0.0119406
  outer loop
  vertex -0.67 5.43028 -6.34164
  vertex -2.2311 5.43028 -6.34164
  vertex -2.2011 5.42647 -6.02255
  endloop
 endfacet

 facet normal 0 0.999925 0.0122525
  outer loop
  vertex -0.67 5.43028 -6.34164
  vertex -2.2011 5.43419 -6.6607
  vertex -2.2311 5.43028 -6.34164
  endloop
 endfacet

 facet normal 7.64235e-05 0.999929 0.0118859
  outer loop
  vertex -0.67 5.43028 -6.34164
  vertex -2.1123 5.43783 -6.96751
  vertex -2.2011 5.43419 -6.6607
  endloop
 endfacet

 facet normal -9.38381e-05 0.999925 0.0122782
  outer loop
  vertex -0.67 5.43028 -6.34164
  vertex -1.9172 5.44132 -7.25024
  vertex -2.1123 5.43783 -6.96751
  endloop
 endfacet

 facet normal 0 0.999926 0.0121494
  outer loop
  vertex -0.67 5.43028 -6.34164
  vertex 0.5772 5.44132 -7.25024
  vertex -1.9172 5.44132 -7.25024
  endloop
 endfacet

 facet normal 9.38542e-05 0.999925 0.0122782
  outer loop
  vertex -0.67 5.43028 -6.34164
  vertex 0.7722 5.43783 -6.96751
  vertex 0.5772 5.44132 -7.25024
  endloop
 endfacet

 facet normal -7.64283e-05 0.999929 0.0118859
  outer loop
  vertex -0.67 5.43028 -6.34164
  vertex 0.861 5.43419 -6.6607
  vertex 0.7722 5.43783 -6.96751
  endloop
 endfacet

 facet normal 0 0.999925 0.0122525
  outer loop
  vertex -0.67 5.43028 -6.34164
  vertex 0.891 5.43028 -6.34164
  vertex 0.861 5.43419 -6.6607
  endloop
 endfacet

 facet normal 0 0.999929 0.0119406
  outer loop
  vertex -0.67 5.43028 -6.34164
  vertex 0.861 5.42647 -6.02255
  vertex 0.891 5.43028 -6.34164
  endloop
 endfacet

 facet normal -6.10116e-05 0.999925 0.0122333
  outer loop
  vertex -0.67 5.43028 -6.34164
  vertex 0.7722 5.42271 -5.71567
  vertex 0.861 5.42647 -6.02255
  endloop
 endfacet

 facet normal 2.48278e-05 0.999928 0.0120356
  outer loop
  vertex -0.67 5.43028 -6.34164
  vertex 0.628 5.41931 -5.43291
  vertex 0.7722 5.42271 -5.71567
  endloop
 endfacet

 facet normal -0.000106341 0.999925 0.0122229
  outer loop
  vertex -0.67 5.43028 -6.34164
  vertex 0.4338 5.41626 -5.18506
  vertex 0.628 5.41931 -5.43291
  endloop
 endfacet

 facet normal 8.29473e-05 0.999928 0.0120423
  outer loop
  vertex -0.67 5.43028 -6.34164
  vertex 0.1973 5.41383 -4.98166
  vertex 0.4338 5.41626 -5.18506
  endloop
 endfacet

 facet normal -8.82331e-05 0.999926 0.0121514
  outer loop
  vertex -0.67 5.43028 -6.34164
  vertex -0.0726 5.41197 -4.83059
  vertex 0.1973 5.41383 -4.98166
  endloop
 endfacet

 facet normal -6.70643e-06 0.999927 0.0121192
  outer loop
  vertex -0.67 5.43028 -6.34164
  vertex -0.3655 5.41084 -4.73751
  vertex -0.0726 5.41197 -4.83059
  endloop
 endfacet

 facet normal 6.92192e-05 0.999927 0.0121048
  outer loop
  vertex -0.67 5.43028 -6.34164
  vertex -0.67 5.41048 -4.70603
  vertex -0.3655 5.41084 -4.73751
  endloop
 endfacet

 facet normal 0 0.000763433 -1
  outer loop
  vertex 0.5772 5.44132 -7.25024
  vertex 3.2662 2.29773 -7.25264
  vertex -4.3577 2.29773 -7.25264
  endloop
 endfacet

 facet normal 0 0.000763433 -1
  outer loop
  vertex 0.5772 5.44132 -7.25024
  vertex -4.3577 2.29773 -7.25264
  vertex -1.9172 5.44132 -7.25024
  endloop
 endfacet

 facet normal 0.0184116 0.0290951 -0.999407
  outer loop
  vertex 0.628 8.24166 -7.1282
  vertex 3.2634 8.21063 -7.24077
  vertex 3.2662 2.29773 -7.25264
  endloop
 endfacet

 facet normal 0.0489126 0.0426013 -0.997894
  outer loop
  vertex 0.628 8.24166 -7.1282
  vertex 3.2662 2.29773 -7.25264
  vertex 0.5772 5.44132 -7.25024
  endloop
 endfacet

 facet normal 0.0304392 0.0302382 -0.999079
  outer loop
  vertex -1.9172 5.44132 -7.25024
  vertex -4.3577 2.29773 -7.25264
  vertex -4.3574 8.21063 -7.24077
  endloop
 endfacet

 facet normal 0.0464392 0.0443329 -0.997937
  outer loop
  vertex -1.9172 5.44132 -7.25024
  vertex -4.3574 8.21063 -7.24077
  vertex -1.968 8.24166 -7.1282
  endloop
 endfacet

 facet normal 0.00381168 0.95443 -0.29841
  outer loop
  vertex -0.9746 8.87004 -4.72757
  vertex -4.3831 9.06934 -4.03602
  vertex 3.2617 9.06934 -4.03602
  endloop
 endfacet

 facet normal 0.00571678 0.951014 -0.309095
  outer loop
  vertex -0.9746 8.87004 -4.72757
  vertex 3.2617 9.06934 -4.03602
  vertex -0.67 8.87795 -4.6976
  endloop
 endfacet

 facet normal 0.00482087 0.966371 -0.257106
  outer loop
  vertex -2.1123 8.62538 -5.66213
  vertex -4.3574 8.21063 -7.24077
  vertex -4.3831 9.06934 -4.03602
  endloop
 endfacet

 facet normal 0.00546743 0.966592 -0.256264
  outer loop
  vertex -2.1123 8.62538 -5.66213
  vertex -4.3831 9.06934 -4.03602
  vertex -1.968 8.69618 -5.392
  endloop
 endfacet

 facet normal -0.000814054 0.966913 -0.255105
  outer loop
  vertex 0.628 8.69618 -5.392
  vertex 3.2617 9.06934 -4.03602
  vertex 3.2634 8.21063 -7.24077
  endloop
 endfacet

 facet normal 0.00058028 0.967402 -0.253246
  outer loop
  vertex 0.628 8.69618 -5.392
  vertex 3.2634 8.21063 -7.24077
  vertex 0.7722 8.62538 -5.66213
  endloop
 endfacet

 facet normal -0.000626895 0.967375 -0.253349
  outer loop
  vertex -4.3574 8.21063 -7.24077
  vertex -2.1123 8.31233 -6.858
  vertex -1.968 8.24166 -7.1282
  endloop
 endfacet

 facet normal -0.000584266 0.967314 -0.253583
  outer loop
  vertex -4.3574 8.21063 -7.24077
  vertex -2.2011 8.3891 -6.56495
  vertex -2.1123 8.31233 -6.858
  endloop
 endfacet

 facet normal -0.000660646 0.967373 -0.253355
  outer loop
  vertex -4.3574 8.21063 -7.24077
  vertex -2.2311 8.46892 -6.2601
  vertex -2.2011 8.3891 -6.56495
  endloop
 endfacet

 facet normal -0.000718009 0.967404 -0.253238
  outer loop
  vertex -4.3574 8.21063 -7.24077
  vertex -2.2011 8.54874 -5.95526
  vertex -2.2311 8.46892 -6.2601
  endloop
 endfacet

 facet normal -0.00110169 0.967561 -0.252636
  outer loop
  vertex -4.3574 8.21063 -7.24077
  vertex -2.1123 8.62538 -5.66213
  vertex -2.2011 8.54874 -5.95526
  endloop
 endfacet

 facet normal 0.000569696 0.967382 -0.25332
  outer loop
  vertex 3.2634 8.21063 -7.24077
  vertex 0.628 8.24166 -7.1282
  vertex 0.7722 8.31233 -6.858
  endloop
 endfacet

 facet normal 0.000529118 0.967318 -0.253567
  outer loop
  vertex 3.2634 8.21063 -7.24077
  vertex 0.7722 8.31233 -6.858
  vertex 0.861 8.3891 -6.56495
  endloop
 endfacet

 facet normal 0.000594794 0.967375 -0.253349
  outer loop
  vertex 3.2634 8.21063 -7.24077
  vertex 0.861 8.3891 -6.56495
  vertex 0.891 8.46892 -6.2601
  endloop
 endfacet

 facet normal 0.000640367 0.967402 -0.253246
  outer loop
  vertex 3.2634 8.21063 -7.24077
  vertex 0.891 8.46892 -6.2601
  vertex 0.861 8.54874 -5.95526
  endloop
 endfacet

 facet normal 0.000966986 0.967551 -0.252674
  outer loop
  vertex 3.2634 8.21063 -7.24077
  vertex 0.861 8.54874 -5.95526
  vertex 0.7722 8.62538 -5.66213
  endloop
 endfacet

 facet normal 0.00509127 0.966428 -0.256888
  outer loop
  vertex -4.3831 9.06934 -4.03602
  vertex -1.7739 8.7581 -5.15521
  vertex -1.968 8.69618 -5.392
  endloop
 endfacet

 facet normal 0.00445152 0.96606 -0.258278
  outer loop
  vertex -4.3831 9.06934 -4.03602
  vertex -1.5373 8.80895 -4.96093
  vertex -1.7739 8.7581 -5.15521
  endloop
 endfacet

 facet normal 0.00383386 0.965589 -0.260045
  outer loop
  vertex -4.3831 9.06934 -4.03602
  vertex -1.2674 8.84677 -4.81652
  vertex -1.5373 8.80895 -4.96093
  endloop
 endfacet

 facet normal 0.00312075 0.964876 -0.262689
  outer loop
  vertex -4.3831 9.06934 -4.03602
  vertex -0.9746 8.87004 -4.72757
  vertex -1.2674 8.84677 -4.81652
  endloop
 endfacet

 facet normal -0.00479367 0.966489 -0.256663
  outer loop
  vertex 3.2617 9.06934 -4.03602
  vertex 0.628 8.69618 -5.392
  vertex 0.4338 8.7581 -5.15521
  endloop
 endfacet

 facet normal -0.00422011 0.966132 -0.258013
  outer loop
  vertex 3.2617 9.06934 -4.03602
  vertex 0.4338 8.7581 -5.15521
  vertex 0.1973 8.80895 -4.96093
  endloop
 endfacet

 facet normal -0.00365932 0.965671 -0.259741
  outer loop
  vertex 3.2617 9.06934 -4.03602
  vertex 0.1973 8.80895 -4.96093
  vertex -0.0726 8.84677 -4.81652
  endloop
 endfacet

 facet normal -0.00300505 0.964972 -0.262336
  outer loop
  vertex 3.2617 9.06934 -4.03602
  vertex -0.0726 8.84677 -4.81652
  vertex -0.3655 8.87004 -4.72757
  endloop
 endfacet

 facet normal -0.0015172 0.962981 -0.269566
  outer loop
  vertex 3.2617 9.06934 -4.03602
  vertex -0.3655 8.87004 -4.72757
  vertex -0.67 8.87795 -4.6976
  endloop
 endfacet

endsolid AssimpScene
