solid AssimpScene
 facet normal -0.573656 -0.819096 1.64039e-05
  outer loop
  vertex -1.0037 -3.82762 -0.94267
  vertex -1.2881 -3.62842 -0.94263
  vertex -1.2881 -3.62849 -3.4427
  endloop
 endfacet

 facet normal -0.573637 -0.81911 1.31237e-05
  outer loop
  vertex -1.0037 -3.82762 -0.94267
  vertex -1.2881 -3.62849 -3.4427
  vertex -1.0037 -3.82766 -3.44265
  endloop
 endfacet

 facet normal -0.258908 -0.965902 -1.03175e-05
  outer loop
  vertex -0.6683 -3.91759 -0.94269
  vertex -1.0037 -3.82762 -0.94267
  vertex -1.0037 -3.82766 -3.44265
  endloop
 endfacet

 facet normal -0.258819 -0.965926 -2.32137e-05
  outer loop
  vertex -0.6683 -3.91759 -0.94269
  vertex -1.0037 -3.82766 -3.44265
  vertex -0.6683 -3.91753 -3.44269
  endloop
 endfacet

 facet normal 0.0871911 -0.996192 2.66047e-06
  outer loop
  vertex -0.3223 -3.88724 -0.94264
  vertex -0.6683 -3.91759 -0.94269
  vertex -0.6683 -3.91753 -3.44269
  endloop
 endfacet

 facet normal 0.0870957 -0.9962 1.5961e-05
  outer loop
  vertex -0.3223 -3.88724 -0.94264
  vertex -0.6683 -3.91753 -3.44269
  vertex -0.3223 -3.88728 -3.44261
  endloop
 endfacet

 facet normal 0.422791 -0.906227 -9.6209e-06
  outer loop
  vertex -0.0075 -3.74044 -0.94264
  vertex -0.3223 -3.88724 -0.94264
  vertex -0.3223 -3.88728 -3.44261
  endloop
 endfacet

 facet normal 0.42287 -0.906191 -2.16917e-05
  outer loop
  vertex -0.0075 -3.74044 -0.94264
  vertex -0.3223 -3.88728 -3.44261
  vertex -0.0075 -3.74038 -3.44264
  endloop
 endfacet

 facet normal 0.707049 -0.707164 -1.69725e-05
  outer loop
  vertex 0.2379 -3.49508 -0.94264
  vertex -0.0075 -3.74044 -0.94264
  vertex -0.0075 -3.74038 -3.44264
  endloop
 endfacet

 facet normal 0.707049 -0.707164 -1.6995e-05
  outer loop
  vertex 0.2379 -3.49508 -0.94264
  vertex -0.0075 -3.74038 -3.44264
  vertex 0.2379 -3.49502 -3.44264
  endloop
 endfacet

 facet normal 0.906272 -0.422696 4.51632e-06
  outer loop
  vertex 0.3847 -3.18025 -0.94262
  vertex 0.2379 -3.49508 -0.94264
  vertex 0.2379 -3.49502 -3.44264
  endloop
 endfacet

 facet normal 0.906249 -0.422744 1.18526e-05
  outer loop
  vertex 0.3847 -3.18025 -0.94262
  vertex 0.2379 -3.49502 -3.44264
  vertex 0.3847 -3.18032 -3.44269
  endloop
 endfacet

 facet normal 0.996185 -0.0872634 1.7421e-06
  outer loop
  vertex 0.415 -2.83437 -0.94265
  vertex 0.3847 -3.18025 -0.94262
  vertex 0.3847 -3.18032 -3.44269
  endloop
 endfacet

 facet normal 0.996186 -0.0872609 1.38976e-06
  outer loop
  vertex 0.415 -2.83437 -0.94265
  vertex 0.3847 -3.18032 -3.44269
  vertex 0.415 -2.83441 -3.44262
  endloop
 endfacet

 facet normal 0.965928 0.258813 -4.13845e-06
  outer loop
  vertex 0.3251 -2.49885 -0.94269
  vertex 0.415 -2.83437 -0.94265
  vertex 0.415 -2.83441 -3.44262
  endloop
 endfacet

 facet normal 0.965928 0.258813 -4.14668e-06
  outer loop
  vertex 0.3251 -2.49885 -0.94269
  vertex 0.415 -2.83441 -3.44262
  vertex 0.3251 -2.49889 -3.44266
  endloop
 endfacet

 facet normal 0.819123 0.573618 6.08919e-06
  outer loop
  vertex 0.1259 -2.21446 -0.94269
  vertex 0.3251 -2.49885 -0.94269
  vertex 0.3251 -2.49889 -3.44266
  endloop
 endfacet

 facet normal 0.819155 0.573573 1.37297e-05
  outer loop
  vertex 0.1259 -2.21446 -0.94269
  vertex 0.3251 -2.49889 -3.44266
  vertex 0.1259 -2.2144 -3.44269
  endloop
 endfacet

 facet normal 0.573759 0.819024 -2.16226e-06
  outer loop
  vertex -0.1585 -2.01516 -0.94267
  vertex 0.1259 -2.21446 -0.94269
  vertex 0.1259 -2.2144 -3.44269
  endloop
 endfacet

 facet normal 0.573695 0.819069 -1.30449e-05
  outer loop
  vertex -0.1585 -2.01516 -0.94267
  vertex 0.1259 -2.2144 -3.44269
  vertex -0.1585 -2.0152 -3.44265
  endloop
 endfacet

 facet normal 0.258657 0.965969 7.7684e-06
  outer loop
  vertex -0.4939 -1.92541 -0.9427
  vertex -0.1585 -2.01516 -0.94267
  vertex -0.1585 -2.0152 -3.44265
  endloop
 endfacet

 facet normal 0.258738 0.965948 1.93452e-05
  outer loop
  vertex -0.4939 -1.92541 -0.9427
  vertex -0.1585 -2.0152 -3.44265
  vertex -0.4939 -1.92536 -3.4427
  endloop
 endfacet

 facet normal -0.0872004 0.996191 -6.61856e-06
  outer loop
  vertex -0.8399 -1.95563 -0.94268
  vertex -0.4939 -1.92541 -0.9427
  vertex -0.4939 -1.92536 -3.4427
  endloop
 endfacet

 facet normal -0.0872957 0.996182 -1.99034e-05
  outer loop
  vertex -0.8399 -1.95563 -0.94268
  vertex -0.4939 -1.92536 -3.4427
  vertex -0.8399 -1.95568 -3.44265
  endloop
 endfacet

 facet normal -0.422483 0.906371 8.42884e-06
  outer loop
  vertex -1.1547 -2.10244 -0.94268
  vertex -0.8399 -1.95563 -0.94268
  vertex -0.8399 -1.95568 -3.44265
  endloop
 endfacet

 facet normal -0.422397 0.906411 2.1697e-05
  outer loop
  vertex -1.1547 -2.10244 -0.94268
  vertex -0.8399 -1.95568 -3.44265
  vertex -1.1547 -2.10238 -3.44268
  endloop
 endfacet

 facet normal -0.707044 0.707169 1.50393e-05
  outer loop
  vertex -1.4002 -2.34789 -0.94265
  vertex -1.1547 -2.10244 -0.94268
  vertex -1.1547 -2.10238 -3.44268
  endloop
 endfacet

 facet normal -0.707049 0.707164 1.40951e-05
  outer loop
  vertex -1.4002 -2.34789 -0.94265
  vertex -1.1547 -2.10238 -3.44268
  vertex -1.4002 -2.34784 -3.44265
  endloop
 endfacet

 facet normal -0.906356 0.422515 -3.96088e-06
  outer loop
  vertex -1.5469 -2.66251 -0.94263
  vertex -1.4002 -2.34789 -0.94265
  vertex -1.4002 -2.34784 -3.44265
  endloop
 endfacet

 facet normal -0.906375 0.422474 -1.01529e-05
  outer loop
  vertex -1.5469 -2.66251 -0.94263
  vertex -1.4002 -2.34784 -3.44265
  vertex -1.5469 -2.66257 -3.4427
  endloop
 endfacet

 facet normal -0.996187 0.0872414 -1.62515e-06
  outer loop
  vertex -1.5772 -3.00851 -0.94267
  vertex -1.5469 -2.66251 -0.94263
  vertex -1.5469 -2.66257 -3.4427
  endloop
 endfacet

 facet normal -0.996187 0.0872431 -1.38948e-06
  outer loop
  vertex -1.5772 -3.00851 -0.94267
  vertex -1.5469 -2.66257 -3.4427
  vertex -1.5772 -3.00855 -3.44265
  endloop
 endfacet

 facet normal -0.965916 -0.258856 -2.06593e-06
  outer loop
  vertex -1.4873 -3.34403 -0.94263
  vertex -1.5772 -3.00851 -0.94267
  vertex -1.5772 -3.00855 -3.44265
  endloop
 endfacet

 facet normal -0.96591 -0.258877 -5.15989e-06
  outer loop
  vertex -1.4873 -3.34403 -0.94263
  vertex -1.5772 -3.00855 -3.44265
  vertex -1.4873 -3.34398 -3.44263
  endloop
 endfacet

 facet normal -2.35427e-05 5.4126e-05 1
  outer loop
  vertex -1.3581 -3.98181 -3.44265
  vertex -1.1568 -4.09798 -3.44268
  vertex -1.0037 -3.82766 -3.44265
  endloop
 endfacet

 facet normal -6.71282e-05 0.000154332 1
  outer loop
  vertex -1.3581 -3.98181 -3.44265
  vertex -1.0037 -3.82766 -3.44265
  vertex -1.2881 -3.62849 -3.4427
  endloop
 endfacet

 facet normal 7.89778e-06 3.03022e-05 1
  outer loop
  vertex -0.9384 -4.17759 -3.44268
  vertex -0.7094 -4.21796 -3.44263
  vertex -0.6683 -3.91753 -3.44269
  endloop
 endfacet

 facet normal 0.000100939 -6.63305e-05 1
  outer loop
  vertex -0.9384 -4.17759 -3.44268
  vertex -0.6683 -3.91753 -3.44269
  vertex -1.0037 -3.82766 -3.44265
  endloop
 endfacet

 facet normal -7.3805e-05 -2.60358e-05 1
  outer loop
  vertex -0.477 -4.21796 -3.44263
  vertex -0.2481 -4.17759 -3.44268
  vertex -0.3223 -3.88728 -3.44261
  endloop
 endfacet

 facet normal -0.000235162 4.94509e-05 1
  outer loop
  vertex -0.477 -4.21796 -3.44263
  vertex -0.3223 -3.88728 -3.44261
  vertex -0.6683 -3.91753 -3.44269
  endloop
 endfacet

 facet normal 7.22103e-05 -0.000115805 1
  outer loop
  vertex -0.0296 -4.09798 -3.44268
  vertex 0.1717 -3.98181 -3.44265
  vertex -0.0075 -3.74038 -3.44264
  endloop
 endfacet

 facet normal 0.000151762 -0.000120721 1
  outer loop
  vertex -0.0296 -4.09798 -3.44268
  vertex -0.0075 -3.74038 -3.44264
  vertex -0.3223 -3.88728 -3.44261
  endloop
 endfacet

 facet normal 8.11297e-05 8.62428e-05 1
  outer loop
  vertex 0.3497 -3.83241 -3.44262
  vertex 0.4991 -3.65437 -3.4427
  vertex 0.2379 -3.49502 -3.44264
  endloop
 endfacet

 facet normal -4.45796e-05 4.45869e-05 1
  outer loop
  vertex 0.3497 -3.83241 -3.44262
  vertex 0.2379 -3.49502 -3.44264
  vertex -0.0075 -3.74038 -3.44264
  endloop
 endfacet

 facet normal -6.9765e-05 0.000197168 1
  outer loop
  vertex 0.6154 -3.45299 -3.44262
  vertex 0.6949 -3.23455 -3.44266
  vertex 0.3847 -3.18032 -3.44269
  endloop
 endfacet

 facet normal -7.45532e-05 0.000193117 1
  outer loop
  vertex 0.6154 -3.45299 -3.44262
  vertex 0.3847 -3.18032 -3.44269
  vertex 0.2379 -3.49502 -3.44264
  endloop
 endfacet

 facet normal 0.000134954 -0.000213982 1
  outer loop
  vertex 0.7353 -3.00566 -3.4427
  vertex 0.7353 -2.77323 -3.44265
  vertex 0.415 -2.83441 -3.44262
  endloop
 endfacet

 facet normal 0.000135061 -0.000213781 1
  outer loop
  vertex 0.7353 -3.00566 -3.4427
  vertex 0.415 -2.83441 -3.44262
  vertex 0.3847 -3.18032 -3.44269
  endloop
 endfacet

 facet normal -9.45221e-05 0.000112509 1
  outer loop
  vertex 0.6949 -2.54422 -3.44262
  vertex 0.6154 -2.32579 -3.44266
  vertex 0.3251 -2.49889 -3.44266
  endloop
 endfacet

 facet normal -9.68613e-05 9.34266e-05 1
  outer loop
  vertex 0.6949 -2.54422 -3.44262
  vertex 0.3251 -2.49889 -3.44266
  vertex 0.415 -2.83441 -3.44262
  endloop
 endfacet

 facet normal -2.97205e-05 1.19831e-05 1
  outer loop
  vertex 0.4991 -2.12443 -3.44268
  vertex 0.3497 -1.94636 -3.44266
  vertex 0.1259 -2.2144 -3.44269
  endloop
 endfacet

 facet normal -4.45638e-05 7.35535e-05 1
  outer loop
  vertex 0.4991 -2.12443 -3.44268
  vertex 0.1259 -2.2144 -3.44269
  vertex 0.3251 -2.49889 -3.44266
  endloop
 endfacet

 facet normal -3.78222e-05 -3.45412e-05 1
  outer loop
  vertex 0.1717 -1.79696 -3.44263
  vertex -0.0296 -1.68082 -3.44269
  vertex -0.1585 -2.0152 -3.44265
  endloop
 endfacet

 facet normal 3.67638e-05 -0.000147391 1
  outer loop
  vertex 0.1717 -1.79696 -3.44263
  vertex -0.1585 -2.0152 -3.44265
  vertex 0.1259 -2.2144 -3.44269
  endloop
 endfacet

 facet normal -1.83234e-05 1.38945e-05 1
  outer loop
  vertex -0.2481 -1.60121 -3.4427
  vertex -0.477 -1.56082 -3.44265
  vertex -0.4939 -1.92536 -3.4427
  endloop
 endfacet

 facet normal -0.000123486 9.3638e-05 1
  outer loop
  vertex -0.2481 -1.60121 -3.4427
  vertex -0.4939 -1.92536 -3.4427
  vertex -0.1585 -2.0152 -3.44265
  endloop
 endfacet

 facet normal 2.18524e-05 -7.22214e-06 1
  outer loop
  vertex -0.7094 -1.56082 -3.44265
  vertex -0.9384 -1.60121 -3.4427
  vertex -0.8399 -1.95568 -3.44265
  endloop
 endfacet

 facet normal 0.000148311 -4.90164e-05 1
  outer loop
  vertex -0.7094 -1.56082 -3.44265
  vertex -0.8399 -1.95568 -3.44265
  vertex -0.4939 -1.92536 -3.4427
  endloop
 endfacet

 facet normal 2.39251e-05 2.38728e-05 1
  outer loop
  vertex -1.1568 -1.68082 -3.44269
  vertex -1.3581 -1.79696 -3.44263
  vertex -1.1547 -2.10238 -3.44268
  endloop
 endfacet

 facet normal -0.000105495 2.32281e-05 1
  outer loop
  vertex -1.1568 -1.68082 -3.44269
  vertex -1.1547 -2.10238 -3.44268
  vertex -0.8399 -1.95568 -3.44265
  endloop
 endfacet

 facet normal 5.68865e-05 4.42118e-05 1
  outer loop
  vertex -1.5362 -1.94636 -3.44266
  vertex -1.6856 -2.12453 -3.44265
  vertex -1.4002 -2.34784 -3.44265
  endloop
 endfacet

 facet normal 7.2053e-05 4.93494e-05 1
  outer loop
  vertex -1.5362 -1.94636 -3.44266
  vertex -1.4002 -2.34784 -3.44265
  vertex -1.1547 -2.10238 -3.44268
  endloop
 endfacet

 facet normal 6.78361e-05 -6.68819e-05 1
  outer loop
  vertex -1.8018 -2.32579 -3.44266
  vertex -1.8813 -2.54422 -3.44262
  vertex -1.5469 -2.66257 -3.4427
  endloop
 endfacet

 facet normal -3.2788e-05 -0.000143042 1
  outer loop
  vertex -1.8018 -2.32579 -3.44266
  vertex -1.5469 -2.66257 -3.4427
  vertex -1.4002 -2.34784 -3.44265
  endloop
 endfacet

 facet normal -6.5749e-06 -9.62543e-06 1
  outer loop
  vertex -1.9217 -2.77323 -3.44265
  vertex -1.9217 -3.00557 -3.44272
  vertex -1.5772 -3.00855 -3.44265
  endloop
 endfacet

 facet normal 9.28265e-05 0.000135895 1
  outer loop
  vertex -1.9217 -2.77323 -3.44265
  vertex -1.5772 -3.00855 -3.44265
  vertex -1.5469 -2.66257 -3.4427
  endloop
 endfacet

 facet normal -5.23622e-05 8.59913e-05 1
  outer loop
  vertex -1.8813 -3.23455 -3.44266
  vertex -1.8018 -3.45299 -3.44262
  vertex -1.4873 -3.34398 -3.44263
  endloop
 endfacet

 facet normal -6.44611e-05 4.24294e-05 1
  outer loop
  vertex -1.8813 -3.23455 -3.44266
  vertex -1.4873 -3.34398 -3.44263
  vertex -1.5772 -3.00855 -3.44265
  endloop
 endfacet

 facet normal 9.61155e-07 -1.47627e-05 1
  outer loop
  vertex -1.6856 -3.65437 -3.4427
  vertex -1.5362 -3.83241 -3.44262
  vertex -1.2881 -3.62849 -3.4427
  endloop
 endfacet

 facet normal 1.5289e-05 -0.000234829 1
  outer loop
  vertex -1.6856 -3.65437 -3.4427
  vertex -1.2881 -3.62849 -3.4427
  vertex -1.4873 -3.34398 -3.44263
  endloop
 endfacet

 facet normal -0.307516 -0.439213 0.844112
  outer loop
  vertex -0.6182 -2.92976 -0.33505
  vertex -1.2881 -3.62842 -0.94263
  vertex -1.0037 -3.82762 -0.94267
  endloop
 endfacet

 facet normal -0.137791 -0.513861 0.846735
  outer loop
  vertex -0.6182 -2.92976 -0.33505
  vertex -1.0037 -3.82762 -0.94267
  vertex -0.6683 -3.91759 -0.94269
  endloop
 endfacet

 facet normal 0.0459353 -0.525074 0.849816
  outer loop
  vertex -0.6182 -2.92976 -0.33505
  vertex -0.6683 -3.91759 -0.94269
  vertex -0.3223 -3.88724 -0.94264
  endloop
 endfacet

 facet normal 0.220611 -0.473081 0.852951
  outer loop
  vertex -0.6182 -2.92976 -0.33505
  vertex -0.3223 -3.88724 -0.94264
  vertex -0.0075 -3.74044 -0.94264
  endloop
 endfacet

 facet normal 0.365783 -0.365842 0.855782
  outer loop
  vertex -0.6182 -2.92976 -0.33505
  vertex -0.0075 -3.74044 -0.94264
  vertex 0.2379 -3.49508 -0.94264
  endloop
 endfacet

 facet normal 0.465543 -0.217129 0.857977
  outer loop
  vertex -0.6182 -2.92976 -0.33505
  vertex 0.2379 -3.49508 -0.94264
  vertex 0.3847 -3.18025 -0.94262
  endloop
 endfacet

 facet normal 0.509468 -0.0445562 0.859335
  outer loop
  vertex -0.6182 -2.92976 -0.33505
  vertex 0.3847 -3.18025 -0.94262
  vertex 0.415 -2.83437 -0.94265
  endloop
 endfacet

 facet normal 0.493359 0.132294 0.859707
  outer loop
  vertex -0.6182 -2.92976 -0.33505
  vertex 0.415 -2.83437 -0.94265
  vertex 0.3251 -2.49885 -0.94269
  endloop
 endfacet

 facet normal 0.419239 0.293655 0.859073
  outer loop
  vertex -0.6182 -2.92976 -0.33505
  vertex 0.3251 -2.49885 -0.94269
  vertex 0.1259 -2.21446 -0.94269
  endloop
 endfacet

 facet normal 0.295282 0.42128 0.857515
  outer loop
  vertex -0.6182 -2.92976 -0.33505
  vertex 0.1259 -2.21446 -0.94269
  vertex -0.1585 -2.01516 -0.94267
  endloop
 endfacet

 facet normal 0.133933 0.500799 0.855139
  outer loop
  vertex -0.6182 -2.92976 -0.33505
  vertex -0.1585 -2.01516 -0.94267
  vertex -0.4939 -1.92541 -0.9427
  endloop
 endfacet

 facet normal -0.0454753 0.521228 0.852205
  outer loop
  vertex -0.6182 -2.92976 -0.33505
  vertex -0.4939 -1.92541 -0.9427
  vertex -0.8399 -1.95563 -0.94268
  endloop
 endfacet

 facet normal -0.22329 0.478795 0.849056
  outer loop
  vertex -0.6182 -2.92976 -0.33505
  vertex -0.8399 -1.95563 -0.94268
  vertex -1.1547 -2.10244 -0.94268
  endloop
 endfacet

 facet normal -0.376846 0.377026 0.846072
  outer loop
  vertex -0.6182 -2.92976 -0.33505
  vertex -1.1547 -2.10244 -0.94268
  vertex -1.4002 -2.34789 -0.94265
  endloop
 endfacet

 facet normal -0.486612 0.22695 0.843624
  outer loop
  vertex -0.6182 -2.92976 -0.33505
  vertex -1.4002 -2.34789 -0.94265
  vertex -1.5469 -2.66251 -0.94263
  endloop
 endfacet

 facet normal -0.53737 0.0469612 0.842038
  outer loop
  vertex -0.6182 -2.92976 -0.33505
  vertex -1.5469 -2.66251 -0.94263
  vertex -1.5772 -3.00851 -0.94267
  endloop
 endfacet

 facet normal -0.521752 -0.139699 0.841581
  outer loop
  vertex -0.6182 -2.92976 -0.33505
  vertex -1.5772 -3.00851 -0.94267
  vertex -1.4873 -3.34403 -0.94263
  endloop
 endfacet

 facet normal -0.441461 -0.30922 0.842315
  outer loop
  vertex -0.6182 -2.92976 -0.33505
  vertex -1.4873 -3.34403 -0.94263
  vertex -1.2881 -3.62842 -0.94263
  endloop
 endfacet

 facet normal 0 -0.121409 0.992603
  outer loop
  vertex -0.477 -4.21796 -3.44263
  vertex -0.7094 -4.21796 -3.44263
  vertex -4.3831 -9.06934 -4.03602
  endloop
 endfacet

 facet normal 0 -0.121409 0.992603
  outer loop
  vertex -0.477 -4.21796 -3.44263
  vertex -4.3831 -9.06934 -4.03602
  vertex 3.2617 -9.06934 -4.03602
  endloop
 endfacet

 facet normal -0.100848 -0.0585847 0.993176
  outer loop
  vertex -4.3831 -9.06934 -4.03602
  vertex -1.6856 -3.65437 -3.4427
  vertex -1.8018 -3.45299 -3.44262
  endloop
 endfacet

 facet normal -0.127332 -0.04616 0.990786
  outer loop
  vertex -4.3831 -9.06934 -4.03602
  vertex -1.8018 -3.45299 -3.44262
  vertex -1.8813 -3.23455 -3.44266
  endloop
 endfacet

 facet normal -0.166052 -0.0290397 0.985689
  outer loop
  vertex -4.3831 -9.06934 -4.03602
  vertex -1.8813 -3.23455 -3.44266
  vertex -1.9217 -3.00557 -3.44272
  endloop
 endfacet

 facet normal -0.0818018 -0.0681971 0.994313
  outer loop
  vertex -4.3831 -9.06934 -4.03602
  vertex -1.5362 -3.83241 -3.44262
  vertex -1.6856 -3.65437 -3.4427
  endloop
 endfacet

 facet normal -0.0648323 -0.0774867 0.994883
  outer loop
  vertex -4.3831 -9.06934 -4.03602
  vertex -1.3581 -3.98181 -3.44265
  vertex -1.5362 -3.83241 -3.44262
  endloop
 endfacet

 facet normal -0.0497531 -0.0864676 0.995012
  outer loop
  vertex -4.3831 -9.06934 -4.03602
  vertex -1.1568 -4.09798 -3.44268
  vertex -1.3581 -3.98181 -3.44265
  endloop
 endfacet

 facet normal 0.0810812 -0.0675923 0.994413
  outer loop
  vertex 3.2617 -9.06934 -4.03602
  vertex 0.4991 -3.65437 -3.4427
  vertex 0.3497 -3.83241 -3.44262
  endloop
 endfacet

 facet normal 0.0644006 -0.0769289 0.994955
  outer loop
  vertex 3.2617 -9.06934 -4.03602
  vertex 0.3497 -3.83241 -3.44262
  vertex 0.1717 -3.98181 -3.44265
  endloop
 endfacet

 facet normal 0.0494841 -0.0860016 0.995065
  outer loop
  vertex 3.2617 -9.06934 -4.03602
  vertex 0.1717 -3.98181 -3.44265
  vertex -0.0296 -4.09798 -3.44268
  endloop
 endfacet

 facet normal 0.0348525 -0.0956573 0.994804
  outer loop
  vertex 3.2617 -9.06934 -4.03602
  vertex -0.0296 -4.09798 -3.44268
  vertex -0.2481 -4.17759 -3.44268
  endloop
 endfacet

 facet normal -0.0349983 -0.0960137 0.994765
  outer loop
  vertex -4.3831 -9.06934 -4.03602
  vertex -0.9384 -4.17759 -3.44268
  vertex -1.1568 -4.09798 -3.44268
  endloop
 endfacet

 facet normal 0.019069 -0.106895 0.994087
  outer loop
  vertex 3.2617 -9.06934 -4.03602
  vertex -0.2481 -4.17759 -3.44268
  vertex -0.477 -4.21796 -3.44263
  endloop
 endfacet

 facet normal -0.0191009 -0.107123 0.994062
  outer loop
  vertex -4.3831 -9.06934 -4.03602
  vertex -0.7094 -4.21796 -3.44263
  vertex -0.9384 -4.17759 -3.44268
  endloop
 endfacet

 facet normal 0.099702 -0.0579734 0.993327
  outer loop
  vertex 3.2617 -9.06934 -4.03602
  vertex 0.6154 -3.45299 -3.44262
  vertex 0.4991 -3.65437 -3.4427
  endloop
 endfacet

 facet normal 0.125599 -0.0455292 0.991036
  outer loop
  vertex 3.2617 -9.06934 -4.03602
  vertex 0.6949 -3.23455 -3.44266
  vertex 0.6154 -3.45299 -3.44262
  endloop
 endfacet

 facet normal 0.162979 -0.0285949 0.986215
  outer loop
  vertex 3.2617 -9.06934 -4.03602
  vertex 0.7353 -3.00566 -3.4427
  vertex 0.6949 -3.23455 -3.44266
  endloop
 endfacet

 facet normal 0.102591 0.973768 -0.203105
  outer loop
  vertex 3.2662 -2.29773 -7.25264
  vertex 3.2612 -1.52838 -4.37212
  vertex 15.1624 -2.63682 -2.86943
  endloop
 endfacet

 facet normal 0.0929405 0.979914 -0.176437
  outer loop
  vertex 3.2662 -2.29773 -7.25264
  vertex 15.1624 -2.63682 -2.86943
  vertex 19.2158 -3.81049 -7.25271
  endloop
 endfacet

 facet normal -0.000194786 -0.00200736 -0.999998
  outer loop
  vertex 3.2662 -2.29773 -7.25264
  vertex 19.2158 -3.81049 -7.25271
  vertex 3.2634 -8.21063 -7.24077
  endloop
 endfacet

 facet normal 0.345425 -0.000201189 0.938446
  outer loop
  vertex 3.2612 -1.52838 -4.37212
  vertex 0.7353 -2.77323 -3.44265
  vertex 0.7353 -3.00566 -3.4427
  endloop
 endfacet

 facet normal 0.0201393 0.969256 0.245227
  outer loop
  vertex -4.3577 -1.38264 -3.8282
  vertex -0.7094 -1.56082 -3.44265
  vertex -0.477 -1.56082 -3.44265
  endloop
 endfacet

 facet normal 0.0299485 0.987474 0.154913
  outer loop
  vertex -4.3577 -1.38264 -3.8282
  vertex -0.477 -1.56082 -3.44265
  vertex 3.2612 -1.52838 -4.37212
  endloop
 endfacet

 facet normal -0.173151 -0.0260464 0.984551
  outer loop
  vertex -4.3577 -1.38264 -3.8282
  vertex -4.3831 -9.06934 -4.03602
  vertex -1.9217 -3.00557 -3.44272
  endloop
 endfacet

 facet normal -0.999968 -6.68572e-05 -0.00803703
  outer loop
  vertex -4.3577 -2.29773 -7.25264
  vertex -4.3574 -8.21063 -7.24077
  vertex -4.3831 -9.06934 -4.03602
  endloop
 endfacet

 facet normal -0.999994 0.00332846 -0.000889441
  outer loop
  vertex -4.3577 -1.38264 -3.8282
  vertex -4.3577 -2.29773 -7.25264
  vertex -4.3831 -9.06934 -4.03602
  endloop
 endfacet

 facet normal 0.323206 0.0421574 0.945389
  outer loop
  vertex 3.2612 -1.52838 -4.37212
  vertex 0.7353 -3.00566 -3.4427
  vertex 3.2617 -9.06934 -4.03602
  endloop
 endfacet

 facet normal 0.320206 0.0563639 0.94567
  outer loop
  vertex 3.2612 -1.52838 -4.37212
  vertex 0.6949 -2.54422 -3.44262
  vertex 0.7353 -2.77323 -3.44265
  endloop
 endfacet

 facet normal 0.299956 0.109346 0.947666
  outer loop
  vertex 3.2612 -1.52838 -4.37212
  vertex 0.6154 -2.32579 -3.44266
  vertex 0.6949 -2.54422 -3.44262
  endloop
 endfacet

 facet normal 0.282779 0.163419 0.945161
  outer loop
  vertex 3.2612 -1.52838 -4.37212
  vertex 0.4991 -2.12443 -3.44268
  vertex 0.6154 -2.32579 -3.44266
  endloop
 endfacet

 facet normal 0.267066 0.223963 0.937292
  outer loop
  vertex 3.2612 -1.52838 -4.37212
  vertex 0.3497 -1.94636 -3.44266
  vertex 0.4991 -2.12443 -3.44268
  endloop
 endfacet

 facet normal 0.231598 0.401874 0.885923
  outer loop
  vertex 3.2612 -1.52838 -4.37212
  vertex -0.0296 -1.68082 -3.44269
  vertex 0.1717 -1.79696 -3.44263
  endloop
 endfacet

 facet normal 0.202183 0.555019 0.806893
  outer loop
  vertex 3.2612 -1.52838 -4.37212
  vertex -0.2481 -1.60121 -3.4427
  vertex -0.0296 -1.68082 -3.44269
  endloop
 endfacet

 facet normal 0.140217 0.793913 0.591642
  outer loop
  vertex 3.2612 -1.52838 -4.37212
  vertex -0.477 -1.56082 -3.44265
  vertex -0.2481 -1.60121 -3.4427
  endloop
 endfacet

 facet normal 0.251011 0.298877 0.920688
  outer loop
  vertex 3.2612 -1.52838 -4.37212
  vertex 0.1717 -1.79696 -3.44263
  vertex 0.3497 -1.94636 -3.44266
  endloop
 endfacet

 facet normal -0.0747842 0.422891 0.903089
  outer loop
  vertex -4.3577 -1.38264 -3.8282
  vertex -0.9384 -1.60121 -3.4427
  vertex -0.7094 -1.56082 -3.44265
  endloop
 endfacet

 facet normal -0.0923578 0.253493 0.962918
  outer loop
  vertex -4.3577 -1.38264 -3.8282
  vertex -1.1568 -1.68082 -3.44269
  vertex -0.9384 -1.60121 -3.4427
  endloop
 endfacet

 facet normal -0.101485 0.176403 0.979072
  outer loop
  vertex -4.3577 -1.38264 -3.8282
  vertex -1.3581 -1.79696 -3.44263
  vertex -1.1568 -1.68082 -3.44269
  endloop
 endfacet

 facet normal -0.108801 0.129503 0.985592
  outer loop
  vertex -4.3577 -1.38264 -3.8282
  vertex -1.5362 -1.94636 -3.44266
  vertex -1.3581 -1.79696 -3.44263
  endloop
 endfacet

 facet normal -0.115685 0.0970599 0.988532
  outer loop
  vertex -4.3577 -1.38264 -3.8282
  vertex -1.6856 -2.12453 -3.44265
  vertex -1.5362 -1.94636 -3.44266
  endloop
 endfacet

 facet normal -0.123103 0.0710257 0.989849
  outer loop
  vertex -4.3577 -1.38264 -3.8282
  vertex -1.8018 -2.32579 -3.44266
  vertex -1.6856 -2.12453 -3.44265
  endloop
 endfacet

 facet normal -0.131612 0.0480831 0.990135
  outer loop
  vertex -4.3577 -1.38264 -3.8282
  vertex -1.8813 -2.54422 -3.44262
  vertex -1.8018 -2.32579 -3.44266
  endloop
 endfacet

 facet normal -0.142349 0.0249822 0.989501
  outer loop
  vertex -4.3577 -1.38264 -3.8282
  vertex -1.9217 -2.77323 -3.44265
  vertex -1.8813 -2.54422 -3.44262
  endloop
 endfacet

 facet normal -0.156491 -0.000296961 0.987679
  outer loop
  vertex -4.3577 -1.38264 -3.8282
  vertex -1.9217 -3.00557 -3.44272
  vertex -1.9217 -2.77323 -3.44265
  endloop
 endfacet

 facet normal 3.93845e-05 0.966123 -0.258083
  outer loop
  vertex 3.2662 -2.29773 -7.25264
  vertex -4.3577 -2.29773 -7.25264
  vertex -4.3577 -1.38264 -3.8282
  endloop
 endfacet

 facet normal 5.90768e-05 0.966134 -0.258042
  outer loop
  vertex 3.2662 -2.29773 -7.25264
  vertex -4.3577 -1.38264 -3.8282
  vertex 3.2612 -1.52838 -4.37212
  endloop
 endfacet

 facet normal -0.81906 -0.573708 -1.1435e-05
  outer loop
  vertex -1.2881 -3.62842 -0.94263
  vertex -1.4873 -3.34403 -0.94263
  vertex -1.4873 -3.34398 -3.44263
  endloop
 endfacet

 facet normal -0.819174 -0.573546 1.60806e-05
  outer loop
  vertex -1.2881 -3.62842 -0.94263
  vertex -1.4873 -3.34398 -3.44263
  vertex -1.2881 -3.62849 -3.4427
  endloop
 endfacet

 facet normal 0.000246081 9.22783e-05 1
  outer loop
  vertex -1.5362 -3.83241 -3.44262
  vertex -1.3581 -3.98181 -3.44265
  vertex -1.2881 -3.62849 -3.4427
  endloop
 endfacet

 facet normal -3.33102e-05 -9.13826e-05 1
  outer loop
  vertex -1.1568 -4.09798 -3.44268
  vertex -0.9384 -4.17759 -3.44268
  vertex -1.0037 -3.82766 -3.44265
  endloop
 endfacet

 facet normal 0 0.000199191 1
  outer loop
  vertex -0.7094 -4.21796 -3.44263
  vertex -0.477 -4.21796 -3.44263
  vertex -0.6683 -3.91753 -3.44269
  endloop
 endfacet

 facet normal 8.02033e-05 -0.000220129 1
  outer loop
  vertex -0.2481 -4.17759 -3.44268
  vertex -0.0296 -4.09798 -3.44268
  vertex -0.3223 -3.88728 -3.44261
  endloop
 endfacet

 facet normal -8.25369e-05 -0.000102739 1
  outer loop
  vertex 0.1717 -3.98181 -3.44265
  vertex 0.3497 -3.83241 -3.44262
  vertex -0.0075 -3.74038 -3.44264
  endloop
 endfacet

 facet normal -9.50525e-06 -0.000391125 1
  outer loop
  vertex 0.4991 -3.65437 -3.4427
  vertex 0.6154 -3.45299 -3.44262
  vertex 0.2379 -3.49502 -3.44264
  endloop
 endfacet

 facet normal -6.36982e-05 0.000185195 1
  outer loop
  vertex 0.6949 -3.23455 -3.44266
  vertex 0.7353 -3.00566 -3.4427
  vertex 0.3847 -3.18032 -3.44269
  endloop
 endfacet

 facet normal 0.000114971 -0.000110894 1
  outer loop
  vertex 0.7353 -2.77323 -3.44265
  vertex 0.6949 -2.54422 -3.44262
  vertex 0.415 -2.83441 -3.44262
  endloop
 endfacet

 facet normal -4.35881e-05 7.31001e-05 1
  outer loop
  vertex 0.6154 -2.32579 -3.44266
  vertex 0.4991 -2.12443 -3.44268
  vertex 0.3251 -2.49889 -3.44266
  endloop
 endfacet

 facet normal 4.43598e-05 -0.000148224 1
  outer loop
  vertex 0.3497 -1.94636 -3.44266
  vertex 0.1717 -1.79696 -3.44263
  vertex 0.1259 -2.2144 -3.44269
  endloop
 endfacet

 facet normal -2.1434e-06 0.0001199 1
  outer loop
  vertex -0.0296 -1.68082 -3.44269
  vertex -0.2481 -1.60121 -3.4427
  vertex -0.1585 -2.0152 -3.44265
  endloop
 endfacet

 facet normal 0 -0.000136691 1
  outer loop
  vertex -0.477 -1.56082 -3.44265
  vertex -0.7094 -1.56082 -3.44265
  vertex -0.4939 -1.92536 -3.4427
  endloop
 endfacet

 facet normal -4.89586e-06 0.000139214 1
  outer loop
  vertex -0.9384 -1.60121 -3.4427
  vertex -1.1568 -1.68082 -3.44269
  vertex -0.8399 -1.95568 -3.44265
  endloop
 endfacet

 facet normal -2.04111e-05 -0.000176744 1
  outer loop
  vertex -1.3581 -1.79696 -3.44263
  vertex -1.5362 -1.94636 -3.44266
  vertex -1.1547 -2.10238 -3.44268
  endloop
 endfacet

 facet normal -2.68159e-05 -3.4272e-05 1
  outer loop
  vertex -1.6856 -2.12453 -3.44265
  vertex -1.8018 -2.32579 -3.44266
  vertex -1.4002 -2.34784 -3.44265
  endloop
 endfacet

 facet normal 0.000181113 -0.000163127 1
  outer loop
  vertex -1.8813 -2.54422 -3.44262
  vertex -1.9217 -2.77323 -3.44265
  vertex -1.5469 -2.66257 -3.4427
  endloop
 endfacet

 facet normal -0.000200823 0.000225914 1
  outer loop
  vertex -1.9217 -3.00557 -3.44272
  vertex -1.8813 -3.23455 -3.44266
  vertex -1.5772 -3.00855 -3.44265
  endloop
 endfacet

 facet normal 0.000141093 -0.000315201 1
  outer loop
  vertex -1.8018 -3.45299 -3.44262
  vertex -1.6856 -3.65437 -3.4427
  vertex -1.4873 -3.34398 -3.44263
  endloop
 endfacet

 facet normal 1 0 0
  outer loop
  vertex 80.5968 -12.6599 -7.25014
  vertex 80.5968 -9.94676 -7.25263
  vertex 80.5968 -11.6675 -0.54107
  endloop
 endfacet

 facet normal 1 0 0
  outer loop
  vertex 80.5968 -12.6599 -7.25014
  vertex 80.5968 -11.6675 -0.54107
  vertex 80.5968 -14.2706 -1.2386
  endloop
 endfacet

 facet normal -0.0403446 -0.0307127 0.998714
  outer loop
  vertex 7.5661 -7.35134 5.79926
  vertex 7.5661 -3.74089 5.91029
  vertex 6.3762 -3.94354 5.85599
  endloop
 endfacet

 facet normal -0.116265 -0.0571029 0.991575
  outer loop
  vertex 7.5661 -7.35134 5.79926
  vertex 6.3762 -3.94354 5.85599
  vertex 5.3301 -4.52686 5.69974
  endloop
 endfacet

 facet normal -0.178622 -0.106944 0.978089
  outer loop
  vertex 7.5661 -7.35134 5.79926
  vertex 5.3301 -4.52686 5.69974
  vertex 4.5534 -5.42083 5.46015
  endloop
 endfacet

 facet normal -0.219798 -0.174408 0.959829
  outer loop
  vertex 7.5661 -7.35134 5.79926
  vertex 4.5534 -5.42083 5.46015
  vertex 4.1404 -6.51756 5.16629
  endloop
 endfacet

 facet normal -0.234725 -0.251598 0.938937
  outer loop
  vertex 7.5661 -7.35134 5.79926
  vertex 4.1404 -6.51756 5.16629
  vertex 4.1404 -7.68456 4.85358
  endloop
 endfacet

 facet normal -0.221356 -0.329333 0.9179
  outer loop
  vertex 7.5661 -7.35134 5.79926
  vertex 4.1404 -7.68456 4.85358
  vertex 4.5534 -8.78107 4.55976
  endloop
 endfacet

 facet normal -0.181006 -0.3982 0.899263
  outer loop
  vertex 7.5661 -7.35134 5.79926
  vertex 4.5534 -8.78107 4.55976
  vertex 5.3301 -9.67513 4.3202
  endloop
 endfacet

 facet normal -0.118433 -0.449562 0.885363
  outer loop
  vertex 7.5661 -7.35134 5.79926
  vertex 5.3301 -9.67513 4.3202
  vertex 6.3762 -10.2586 4.16388
  endloop
 endfacet

 facet normal -0.0411303 -0.47702 0.877929
  outer loop
  vertex 7.5661 -7.35134 5.79926
  vertex 6.3762 -10.2586 4.16388
  vertex 7.5661 -10.4611 4.10956
  endloop
 endfacet

 facet normal 0.0411338 -0.47702 0.877929
  outer loop
  vertex 7.5661 -7.35134 5.79926
  vertex 7.5661 -10.4611 4.10956
  vertex 8.7559 -10.2586 4.16388
  endloop
 endfacet

 facet normal 0.118407 -0.449576 0.88536
  outer loop
  vertex 7.5661 -7.35134 5.79926
  vertex 8.7559 -10.2586 4.16388
  vertex 9.8023 -9.67513 4.3202
  endloop
 endfacet

 facet normal 0.181033 -0.398165 0.899273
  outer loop
  vertex 7.5661 -7.35134 5.79926
  vertex 9.8023 -9.67513 4.3202
  vertex 10.5787 -8.78107 4.55976
  endloop
 endfacet

 facet normal 0.221344 -0.329367 0.917891
  outer loop
  vertex 7.5661 -7.35134 5.79926
  vertex 10.5787 -8.78107 4.55976
  vertex 10.9919 -7.68456 4.85358
  endloop
 endfacet

 facet normal 0.234718 -0.251598 0.938939
  outer loop
  vertex 7.5661 -7.35134 5.79926
  vertex 10.9919 -7.68456 4.85358
  vertex 10.9919 -6.51756 5.16629
  endloop
 endfacet

 facet normal 0.219785 -0.174375 0.959837
  outer loop
  vertex 7.5661 -7.35134 5.79926
  vertex 10.9919 -6.51756 5.16629
  vertex 10.5787 -5.42083 5.46015
  endloop
 endfacet

 facet normal 0.178649 -0.106978 0.97808
  outer loop
  vertex 7.5661 -7.35134 5.79926
  vertex 10.5787 -5.42083 5.46015
  vertex 9.8023 -4.52686 5.69974
  endloop
 endfacet

 facet normal 0.116239 -0.0570905 0.991579
  outer loop
  vertex 7.5661 -7.35134 5.79926
  vertex 9.8023 -4.52686 5.69974
  vertex 8.7559 -3.94354 5.85599
  endloop
 endfacet

 facet normal 0.040348 -0.0307127 0.998714
  outer loop
  vertex 7.5661 -7.35134 5.79926
  vertex 8.7559 -3.94354 5.85599
  vertex 7.5661 -3.74089 5.91029
  endloop
 endfacet

 facet normal -0.500024 -0.837454 -0.220558
  outer loop
  vertex 5.3189 -8.60431 0.27968
  vertex 6.3704 -9.19075 0.1226
  vertex 6.3762 -10.2586 4.16388
  endloop
 endfacet

 facet normal -0.500029 -0.837452 -0.220556
  outer loop
  vertex 5.3189 -8.60431 0.27968
  vertex 6.3762 -10.2586 4.16388
  vertex 5.3301 -9.67513 4.3202
  endloop
 endfacet

 facet normal -2.98818e-05 -0.258783 0.965936
  outer loop
  vertex 5.3189 -8.60431 0.27968
  vertex 5.0455 -9.01621 0.16932
  vertex 6.2248 -9.67392 -0.00685
  endloop
 endfacet

 facet normal -2.99165e-05 -0.258783 0.965936
  outer loop
  vertex 5.3189 -8.60431 0.27968
  vertex 6.2248 -9.67392 -0.00685
  vertex 6.3704 -9.19075 0.1226
  endloop
 endfacet

 facet normal 9.6764e-06 -0.25883 0.965923
  outer loop
  vertex 5.3189 -8.60431 0.27968
  vertex 4.5383 -7.70588 0.52045
  vertex 4.1701 -8.00837 0.43938
  endloop
 endfacet

 facet normal 1.88989e-05 -0.258813 0.965927
  outer loop
  vertex 5.3189 -8.60431 0.27968
  vertex 4.1701 -8.00837 0.43938
  vertex 5.0455 -9.01621 0.16932
  endloop
 endfacet

 facet normal -0.766001 -0.621914 -0.162685
  outer loop
  vertex 5.3189 -8.60431 0.27968
  vertex 5.3301 -9.67513 4.3202
  vertex 4.5534 -8.78107 4.55976
  endloop
 endfacet

 facet normal -0.765988 -0.62193 -0.162683
  outer loop
  vertex 5.3189 -8.60431 0.27968
  vertex 4.5534 -8.78107 4.55976
  vertex 4.5383 -7.70588 0.52045
  endloop
 endfacet

 facet normal -0.173614 -0.952201 -0.251338
  outer loop
  vertex 6.3704 -9.19075 0.1226
  vertex 7.5661 -9.39443 0.06796
  vertex 7.5661 -10.4611 4.10956
  endloop
 endfacet

 facet normal -0.173579 -0.952205 -0.25135
  outer loop
  vertex 6.3704 -9.19075 0.1226
  vertex 7.5661 -10.4611 4.10956
  vertex 6.3762 -10.2586 4.16388
  endloop
 endfacet

 facet normal 5.32541e-05 -0.258724 0.965951
  outer loop
  vertex 6.3704 -9.19075 0.1226
  vertex 6.2248 -9.67392 -0.00685
  vertex 7.5661 -9.90245 -0.06809
  endloop
 endfacet

 facet normal 7.55524e-05 -0.258689 0.965961
  outer loop
  vertex 6.3704 -9.19075 0.1226
  vertex 7.5661 -9.90245 -0.06809
  vertex 7.5661 -9.39443 0.06796
  endloop
 endfacet

 facet normal -5.61947e-06 -0.25882 0.965925
  outer loop
  vertex 4.5383 -7.70588 0.52045
  vertex 4.1231 -6.6037 0.81575
  vertex 3.7043 -6.77222 0.77062
  endloop
 endfacet

 facet normal -2.89177e-05 -0.25884 0.96592
  outer loop
  vertex 4.5383 -7.70588 0.52045
  vertex 3.7043 -6.77222 0.77062
  vertex 4.1701 -8.00837 0.43938
  endloop
 endfacet

 facet normal -0.93972 -0.331298 -0.084662
  outer loop
  vertex 4.5383 -7.70588 0.52045
  vertex 4.5534 -8.78107 4.55976
  vertex 4.1404 -7.68456 4.85358
  endloop
 endfacet

 facet normal -0.939714 -0.331315 -0.0846613
  outer loop
  vertex 4.5383 -7.70588 0.52045
  vertex 4.1404 -7.68456 4.85358
  vertex 4.1231 -6.6037 0.81575
  endloop
 endfacet

 facet normal 0.173623 -0.952203 -0.251326
  outer loop
  vertex 7.5661 -9.39443 0.06796
  vertex 8.7618 -9.19075 0.1226
  vertex 8.7559 -10.2586 4.16388
  endloop
 endfacet

 facet normal 0.173593 -0.95221 -0.251319
  outer loop
  vertex 7.5661 -9.39443 0.06796
  vertex 8.7559 -10.2586 4.16388
  vertex 7.5661 -10.4611 4.10956
  endloop
 endfacet

 facet normal -4.53205e-05 -0.258767 0.96594
  outer loop
  vertex 7.5661 -9.39443 0.06796
  vertex 7.5661 -9.90245 -0.06809
  vertex 8.9073 -9.67392 -0.00685
  endloop
 endfacet

 facet normal -5.40766e-05 -0.258806 0.965929
  outer loop
  vertex 7.5661 -9.39443 0.06796
  vertex 8.9073 -9.67392 -0.00685
  vertex 8.7618 -9.19075 0.1226
  endloop
 endfacet

 facet normal 5.83501e-05 -0.258802 0.96593
  outer loop
  vertex 4.1231 -6.6037 0.81575
  vertex 4.1231 -5.43102 1.12994
  vertex 3.7043 -5.45678 1.12307
  endloop
 endfacet

 facet normal 5.09045e-05 -0.258805 0.96593
  outer loop
  vertex 4.1231 -6.6037 0.81575
  vertex 3.7043 -5.45678 1.12307
  vertex 3.7043 -6.77222 0.77062
  endloop
 endfacet

 facet normal -0.999991 -0.00107114 0.00399772
  outer loop
  vertex 4.1231 -6.6037 0.81575
  vertex 4.1404 -7.68456 4.85358
  vertex 4.1404 -6.51756 5.16629
  endloop
 endfacet

 facet normal -0.999991 -0.00107109 0.00399772
  outer loop
  vertex 4.1231 -6.6037 0.81575
  vertex 4.1404 -6.51756 5.16629
  vertex 4.1231 -5.43102 1.12994
  endloop
 endfacet

 facet normal 0.499929 -0.837509 -0.220566
  outer loop
  vertex 8.7618 -9.19075 0.1226
  vertex 9.8135 -8.60431 0.27968
  vertex 9.8023 -9.67513 4.3202
  endloop
 endfacet

 facet normal 0.499922 -0.837514 -0.220565
  outer loop
  vertex 8.7618 -9.19075 0.1226
  vertex 9.8023 -9.67513 4.3202
  vertex 8.7559 -10.2586 4.16388
  endloop
 endfacet

 facet normal 2.98635e-05 -0.258783 0.965936
  outer loop
  vertex 8.7618 -9.19075 0.1226
  vertex 8.9073 -9.67392 -0.00685
  vertex 10.0868 -9.01621 0.16932
  endloop
 endfacet

 facet normal 2.98585e-05 -0.258783 0.965936
  outer loop
  vertex 8.7618 -9.19075 0.1226
  vertex 10.0868 -9.01621 0.16932
  vertex 9.8135 -8.60431 0.27968
  endloop
 endfacet

 facet normal 3.56584e-06 -0.258819 0.965926
  outer loop
  vertex 4.1231 -5.43102 1.12994
  vertex 4.5383 -4.32881 1.42533
  vertex 4.1701 -4.22053 1.45429
  endloop
 endfacet

 facet normal 7.48875e-05 -0.258822 0.965925
  outer loop
  vertex 4.1231 -5.43102 1.12994
  vertex 4.1701 -4.22053 1.45429
  vertex 3.7043 -5.45678 1.12307
  endloop
 endfacet

 facet normal -0.93973 0.329138 0.092608
  outer loop
  vertex 4.1231 -5.43102 1.12994
  vertex 4.1404 -6.51756 5.16629
  vertex 4.5534 -5.42083 5.46015
  endloop
 endfacet

 facet normal -0.939718 0.329172 0.0926068
  outer loop
  vertex 4.1231 -5.43102 1.12994
  vertex 4.5534 -5.42083 5.46015
  vertex 4.5383 -4.32881 1.42533
  endloop
 endfacet

 facet normal 0.766136 -0.621757 -0.162648
  outer loop
  vertex 9.8135 -8.60431 0.27968
  vertex 10.5938 -7.70588 0.52045
  vertex 10.5787 -8.78107 4.55976
  endloop
 endfacet

 facet normal 0.766148 -0.621741 -0.16265
  outer loop
  vertex 9.8135 -8.60431 0.27968
  vertex 10.5787 -8.78107 4.55976
  vertex 9.8023 -9.67513 4.3202
  endloop
 endfacet

 facet normal -4.55869e-07 -0.258846 0.965919
  outer loop
  vertex 9.8135 -8.60431 0.27968
  vertex 10.0868 -9.01621 0.16932
  vertex 10.9622 -8.00837 0.43938
  endloop
 endfacet

 facet normal 8.76713e-06 -0.258863 0.965914
  outer loop
  vertex 9.8135 -8.60431 0.27968
  vertex 10.9622 -8.00837 0.43938
  vertex 10.5938 -7.70588 0.52045
  endloop
 endfacet

 facet normal -7.18317e-05 -0.258791 0.965933
  outer loop
  vertex 4.5383 -4.32881 1.42533
  vertex 5.3189 -3.43028 1.66608
  vertex 5.0455 -3.21279 1.72437
  endloop
 endfacet

 facet normal -0.000124761 -0.258769 0.965939
  outer loop
  vertex 4.5383 -4.32881 1.42533
  vertex 5.0455 -3.21279 1.72437
  vertex 4.1701 -4.22053 1.45429
  endloop
 endfacet

 facet normal -0.766011 0.619773 0.170614
  outer loop
  vertex 4.5383 -4.32881 1.42533
  vertex 4.5534 -5.42083 5.46015
  vertex 5.3301 -4.52686 5.69974
  endloop
 endfacet

 facet normal -0.766017 0.619765 0.170615
  outer loop
  vertex 4.5383 -4.32881 1.42533
  vertex 5.3301 -4.52686 5.69974
  vertex 5.3189 -3.43028 1.66608
  endloop
 endfacet

 facet normal 0.939673 -0.331422 -0.0847006
  outer loop
  vertex 10.5938 -7.70588 0.52045
  vertex 11.0092 -6.6037 0.81575
  vertex 10.9919 -7.68456 4.85358
  endloop
 endfacet

 facet normal 0.939679 -0.331405 -0.0847012
  outer loop
  vertex 10.5938 -7.70588 0.52045
  vertex 10.9919 -7.68456 4.85358
  vertex 10.5787 -8.78107 4.55976
  endloop
 endfacet

 facet normal -1.7681e-05 -0.258801 0.965931
  outer loop
  vertex 10.5938 -7.70588 0.52045
  vertex 10.9622 -8.00837 0.43938
  vertex 11.428 -6.77222 0.77062
  endloop
 endfacet

 facet normal -4.09743e-05 -0.258782 0.965936
  outer loop
  vertex 10.5938 -7.70588 0.52045
  vertex 11.428 -6.77222 0.77062
  vertex 11.0092 -6.6037 0.81575
  endloop
 endfacet

 facet normal 2.33957e-05 -0.258847 0.965918
  outer loop
  vertex 5.3189 -3.43028 1.66608
  vertex 6.3704 -2.84395 1.82318
  vertex 6.2248 -2.55517 1.90057
  endloop
 endfacet

 facet normal 2.42621e-05 -0.258848 0.965918
  outer loop
  vertex 5.3189 -3.43028 1.66608
  vertex 6.2248 -2.55517 1.90057
  vertex 5.0455 -3.21279 1.72437
  endloop
 endfacet

 facet normal -0.499948 0.83537 0.228491
  outer loop
  vertex 5.3189 -3.43028 1.66608
  vertex 5.3301 -4.52686 5.69974
  vertex 6.3762 -3.94354 5.85599
  endloop
 endfacet

 facet normal -0.49995 0.835369 0.228492
  outer loop
  vertex 5.3189 -3.43028 1.66608
  vertex 6.3762 -3.94354 5.85599
  vertex 6.3704 -2.84395 1.82318
  endloop
 endfacet

 facet normal 0.999991 -0.00107115 0.00399761
  outer loop
  vertex 11.0092 -6.6037 0.81575
  vertex 11.0092 -5.43102 1.12994
  vertex 10.9919 -6.51756 5.16629
  endloop
 endfacet

 facet normal 0.999991 -0.0010712 0.00399761
  outer loop
  vertex 11.0092 -6.6037 0.81575
  vertex 10.9919 -6.51756 5.16629
  vertex 10.9919 -7.68456 4.85358
  endloop
 endfacet

 facet normal -6.57956e-05 -0.258799 0.965931
  outer loop
  vertex 11.0092 -6.6037 0.81575
  vertex 11.428 -6.77222 0.77062
  vertex 11.428 -5.45678 1.12307
  endloop
 endfacet

 facet normal -7.32412e-05 -0.258797 0.965932
  outer loop
  vertex 11.0092 -6.6037 0.81575
  vertex 11.428 -5.45678 1.12307
  vertex 11.0092 -5.43102 1.12994
  endloop
 endfacet

 facet normal 2.37793e-05 -0.258834 0.965922
  outer loop
  vertex 6.3704 -2.84395 1.82318
  vertex 7.5661 -2.64029 1.87773
  vertex 7.5661 -2.32676 1.96174
  endloop
 endfacet

 facet normal 2.74206e-05 -0.258842 0.96592
  outer loop
  vertex 6.3704 -2.84395 1.82318
  vertex 7.5661 -2.32676 1.96174
  vertex 6.2248 -2.55517 1.90057
  endloop
 endfacet

 facet normal -0.173645 0.950059 0.259297
  outer loop
  vertex 6.3704 -2.84395 1.82318
  vertex 6.3762 -3.94354 5.85599
  vertex 7.5661 -3.74089 5.91029
  endloop
 endfacet

 facet normal -0.17365 0.950058 0.259298
  outer loop
  vertex 6.3704 -2.84395 1.82318
  vertex 7.5661 -3.74089 5.91029
  vertex 7.5661 -2.64029 1.87773
  endloop
 endfacet

 facet normal 0.939688 0.329246 0.0926469
  outer loop
  vertex 11.0092 -5.43102 1.12994
  vertex 10.5938 -4.32881 1.42533
  vertex 10.5787 -5.42083 5.46015
  endloop
 endfacet

 facet normal 0.939699 0.329214 0.0926481
  outer loop
  vertex 11.0092 -5.43102 1.12994
  vertex 10.5787 -5.42083 5.46015
  vertex 10.9919 -6.51756 5.16629
  endloop
 endfacet

 facet normal 6.77058e-05 -0.258817 0.965926
  outer loop
  vertex 11.0092 -5.43102 1.12994
  vertex 11.428 -5.45678 1.12307
  vertex 10.9622 -4.22053 1.45429
  endloop
 endfacet

 facet normal 0.000139002 -0.258814 0.965927
  outer loop
  vertex 11.0092 -5.43102 1.12994
  vertex 10.9622 -4.22053 1.45429
  vertex 10.5938 -4.32881 1.42533
  endloop
 endfacet

 facet normal -2.25222e-05 -0.258828 0.965924
  outer loop
  vertex 7.5661 -2.64029 1.87773
  vertex 8.7618 -2.84395 1.82318
  vertex 8.9073 -2.55517 1.90057
  endloop
 endfacet

 facet normal -2.31218e-05 -0.258819 0.965926
  outer loop
  vertex 7.5661 -2.64029 1.87773
  vertex 8.9073 -2.55517 1.90057
  vertex 7.5661 -2.32676 1.96174
  endloop
 endfacet

 facet normal 0.17365 0.950058 0.259298
  outer loop
  vertex 7.5661 -2.64029 1.87773
  vertex 7.5661 -3.74089 5.91029
  vertex 8.7559 -3.94354 5.85599
  endloop
 endfacet

 facet normal 0.17365 0.950058 0.259298
  outer loop
  vertex 7.5661 -2.64029 1.87773
  vertex 8.7559 -3.94354 5.85599
  vertex 8.7618 -2.84395 1.82318
  endloop
 endfacet

 facet normal 0.766126 0.619641 0.170575
  outer loop
  vertex 10.5938 -4.32881 1.42533
  vertex 9.8135 -3.43028 1.66608
  vertex 9.8023 -4.52686 5.69974
  endloop
 endfacet

 facet normal 0.766119 0.619649 0.170574
  outer loop
  vertex 10.5938 -4.32881 1.42533
  vertex 9.8023 -4.52686 5.69974
  vertex 10.5787 -5.42083 5.46015
  endloop
 endfacet

 facet normal 1.88757e-05 -0.258814 0.965927
  outer loop
  vertex 10.5938 -4.32881 1.42533
  vertex 10.9622 -4.22053 1.45429
  vertex 10.0868 -3.21279 1.72437
  endloop
 endfacet

 facet normal -3.40399e-05 -0.258836 0.965921
  outer loop
  vertex 10.5938 -4.32881 1.42533
  vertex 10.0868 -3.21279 1.72437
  vertex 9.8135 -3.43028 1.66608
  endloop
 endfacet

 facet normal -2.28864e-05 -0.258846 0.965919
  outer loop
  vertex 8.7618 -2.84395 1.82318
  vertex 9.8135 -3.43028 1.66608
  vertex 10.0868 -3.21279 1.72437
  endloop
 endfacet

 facet normal -2.25211e-05 -0.258845 0.965919
  outer loop
  vertex 8.7618 -2.84395 1.82318
  vertex 10.0868 -3.21279 1.72437
  vertex 8.9073 -2.55517 1.90057
  endloop
 endfacet

 facet normal 0.499865 0.835416 0.228507
  outer loop
  vertex 8.7618 -2.84395 1.82318
  vertex 8.7559 -3.94354 5.85599
  vertex 9.8023 -4.52686 5.69974
  endloop
 endfacet

 facet normal 0.499879 0.835409 0.2285
  outer loop
  vertex 8.7618 -2.84395 1.82318
  vertex 9.8023 -4.52686 5.69974
  vertex 9.8135 -3.43028 1.66608
  endloop
 endfacet

 facet normal -0.0297938 -0.94097 0.337176
  outer loop
  vertex 7.5661 -9.90245 -0.06809
  vertex 6.2248 -9.67392 -0.00685
  vertex 3.1232 -9.97393 -0.66016
  endloop
 endfacet

 facet normal 0 -0.992791 0.11986
  outer loop
  vertex 7.5661 -9.90245 -0.06809
  vertex 3.1232 -9.97393 -0.66016
  vertex 11.9885 -9.97393 -0.66016
  endloop
 endfacet

 facet normal -0.688053 -0.188029 0.700876
  outer loop
  vertex 3.7043 -6.77222 0.77062
  vertex 3.7043 -5.45678 1.12307
  vertex 3.1244 -2.07395 1.46177
  endloop
 endfacet

 facet normal -0.688553 -0.188019 0.700388
  outer loop
  vertex 3.7043 -6.77222 0.77062
  vertex 3.1244 -2.07395 1.46177
  vertex 3.1232 -9.97393 -0.66016
  endloop
 endfacet

 facet normal 0.700757 -0.185038 0.688986
  outer loop
  vertex 11.428 -5.45678 1.12307
  vertex 11.428 -6.77222 0.77062
  vertex 11.9885 -9.97393 -0.66016
  endloop
 endfacet

 facet normal 0.699835 -0.185476 0.689804
  outer loop
  vertex 11.428 -5.45678 1.12307
  vertex 11.9885 -9.97393 -0.66016
  vertex 11.9907 -2.07395 1.46177
  endloop
 endfacet

 facet normal -0.0476296 0.921707 0.384951
  outer loop
  vertex 6.2248 -2.55517 1.90057
  vertex 7.5661 -2.32676 1.96174
  vertex 11.9907 -2.07395 1.46177
  endloop
 endfacet

 facet normal 0 0.673788 0.738925
  outer loop
  vertex 6.2248 -2.55517 1.90057
  vertex 11.9907 -2.07395 1.46177
  vertex 3.1244 -2.07395 1.46177
  endloop
 endfacet

 facet normal 0.137296 -0.478522 0.867275
  outer loop
  vertex 11.9885 -9.97393 -0.66016
  vertex 10.0868 -9.01621 0.16932
  vertex 8.9073 -9.67392 -0.00685
  endloop
 endfacet

 facet normal 0.187708 -0.403057 0.895718
  outer loop
  vertex 11.9885 -9.97393 -0.66016
  vertex 10.9622 -8.00837 0.43938
  vertex 10.0868 -9.01621 0.16932
  endloop
 endfacet

 facet normal 0.28913 -0.347923 0.891826
  outer loop
  vertex 11.9885 -9.97393 -0.66016
  vertex 11.428 -6.77222 0.77062
  vertex 10.9622 -8.00837 0.43938
  endloop
 endfacet

 facet normal 0.292141 -0.14327 0.945583
  outer loop
  vertex 11.9907 -2.07395 1.46177
  vertex 10.9622 -4.22053 1.45429
  vertex 11.428 -5.45678 1.12307
  endloop
 endfacet

 facet normal 0.19171 -0.0952586 0.976818
  outer loop
  vertex 11.9907 -2.07395 1.46177
  vertex 10.0868 -3.21279 1.72437
  vertex 10.9622 -4.22053 1.45429
  endloop
 endfacet

 facet normal 0.142385 -0.00981276 0.989763
  outer loop
  vertex 11.9907 -2.07395 1.46177
  vertex 8.9073 -2.55517 1.90057
  vertex 10.0868 -3.21279 1.72437
  endloop
 endfacet

 facet normal 0.0917219 0.282889 0.954757
  outer loop
  vertex 11.9907 -2.07395 1.46177
  vertex 7.5661 -2.32676 1.96174
  vertex 8.9073 -2.55517 1.90057
  endloop
 endfacet

 facet normal -0.14179 -0.0109426 0.989836
  outer loop
  vertex 3.1244 -2.07395 1.46177
  vertex 5.0455 -3.21279 1.72437
  vertex 6.2248 -2.55517 1.90057
  endloop
 endfacet

 facet normal -0.1906 -0.0962547 0.976937
  outer loop
  vertex 3.1244 -2.07395 1.46177
  vertex 4.1701 -4.22053 1.45429
  vertex 5.0455 -3.21279 1.72437
  endloop
 endfacet

 facet normal -0.289617 -0.144383 0.94619
  outer loop
  vertex 3.1244 -2.07395 1.46177
  vertex 3.7043 -5.45678 1.12307
  vertex 4.1701 -4.22053 1.45429
  endloop
 endfacet

 facet normal -0.286197 -0.347152 0.893071
  outer loop
  vertex 3.1232 -9.97393 -0.66016
  vertex 4.1701 -8.00837 0.43938
  vertex 3.7043 -6.77222 0.77062
  endloop
 endfacet

 facet normal -0.186444 -0.402141 0.896394
  outer loop
  vertex 3.1232 -9.97393 -0.66016
  vertex 5.0455 -9.01621 0.16932
  vertex 4.1701 -8.00837 0.43938
  endloop
 endfacet

 facet normal -0.136637 -0.47748 0.867953
  outer loop
  vertex 3.1232 -9.97393 -0.66016
  vertex 6.2248 -9.67392 -0.00685
  vertex 5.0455 -9.01621 0.16932
  endloop
 endfacet

 facet normal 0.0849473 -0.690924 0.71792
  outer loop
  vertex 11.9885 -9.97393 -0.66016
  vertex 8.9073 -9.67392 -0.00685
  vertex 7.5661 -9.90245 -0.06809
  endloop
 endfacet

 facet normal 0.309053 0.246143 -0.91864
  outer loop
  vertex 77.3079 -13.9768 -2.32633
  vertex 76.8982 -13.9424 -2.45491
  vertex 76.8982 -11.9517 -1.92156
  endloop
 endfacet

 facet normal 0.309092 0.246148 -0.918626
  outer loop
  vertex 77.3079 -13.9768 -2.32633
  vertex 76.8982 -11.9517 -1.92156
  vertex 77.3079 -11.9862 -1.79295
  endloop
 endfacet

 facet normal 0.499869 0.22415 -0.836593
  outer loop
  vertex 76.8982 -13.9424 -2.45491
  vertex 76.5251 -13.8866 -2.66293
  vertex 76.5251 -11.896 -2.12956
  endloop
 endfacet

 facet normal 0.499841 0.224147 -0.83661
  outer loop
  vertex 76.8982 -13.9424 -2.45491
  vertex 76.5251 -11.896 -2.12956
  vertex 76.8982 -11.9517 -1.92156
  endloop
 endfacet

 facet normal 0.669142 0.192327 -0.717816
  outer loop
  vertex 76.5251 -13.8866 -2.66293
  vertex 76.2049 -13.8119 -2.94135
  vertex 76.2049 -11.8214 -2.40807
  endloop
 endfacet

 facet normal 0.669177 0.192329 -0.717783
  outer loop
  vertex 76.5251 -13.8866 -2.66293
  vertex 76.2049 -11.8214 -2.40807
  vertex 76.5251 -11.896 -2.12956
  endloop
 endfacet

 facet normal 0.808997 0.152119 -0.567788
  outer loop
  vertex 76.2049 -13.8119 -2.94135
  vertex 75.9517 -13.7217 -3.27798
  vertex 75.9517 -11.7312 -2.74467
  endloop
 endfacet

 facet normal 0.808983 0.152119 -0.567809
  outer loop
  vertex 76.2049 -13.8119 -2.94135
  vertex 75.9517 -11.7312 -2.74467
  vertex 76.2049 -11.8214 -2.40807
  endloop
 endfacet

 facet normal 0.913478 0.105306 -0.393024
  outer loop
  vertex 75.9517 -13.7217 -3.27798
  vertex 75.7764 -13.6199 -3.65817
  vertex 75.7764 -11.6293 -3.1248
  endloop
 endfacet

 facet normal 0.913475 0.105307 -0.393031
  outer loop
  vertex 75.9517 -13.7217 -3.27798
  vertex 75.7764 -11.6293 -3.1248
  vertex 75.9517 -11.7312 -2.74467
  endloop
 endfacet

 facet normal 0.978183 0.0537657 -0.200668
  outer loop
  vertex 75.7764 -13.6199 -3.65817
  vertex 75.6869 -13.5108 -4.06517
  vertex 75.6869 -11.5203 -3.53189
  endloop
 endfacet

 facet normal 0.978185 0.0537651 -0.200656
  outer loop
  vertex 75.7764 -13.6199 -3.65817
  vertex 75.6869 -11.5203 -3.53189
  vertex 75.7764 -11.6293 -3.1248
  endloop
 endfacet

 facet normal 1 0 0
  outer loop
  vertex 75.6869 -13.5108 -4.06517
  vertex 75.6869 -13.3992 -4.48133
  vertex 75.6869 -11.4088 -3.94803
  endloop
 endfacet

 facet normal 1 0 0
  outer loop
  vertex 75.6869 -13.5108 -4.06517
  vertex 75.6869 -11.4088 -3.94803
  vertex 75.6869 -11.5203 -3.53189
  endloop
 endfacet

 facet normal 0.97818 -0.053771 0.200679
  outer loop
  vertex 75.6869 -13.3992 -4.48133
  vertex 75.7764 -13.2902 -4.88843
  vertex 75.7764 -11.2997 -4.35503
  endloop
 endfacet

 facet normal 0.978177 -0.0537718 0.200694
  outer loop
  vertex 75.6869 -13.3992 -4.48133
  vertex 75.7764 -11.2997 -4.35503
  vertex 75.6869 -11.4088 -3.94803
  endloop
 endfacet

 facet normal 0.913506 -0.105304 0.39296
  outer loop
  vertex 75.7764 -13.2902 -4.88843
  vertex 75.9517 -13.1883 -5.26865
  vertex 75.9517 -11.1978 -4.73525
  endloop
 endfacet

 facet normal 0.913507 -0.105304 0.392959
  outer loop
  vertex 75.7764 -13.2902 -4.88843
  vertex 75.9517 -11.1978 -4.73525
  vertex 75.7764 -11.2997 -4.35503
  endloop
 endfacet

 facet normal 0.808983 -0.152156 0.567799
  outer loop
  vertex 75.9517 -13.1883 -5.26865
  vertex 76.2049 -13.0982 -5.60525
  vertex 76.2049 -11.1077 -5.07185
  endloop
 endfacet

 facet normal 0.808983 -0.152156 0.567799
  outer loop
  vertex 75.9517 -13.1883 -5.26865
  vertex 76.2049 -11.1077 -5.07185
  vertex 75.9517 -11.1978 -4.73525
  endloop
 endfacet

 facet normal 0.669075 -0.192371 0.717866
  outer loop
  vertex 76.2049 -13.0982 -5.60525
  vertex 76.5251 -13.0235 -5.88367
  vertex 76.5251 -11.033 -5.35027
  endloop
 endfacet

 facet normal 0.669075 -0.192371 0.717866
  outer loop
  vertex 76.2049 -13.0982 -5.60525
  vertex 76.5251 -11.033 -5.35027
  vertex 76.2049 -11.1077 -5.07185
  endloop
 endfacet

 facet normal 0.500097 -0.224137 0.83646
  outer loop
  vertex 76.5251 -13.0235 -5.88367
  vertex 76.8982 -12.9678 -6.09176
  vertex 76.8982 -10.9772 -5.55841
  endloop
 endfacet

 facet normal 0.500154 -0.224141 0.836425
  outer loop
  vertex 76.5251 -13.0235 -5.88367
  vertex 76.8982 -10.9772 -5.55841
  vertex 76.5251 -11.033 -5.35027
  endloop
 endfacet

 facet normal 0.309012 -0.246139 0.918655
  outer loop
  vertex 76.8982 -12.9678 -6.09176
  vertex 77.3079 -12.9334 -6.22037
  vertex 77.3079 -10.9428 -5.68699
  endloop
 endfacet

 facet normal 0.308975 -0.246134 0.918669
  outer loop
  vertex 76.8982 -12.9678 -6.09176
  vertex 77.3079 -10.9428 -5.68699
  vertex 76.8982 -10.9772 -5.55841
  endloop
 endfacet

 facet normal 0.104534 -0.257412 0.960631
  outer loop
  vertex 77.3079 -12.9334 -6.22037
  vertex 77.7364 -12.9216 -6.26389
  vertex 77.7364 -10.9311 -5.73048
  endloop
 endfacet

 facet normal 0.104492 -0.257405 0.960637
  outer loop
  vertex 77.3079 -12.9334 -6.22037
  vertex 77.7364 -10.9311 -5.73048
  vertex 77.3079 -10.9428 -5.68699
  endloop
 endfacet

 facet normal -0.309012 -0.246147 0.918653
  outer loop
  vertex 78.1648 -12.9334 -6.22037
  vertex 78.5745 -12.9678 -6.09176
  vertex 78.5745 -10.9772 -5.55841
  endloop
 endfacet

 facet normal -0.308975 -0.246157 0.918662
  outer loop
  vertex 78.1648 -12.9334 -6.22037
  vertex 78.5745 -10.9772 -5.55841
  vertex 78.1648 -10.9428 -5.68699
  endloop
 endfacet

 facet normal -0.500097 -0.224123 0.836463
  outer loop
  vertex 78.5745 -12.9678 -6.09176
  vertex 78.9476 -13.0235 -5.88367
  vertex 78.9476 -11.033 -5.35027
  endloop
 endfacet

 facet normal -0.500154 -0.224102 0.836435
  outer loop
  vertex 78.5745 -12.9678 -6.09176
  vertex 78.9476 -11.033 -5.35027
  vertex 78.5745 -10.9772 -5.55841
  endloop
 endfacet

 facet normal -0.669075 -0.192371 0.717866
  outer loop
  vertex 78.9476 -13.0235 -5.88367
  vertex 79.2678 -13.0982 -5.60525
  vertex 79.2678 -11.1077 -5.07185
  endloop
 endfacet

 facet normal -0.669075 -0.192371 0.717866
  outer loop
  vertex 78.9476 -13.0235 -5.88367
  vertex 79.2678 -11.1077 -5.07185
  vertex 78.9476 -11.033 -5.35027
  endloop
 endfacet

 facet normal -0.808983 -0.152156 0.567799
  outer loop
  vertex 79.2678 -13.0982 -5.60525
  vertex 79.521 -13.1883 -5.26865
  vertex 79.521 -11.1978 -4.73525
  endloop
 endfacet

 facet normal -0.808983 -0.152156 0.567799
  outer loop
  vertex 79.2678 -13.0982 -5.60525
  vertex 79.521 -11.1978 -4.73525
  vertex 79.2678 -11.1077 -5.07185
  endloop
 endfacet

 facet normal -0.913513 -0.1053 0.392946
  outer loop
  vertex 79.521 -13.1883 -5.26865
  vertex 79.6963 -13.2902 -4.88843
  vertex 79.6963 -11.2997 -4.35503
  endloop
 endfacet

 facet normal -0.913513 -0.1053 0.392945
  outer loop
  vertex 79.521 -13.1883 -5.26865
  vertex 79.6963 -11.2997 -4.35503
  vertex 79.521 -11.1978 -4.73525
  endloop
 endfacet

 facet normal -0.97818 -0.053774 0.200678
  outer loop
  vertex 79.6963 -13.2902 -4.88843
  vertex 79.7858 -13.3992 -4.48133
  vertex 79.7858 -11.4088 -3.94803
  endloop
 endfacet

 facet normal -0.978177 -0.0537807 0.200691
  outer loop
  vertex 79.6963 -13.2902 -4.88843
  vertex 79.7858 -11.4088 -3.94803
  vertex 79.6963 -11.2997 -4.35503
  endloop
 endfacet

 facet normal -1 0 0
  outer loop
  vertex 79.7858 -13.3992 -4.48133
  vertex 79.7858 -13.5108 -4.06517
  vertex 79.7858 -11.5203 -3.53189
  endloop
 endfacet

 facet normal -1 0 0
  outer loop
  vertex 79.7858 -13.3992 -4.48133
  vertex 79.7858 -11.5203 -3.53189
  vertex 79.7858 -11.4088 -3.94803
  endloop
 endfacet

 facet normal -0.978183 0.0537632 -0.200669
  outer loop
  vertex 79.7858 -13.5108 -4.06517
  vertex 79.6963 -13.6199 -3.65817
  vertex 79.6963 -11.6293 -3.1248
  endloop
 endfacet

 facet normal -0.978185 0.0537574 -0.200658
  outer loop
  vertex 79.7858 -13.5108 -4.06517
  vertex 79.6963 -11.6293 -3.1248
  vertex 79.7858 -11.5203 -3.53189
  endloop
 endfacet

 facet normal -0.913485 0.105304 -0.393009
  outer loop
  vertex 79.6963 -13.6199 -3.65817
  vertex 79.521 -13.7217 -3.27798
  vertex 79.521 -11.7312 -2.74467
  endloop
 endfacet

 facet normal -0.913482 0.105307 -0.393016
  outer loop
  vertex 79.6963 -13.6199 -3.65817
  vertex 79.521 -11.7312 -2.74467
  vertex 79.6963 -11.6293 -3.1248
  endloop
 endfacet

 facet normal -0.808997 0.152124 -0.567787
  outer loop
  vertex 79.521 -13.7217 -3.27798
  vertex 79.2678 -13.8119 -2.94135
  vertex 79.2678 -11.8214 -2.40807
  endloop
 endfacet

 facet normal -0.808983 0.152134 -0.567805
  outer loop
  vertex 79.521 -13.7217 -3.27798
  vertex 79.2678 -11.8214 -2.40807
  vertex 79.521 -11.7312 -2.74467
  endloop
 endfacet

 facet normal -0.669142 0.192318 -0.717818
  outer loop
  vertex 79.2678 -13.8119 -2.94135
  vertex 78.9476 -13.8866 -2.66293
  vertex 78.9476 -11.896 -2.12956
  endloop
 endfacet

 facet normal -0.669177 0.1923 -0.71779
  outer loop
  vertex 79.2678 -13.8119 -2.94135
  vertex 78.9476 -11.896 -2.12956
  vertex 79.2678 -11.8214 -2.40807
  endloop
 endfacet

 facet normal -0.499869 0.224156 -0.836591
  outer loop
  vertex 78.9476 -13.8866 -2.66293
  vertex 78.5745 -13.9424 -2.45491
  vertex 78.5745 -11.9517 -1.92156
  endloop
 endfacet

 facet normal -0.499841 0.224167 -0.836605
  outer loop
  vertex 78.9476 -13.8866 -2.66293
  vertex 78.5745 -11.9517 -1.92156
  vertex 78.9476 -11.896 -2.12956
  endloop
 endfacet

 facet normal -0.309053 0.246135 -0.918642
  outer loop
  vertex 78.5745 -13.9424 -2.45491
  vertex 78.1648 -13.9768 -2.32633
  vertex 78.1648 -11.9862 -1.79295
  endloop
 endfacet

 facet normal -0.309092 0.246123 -0.918633
  outer loop
  vertex 78.5745 -13.9424 -2.45491
  vertex 78.1648 -11.9862 -1.79295
  vertex 78.5745 -11.9517 -1.92156
  endloop
 endfacet

 facet normal -0.104665 0.257395 -0.960621
  outer loop
  vertex 78.1648 -13.9768 -2.32633
  vertex 77.7364 -13.9884 -2.28274
  vertex 77.7364 -11.9979 -1.74943
  endloop
 endfacet

 facet normal -0.104639 0.257401 -0.960622
  outer loop
  vertex 78.1648 -13.9768 -2.32633
  vertex 77.7364 -11.9979 -1.74943
  vertex 78.1648 -11.9862 -1.79295
  endloop
 endfacet

 facet normal -0.0131289 -0.975462 -0.219776
  outer loop
  vertex 77.9323 -11.6935 -3.12934
  vertex 77.3079 -11.9862 -1.79295
  vertex 76.8982 -11.9517 -1.92156
  endloop
 endfacet

 facet normal -0.0197813 -0.974116 -0.225184
  outer loop
  vertex 77.9323 -11.6935 -3.12934
  vertex 76.8982 -11.9517 -1.92156
  vertex 76.5251 -11.896 -2.12956
  endloop
 endfacet

 facet normal -0.0249012 -0.972388 -0.23204
  outer loop
  vertex 77.9323 -11.6935 -3.12934
  vertex 76.5251 -11.896 -2.12956
  vertex 76.2049 -11.8214 -2.40807
  endloop
 endfacet

 facet normal -0.0279195 -0.970629 -0.238957
  outer loop
  vertex 77.9323 -11.6935 -3.12934
  vertex 76.2049 -11.8214 -2.40807
  vertex 75.9517 -11.7312 -2.74467
  endloop
 endfacet

 facet normal -0.0293499 -0.96879 -0.246141
  outer loop
  vertex 77.9323 -11.6935 -3.12934
  vertex 75.9517 -11.7312 -2.74467
  vertex 75.7764 -11.6293 -3.1248
  endloop
 endfacet

 facet normal -0.0293138 -0.96712 -0.252624
  outer loop
  vertex 77.9323 -11.6935 -3.12934
  vertex 75.7764 -11.6293 -3.1248
  vertex 75.6869 -11.5203 -3.53189
  endloop
 endfacet

 facet normal -0.0281019 -0.965547 -0.258707
  outer loop
  vertex 77.9323 -11.6935 -3.12934
  vertex 75.6869 -11.5203 -3.53189
  vertex 75.6869 -11.4088 -3.94803
  endloop
 endfacet

 facet normal -0.0259632 -0.964149 -0.264087
  outer loop
  vertex 77.9323 -11.6935 -3.12934
  vertex 75.6869 -11.4088 -3.94803
  vertex 75.7764 -11.2997 -4.35503
  endloop
 endfacet

 facet normal -0.02314 -0.962955 -0.268669
  outer loop
  vertex 77.9323 -11.6935 -3.12934
  vertex 75.7764 -11.2997 -4.35503
  vertex 75.9517 -11.1978 -4.73525
  endloop
 endfacet

 facet normal -0.0197744 -0.96195 -0.272509
  outer loop
  vertex 77.9323 -11.6935 -3.12934
  vertex 75.9517 -11.1978 -4.73525
  vertex 76.2049 -11.1077 -5.07185
  endloop
 endfacet

 facet normal -0.0156958 -0.961067 -0.27587
  outer loop
  vertex 77.9323 -11.6935 -3.12934
  vertex 76.2049 -11.1077 -5.07185
  vertex 76.5251 -11.033 -5.35027
  endloop
 endfacet

 facet normal -0.0115438 -0.960422 -0.278309
  outer loop
  vertex 77.9323 -11.6935 -3.12934
  vertex 76.5251 -11.033 -5.35027
  vertex 76.8982 -10.9772 -5.55841
  endloop
 endfacet

 facet normal -0.0072902 -0.959976 -0.279988
  outer loop
  vertex 77.9323 -11.6935 -3.12934
  vertex 76.8982 -10.9772 -5.55841
  vertex 77.3079 -10.9428 -5.68699
  endloop
 endfacet

 facet normal -0.00245982 -0.959681 -0.281081
  outer loop
  vertex 77.9323 -11.6935 -3.12934
  vertex 77.3079 -10.9428 -5.68699
  vertex 77.7364 -10.9311 -5.73048
  endloop
 endfacet

 facet normal 0.0076287 -0.959681 -0.280988
  outer loop
  vertex 77.9323 -11.6935 -3.12934
  vertex 78.1648 -10.9428 -5.68699
  vertex 78.5745 -10.9772 -5.55841
  endloop
 endfacet

 facet normal 0.0124434 -0.959977 -0.279802
  outer loop
  vertex 77.9323 -11.6935 -3.12934
  vertex 78.5745 -10.9772 -5.55841
  vertex 78.9476 -11.033 -5.35027
  endloop
 endfacet

 facet normal 0.017409 -0.960513 -0.277692
  outer loop
  vertex 77.9323 -11.6935 -3.12934
  vertex 78.9476 -11.033 -5.35027
  vertex 79.2678 -11.1077 -5.07185
  endloop
 endfacet

 facet normal 0.0225311 -0.961346 -0.274421
  outer loop
  vertex 77.9323 -11.6935 -3.12934
  vertex 79.2678 -11.1077 -5.07185
  vertex 79.521 -11.1978 -4.73525
  endloop
 endfacet

 facet normal 0.0270182 -0.962395 -0.270306
  outer loop
  vertex 77.9323 -11.6935 -3.12934
  vertex 79.521 -11.1978 -4.73525
  vertex 79.6963 -11.2997 -4.35503
  endloop
 endfacet

 facet normal 0.0309533 -0.963732 -0.265072
  outer loop
  vertex 77.9323 -11.6935 -3.12934
  vertex 79.6963 -11.2997 -4.35503
  vertex 79.7858 -11.4088 -3.94803
  endloop
 endfacet

 facet normal 0.0340375 -0.965369 -0.258659
  outer loop
  vertex 77.9323 -11.6935 -3.12934
  vertex 79.7858 -11.4088 -3.94803
  vertex 79.7858 -11.5203 -3.53189
  endloop
 endfacet

 facet normal 0.035828 -0.967264 -0.25123
  outer loop
  vertex 77.9323 -11.6935 -3.12934
  vertex 79.7858 -11.5203 -3.53189
  vertex 79.6963 -11.6293 -3.1248
  endloop
 endfacet

 facet normal 0.0358814 -0.969296 -0.243265
  outer loop
  vertex 77.9323 -11.6935 -3.12934
  vertex 79.6963 -11.6293 -3.1248
  vertex 79.521 -11.7312 -2.74467
  endloop
 endfacet

 facet normal 0.0337744 -0.971463 -0.234776
  outer loop
  vertex 77.9323 -11.6935 -3.12934
  vertex 79.521 -11.7312 -2.74467
  vertex 79.2678 -11.8214 -2.40807
  endloop
 endfacet

 facet normal 0.0294407 -0.973427 -0.227099
  outer loop
  vertex 77.9323 -11.6935 -3.12934
  vertex 79.2678 -11.8214 -2.40807
  vertex 78.9476 -11.896 -2.12956
  endloop
 endfacet

 facet normal 0.022565 -0.975134 -0.220463
  outer loop
  vertex 77.9323 -11.6935 -3.12934
  vertex 78.9476 -11.896 -2.12956
  vertex 78.5745 -11.9517 -1.92156
  endloop
 endfacet

 facet normal 0.014286 -0.976224 -0.216294
  outer loop
  vertex 77.9323 -11.6935 -3.12934
  vertex 78.5745 -11.9517 -1.92156
  vertex 78.1648 -11.9862 -1.79295
  endloop
 endfacet

 facet normal 0.00494664 -0.976654 -0.214763
  outer loop
  vertex 77.9323 -11.6935 -3.12934
  vertex 78.1648 -11.9862 -1.79295
  vertex 77.7364 -11.9979 -1.74943
  endloop
 endfacet

 facet normal 0.00200406 -0.965906 -0.258884
  outer loop
  vertex 75.6869 -13.3992 -4.48133
  vertex 75.6869 -13.5108 -4.06517
  vertex 74.5794 -14.2706 -1.2386
  endloop
 endfacet

 facet normal 0.00220787 -0.965923 -0.258819
  outer loop
  vertex 75.6869 -13.3992 -4.48133
  vertex 74.5794 -14.2706 -1.2386
  vertex 74.5794 -12.6599 -7.25014
  endloop
 endfacet

 facet normal -0.00938853 -0.965456 -0.260398
  outer loop
  vertex 79.6963 -13.6199 -3.65817
  vertex 79.7858 -13.5108 -4.06517
  vertex 80.5968 -12.6599 -7.25014
  endloop
 endfacet

 facet normal -0.00259224 -0.965922 -0.258819
  outer loop
  vertex 79.6963 -13.6199 -3.65817
  vertex 80.5968 -12.6599 -7.25014
  vertex 80.5968 -14.2706 -1.2386
  endloop
 endfacet

 facet normal 0.000753301 -0.966097 -0.258178
  outer loop
  vertex 74.5794 -12.6599 -7.25014
  vertex 76.2049 -13.0982 -5.60525
  vertex 75.9517 -13.1883 -5.26865
  endloop
 endfacet

 facet normal 0.00100421 -0.966053 -0.258341
  outer loop
  vertex 74.5794 -12.6599 -7.25014
  vertex 75.9517 -13.1883 -5.26865
  vertex 75.7764 -13.2902 -4.88843
  endloop
 endfacet

 facet normal 0.000739395 -0.96575 -0.259472
  outer loop
  vertex 74.5794 -14.2706 -1.2386
  vertex 75.9517 -13.7217 -3.27798
  vertex 76.2049 -13.8119 -2.94135
  endloop
 endfacet

 facet normal 0.00130658 -0.965845 -0.259116
  outer loop
  vertex 74.5794 -14.2706 -1.2386
  vertex 75.7764 -13.6199 -3.65817
  vertex 75.9517 -13.7217 -3.27798
  endloop
 endfacet

 facet normal 0.00126744 -0.96584 -0.259134
  outer loop
  vertex 74.5794 -14.2706 -1.2386
  vertex 75.6869 -13.5108 -4.06517
  vertex 75.7764 -13.6199 -3.65817
  endloop
 endfacet

 facet normal 0.00130021 -0.966016 -0.25848
  outer loop
  vertex 74.5794 -12.6599 -7.25014
  vertex 75.7764 -13.2902 -4.88843
  vertex 75.6869 -13.3992 -4.48133
  endloop
 endfacet

 facet normal -0.000588332 -0.965689 -0.259702
  outer loop
  vertex 80.5968 -14.2706 -1.2386
  vertex 78.9476 -13.8866 -2.66293
  vertex 79.2678 -13.8119 -2.94135
  endloop
 endfacet

 facet normal 0.000539664 -0.965703 -0.25965
  outer loop
  vertex 74.5794 -14.2706 -1.2386
  vertex 76.2049 -13.8119 -2.94135
  vertex 76.5251 -13.8866 -2.66293
  endloop
 endfacet

 facet normal -0.000502638 -0.965664 -0.259795
  outer loop
  vertex 80.5968 -14.2706 -1.2386
  vertex 78.5745 -13.9424 -2.45491
  vertex 78.9476 -13.8866 -2.66293
  endloop
 endfacet

 facet normal 0.000469529 -0.965679 -0.259739
  outer loop
  vertex 74.5794 -14.2706 -1.2386
  vertex 76.5251 -13.8866 -2.66293
  vertex 76.8982 -13.9424 -2.45491
  endloop
 endfacet

 facet normal -0.000486325 -0.965657 -0.25982
  outer loop
  vertex 80.5968 -14.2706 -1.2386
  vertex 78.1648 -13.9768 -2.32633
  vertex 78.5745 -13.9424 -2.45491
  endloop
 endfacet

 facet normal 0.000463055 -0.965676 -0.259751
  outer loop
  vertex 74.5794 -14.2706 -1.2386
  vertex 76.8982 -13.9424 -2.45491
  vertex 77.3079 -13.9768 -2.32633
  endloop
 endfacet

 facet normal -0.000307285 -0.965557 -0.260193
  outer loop
  vertex 80.5968 -14.2706 -1.2386
  vertex 77.7364 -13.9884 -2.28274
  vertex 78.1648 -13.9768 -2.32633
  endloop
 endfacet

 facet normal -0.000840347 -0.966113 -0.258117
  outer loop
  vertex 80.5968 -12.6599 -7.25014
  vertex 79.521 -13.1883 -5.26865
  vertex 79.2678 -13.0982 -5.60525
  endloop
 endfacet

 facet normal -0.000823386 -0.965734 -0.259531
  outer loop
  vertex 80.5968 -14.2706 -1.2386
  vertex 79.2678 -13.8119 -2.94135
  vertex 79.521 -13.7217 -3.27798
  endloop
 endfacet

 facet normal -0.00115392 -0.96607 -0.258276
  outer loop
  vertex 80.5968 -12.6599 -7.25014
  vertex 79.6963 -13.2902 -4.88843
  vertex 79.521 -13.1883 -5.26865
  endloop
 endfacet

 facet normal -0.00149873 -0.965823 -0.259199
  outer loop
  vertex 80.5968 -14.2706 -1.2386
  vertex 79.521 -13.7217 -3.27798
  vertex 79.6963 -13.6199 -3.65817
  endloop
 endfacet

 facet normal -0.00157177 -0.96603 -0.258425
  outer loop
  vertex 80.5968 -12.6599 -7.25014
  vertex 79.7858 -13.3992 -4.48133
  vertex 79.6963 -13.2902 -4.88843
  endloop
 endfacet

 facet normal -0.00372764 -0.965867 -0.259012
  outer loop
  vertex 80.5968 -12.6599 -7.25014
  vertex 79.7858 -13.5108 -4.06517
  vertex 79.7858 -13.3992 -4.48133
  endloop
 endfacet

 facet normal -0.000885831 -0.966104 -0.258152
  outer loop
  vertex 80.5968 -12.6599 -7.25014
  vertex 79.2678 -13.0982 -5.60525
  vertex 78.9476 -13.0235 -5.88367
  endloop
 endfacet

 facet normal 0.000811137 -0.966083 -0.258232
  outer loop
  vertex 74.5794 -12.6599 -7.25014
  vertex 76.5251 -13.0235 -5.88367
  vertex 76.2049 -13.0982 -5.60525
  endloop
 endfacet

 facet normal 0.000385302 -0.966234 -0.257666
  outer loop
  vertex 74.5794 -12.6599 -7.25014
  vertex 76.8982 -12.9678 -6.09176
  vertex 76.5251 -13.0235 -5.88367
  endloop
 endfacet

 facet normal -0.000413176 -0.966247 -0.257619
  outer loop
  vertex 80.5968 -12.6599 -7.25014
  vertex 78.9476 -13.0235 -5.88367
  vertex 78.5745 -12.9678 -6.09176
  endloop
 endfacet

 facet normal 0.000414818 -0.966219 -0.257721
  outer loop
  vertex 74.5794 -12.6599 -7.25014
  vertex 77.3079 -12.9334 -6.22037
  vertex 76.8982 -12.9678 -6.09176
  endloop
 endfacet

 facet normal -0.000436357 -0.966236 -0.257657
  outer loop
  vertex 80.5968 -12.6599 -7.25014
  vertex 78.5745 -12.9678 -6.09176
  vertex 78.1648 -12.9334 -6.22037
  endloop
 endfacet

 facet normal 0.000321798 -0.966281 -0.257491
  outer loop
  vertex 74.5794 -12.6599 -7.25014
  vertex 77.7364 -12.9216 -6.26389
  vertex 77.3079 -12.9334 -6.22037
  endloop
 endfacet

 facet normal 0 -0.000917785 -1
  outer loop
  vertex 74.5764 -9.94676 -7.25263
  vertex 80.5968 -9.94676 -7.25263
  vertex 80.5968 -12.6599 -7.25014
  endloop
 endfacet

 facet normal 0 -0.000917785 -1
  outer loop
  vertex 74.5764 -9.94676 -7.25263
  vertex 80.5968 -12.6599 -7.25014
  vertex 74.5794 -12.6599 -7.25014
  endloop
 endfacet

 facet normal -0.000421684 -0.966856 -0.255323
  outer loop
  vertex 74.5794 -12.6599 -7.25014
  vertex 80.5968 -12.6599 -7.25014
  vertex 78.1648 -12.9334 -6.22037
  endloop
 endfacet

 facet normal -0.000632525 -0.967037 -0.254636
  outer loop
  vertex 74.5794 -12.6599 -7.25014
  vertex 78.1648 -12.9334 -6.22037
  vertex 77.7364 -12.9216 -6.26389
  endloop
 endfacet

 facet normal 0 -0.258826 0.965924
  outer loop
  vertex 74.5818 -11.6675 -0.54107
  vertex 74.5794 -14.2706 -1.2386
  vertex 80.5968 -14.2706 -1.2386
  endloop
 endfacet

 facet normal 0 -0.258826 0.965924
  outer loop
  vertex 74.5818 -11.6675 -0.54107
  vertex 80.5968 -14.2706 -1.2386
  vertex 80.5968 -11.6675 -0.54107
  endloop
 endfacet

 facet normal -0.104556 -0.25742 0.960626
  outer loop
  vertex 77.7364 -12.9216 -6.26389
  vertex 78.1648 -12.9334 -6.22037
  vertex 78.1648 -10.9428 -5.68699
  endloop
 endfacet

 facet normal -0.104514 -0.25743 0.960628
  outer loop
  vertex 77.7364 -12.9216 -6.26389
  vertex 78.1648 -10.9428 -5.68699
  vertex 77.7364 -10.9311 -5.73048
  endloop
 endfacet

 facet normal 0.00010015 -0.965421 -0.260696
  outer loop
  vertex 74.5794 -14.2706 -1.2386
  vertex 77.3079 -13.9768 -2.32633
  vertex 77.7364 -13.9884 -2.28274
  endloop
 endfacet

 facet normal 0 -0.965345 -0.260978
  outer loop
  vertex 74.5794 -14.2706 -1.2386
  vertex 77.7364 -13.9884 -2.28274
  vertex 80.5968 -14.2706 -1.2386
  endloop
 endfacet

 facet normal 0.00249799 -0.95958 -0.281425
  outer loop
  vertex 77.7364 -10.9311 -5.73048
  vertex 78.1648 -10.9428 -5.68699
  vertex 77.9323 -11.6935 -3.12934
  endloop
 endfacet

 facet normal 0.104669 0.257389 -0.960622
  outer loop
  vertex 77.3079 -13.9768 -2.32633
  vertex 77.3079 -11.9862 -1.79295
  vertex 77.7364 -11.9979 -1.74943
  endloop
 endfacet

 facet normal 0.104695 0.257383 -0.960621
  outer loop
  vertex 77.3079 -13.9768 -2.32633
  vertex 77.7364 -11.9979 -1.74943
  vertex 77.7364 -13.9884 -2.28274
  endloop
 endfacet

 facet normal -0.00480355 -0.976363 -0.216083
  outer loop
  vertex 77.3079 -11.9862 -1.79295
  vertex 77.9323 -11.6935 -3.12934
  vertex 77.7364 -11.9979 -1.74943
  endloop
 endfacet

 facet normal -0.335687 -0.243518 0.909952
  outer loop
  vertex 74.5794 -14.2706 -1.2386
  vertex 74.5818 -11.6675 -0.54107
  vertex 67.6223 -8.97318 -2.38743
  endloop
 endfacet

 facet normal -0.0113586 -0.0876676 0.996085
  outer loop
  vertex 16.4302 -9.30864 -3.00071
  vertex 67.6229 -13.681 -3.43919
  vertex 67.6223 -8.97318 -2.38743
  endloop
 endfacet

 facet normal -0.0118326 -0.0219192 0.99969
  outer loop
  vertex 16.4302 -9.30864 -3.00071
  vertex 67.6223 -8.97318 -2.38743
  vertex 15.1624 -2.63682 -2.86943
  endloop
 endfacet

 facet normal -0.0760694 -0.954563 -0.288138
  outer loop
  vertex 16.4302 -9.30864 -3.00071
  vertex 3.2634 -8.21063 -7.24077
  vertex 74.5794 -12.6599 -7.25014
  endloop
 endfacet

 facet normal -0.0815615 -0.915412 -0.394168
  outer loop
  vertex 16.4302 -9.30864 -3.00071
  vertex 74.5794 -12.6599 -7.25014
  vertex 67.6229 -13.681 -3.43919
  endloop
 endfacet

 facet normal 0.113505 0.990446 -0.0783104
  outer loop
  vertex 19.2158 -3.81049 -7.25271
  vertex 15.1624 -2.63682 -2.86943
  vertex 67.6223 -8.97318 -2.38743
  endloop
 endfacet

 facet normal 0.110073 0.993061 -0.0413894
  outer loop
  vertex 19.2158 -3.81049 -7.25271
  vertex 67.6223 -8.97318 -2.38743
  vertex 74.5764 -9.94676 -7.25263
  endloop
 endfacet

 facet normal -0.000196952 -0.00125847 -0.999999
  outer loop
  vertex 3.2634 -8.21063 -7.24077
  vertex 19.2158 -3.81049 -7.25271
  vertex 74.5764 -9.94676 -7.25263
  endloop
 endfacet

 facet normal -0.000188663 -0.000917994 -1
  outer loop
  vertex 3.2634 -8.21063 -7.24077
  vertex 74.5764 -9.94676 -7.25263
  vertex 74.5794 -12.6599 -7.25014
  endloop
 endfacet

 facet normal 1.06773e-06 -0.965926 -0.258819
  outer loop
  vertex 67.6229 -13.681 -3.43919
  vertex 74.5794 -12.6599 -7.25014
  vertex 74.5794 -14.2706 -1.2386
  endloop
 endfacet

 facet normal -0.310982 -0.207259 0.927542
  outer loop
  vertex 67.6223 -8.97318 -2.38743
  vertex 67.6229 -13.681 -3.43919
  vertex 74.5794 -14.2706 -1.2386
  endloop
 endfacet

 facet normal 0 0.965924 0.258824
  outer loop
  vertex 3.261 -1.73432 0.19428
  vertex 3.1244 -2.07395 1.46177
  vertex 11.9907 -2.07395 1.46177
  endloop
 endfacet

 facet normal 0 0.965925 0.258824
  outer loop
  vertex 3.261 -1.73432 0.19428
  vertex 11.9907 -2.07395 1.46177
  vertex 13.0029 -1.73432 0.19428
  endloop
 endfacet

 facet normal -0.996604 0.0248095 -0.078518
  outer loop
  vertex 3.261 -1.73432 0.19428
  vertex 3.2617 -9.06934 -4.03602
  vertex 3.1232 -9.97393 -0.66016
  endloop
 endfacet

 facet normal -0.994625 0.0269998 -0.0999581
  outer loop
  vertex 3.261 -1.73432 0.19428
  vertex 3.1232 -9.97393 -0.66016
  vertex 3.1244 -2.07395 1.46177
  endloop
 endfacet

 facet normal 0.594458 -0.155009 0.789045
  outer loop
  vertex 13.0029 -1.73432 0.19428
  vertex 11.9907 -2.07395 1.46177
  vertex 11.9885 -9.97393 -0.66016
  endloop
 endfacet

 facet normal 0.47834 -0.148642 0.865503
  outer loop
  vertex 13.0029 -1.73432 0.19428
  vertex 11.9885 -9.97393 -0.66016
  vertex 16.4302 -9.30864 -3.00071
  endloop
 endfacet

 facet normal 0.00116702 -0.965165 -0.261641
  outer loop
  vertex 3.2617 -9.06934 -4.03602
  vertex 16.4302 -9.30864 -3.00071
  vertex 11.9885 -9.97393 -0.66016
  endloop
 endfacet

 facet normal 0 -0.965924 -0.258828
  outer loop
  vertex 3.2617 -9.06934 -4.03602
  vertex 11.9885 -9.97393 -0.66016
  vertex 3.1232 -9.97393 -0.66016
  endloop
 endfacet

 facet normal 0.00696675 0.978632 -0.205502
  outer loop
  vertex 3.2609 -2.11443 -1.06008
  vertex 13.8813 -2.15104 -1.05027
  vertex 14.3348 -2.32583 -1.69138
  endloop
 endfacet

 facet normal 0.00865731 0.984053 -0.177663
  outer loop
  vertex 3.2609 -2.11443 -1.06008
  vertex 14.3348 -2.32583 -1.69138
  vertex 3.2607 -2.2329 -1.71628
  endloop
 endfacet

 facet normal 0.00237522 0.951752 -0.306858
  outer loop
  vertex 3.2609 -2.11443 -1.06008
  vertex 3.261 -1.73432 0.19428
  vertex 13.0029 -1.73432 0.19428
  endloop
 endfacet

 facet normal 0.00356255 0.949003 -0.315246
  outer loop
  vertex 3.2609 -2.11443 -1.06008
  vertex 13.0029 -1.73432 0.19428
  vertex 13.8813 -2.15104 -1.05027
  endloop
 endfacet

 facet normal 0.041611 0.987693 0.150769
  outer loop
  vertex 3.2609 -2.20268 -2.42878
  vertex 14.8054 -2.50028 -2.34903
  vertex 15.1624 -2.63682 -2.86943
  endloop
 endfacet

 facet normal 0.0467548 0.940703 0.335994
  outer loop
  vertex 3.2609 -2.20268 -2.42878
  vertex 15.1624 -2.63682 -2.86943
  vertex 3.2611 -1.9827 -3.0447
  endloop
 endfacet

 facet normal 0.0207297 0.989048 -0.146132
  outer loop
  vertex 3.2609 -2.20268 -2.42878
  vertex 3.2607 -2.2329 -1.71628
  vertex 14.3348 -2.32583 -1.69138
  endloop
 endfacet

 facet normal 0.0266727 0.970794 -0.238429
  outer loop
  vertex 3.2609 -2.20268 -2.42878
  vertex 14.3348 -2.32583 -1.69138
  vertex 14.8054 -2.50028 -2.34903
  endloop
 endfacet

 facet normal -1 -7.07329e-05 -9.94657e-05
  outer loop
  vertex 3.2617 -9.06934 -4.03602
  vertex 3.2611 -1.9827 -3.0447
  vertex 3.2612 -1.52838 -4.37212
  endloop
 endfacet

 facet normal -1 -3.73498e-05 -0.000338111
  outer loop
  vertex 3.2617 -9.06934 -4.03602
  vertex 3.2609 -2.20268 -2.42878
  vertex 3.2611 -1.9827 -3.0447
  endloop
 endfacet

 facet normal -1 -5.02773e-05 -0.000282881
  outer loop
  vertex 3.2617 -9.06934 -4.03602
  vertex 3.2607 -2.2329 -1.71628
  vertex 3.2609 -2.20268 -2.42878
  endloop
 endfacet

 facet normal -1 -0.000265996 0.000352858
  outer loop
  vertex 3.2617 -9.06934 -4.03602
  vertex 3.2609 -2.11443 -1.06008
  vertex 3.2607 -2.2329 -1.71628
  endloop
 endfacet

 facet normal -1 -0.0001713 0.000131549
  outer loop
  vertex 3.2617 -9.06934 -4.03602
  vertex 3.261 -1.73432 0.19428
  vertex 3.2609 -2.11443 -1.06008
  endloop
 endfacet

 facet normal 0.833221 0.147847 0.532808
  outer loop
  vertex 16.4302 -9.30864 -3.00071
  vertex 15.1624 -2.63682 -2.86943
  vertex 14.8054 -2.50028 -2.34903
  endloop
 endfacet

 facet normal 0.82244 0.143588 0.550432
  outer loop
  vertex 16.4302 -9.30864 -3.00071
  vertex 14.8054 -2.50028 -2.34903
  vertex 14.3348 -2.32583 -1.69138
  endloop
 endfacet

 facet normal 0.825979 0.145756 0.544531
  outer loop
  vertex 16.4302 -9.30864 -3.00071
  vertex 14.3348 -2.32583 -1.69138
  vertex 13.8813 -2.15104 -1.05027
  endloop
 endfacet

 facet normal 0.830716 0.149717 0.536186
  outer loop
  vertex 16.4302 -9.30864 -3.00071
  vertex 13.8813 -2.15104 -1.05027
  vertex 13.0029 -1.73432 0.19428
  endloop
 endfacet

 facet normal 0.0471792 0.945065 0.32346
  outer loop
  vertex 15.1624 -2.63682 -2.86943
  vertex 3.2612 -1.52838 -4.37212
  vertex 3.2611 -1.9827 -3.0447
  endloop
 endfacet

 facet normal 0.163581 0.955621 0.245008
  outer loop
  vertex 67.6223 -8.97318 -2.38743
  vertex 80.5968 -11.6675 -0.54107
  vertex 80.5968 -9.94676 -7.25263
  endloop
 endfacet

 facet normal 0 0.98056 -0.196221
  outer loop
  vertex 74.5764 -9.94676 -7.25263
  vertex 67.6223 -8.97318 -2.38743
  vertex 80.5968 -9.94676 -7.25263
  endloop
 endfacet

 facet normal 0 0.565282 0.824897
  outer loop
  vertex 74.5818 -11.6675 -0.54107
  vertex 80.5968 -11.6675 -0.54107
  vertex 67.6223 -8.97318 -2.38743
  endloop
 endfacet

 facet normal 0.00279532 -0.965923 -0.258816
  outer loop
  vertex 3.2634 -8.21063 -7.24077
  vertex 16.4302 -9.30864 -3.00071
  vertex 3.2617 -9.06934 -4.03602
  endloop
 endfacet

 facet normal 0.101152 -0.00256544 -0.994868
  outer loop
  vertex -0.67 -8.87795 -4.6976
  vertex -0.9746 -8.87004 -4.72757
  vertex -0.9746 -5.41084 -4.73751
  endloop
 endfacet

 facet normal 0.102805 -0.00241828 -0.994699
  outer loop
  vertex -0.67 -8.87795 -4.6976
  vertex -0.9746 -5.41084 -4.73751
  vertex -0.67 -5.41048 -4.70603
  endloop
 endfacet

 facet normal 0.298778 -0.00313235 -0.954318
  outer loop
  vertex -0.9746 -8.87004 -4.72757
  vertex -1.2674 -8.84677 -4.81652
  vertex -1.2674 -5.41197 -4.83059
  endloop
 endfacet

 facet normal 0.302965 -0.00273848 -0.952998
  outer loop
  vertex -0.9746 -8.87004 -4.72757
  vertex -1.2674 -5.41197 -4.83059
  vertex -0.9746 -5.41084 -4.73751
  endloop
 endfacet

 facet normal 0.482703 -0.00417837 -0.875774
  outer loop
  vertex -1.2674 -8.84677 -4.81652
  vertex -1.5373 -8.80895 -4.96093
  vertex -1.5373 -5.41383 -4.98166
  endloop
 endfacet

 facet normal 0.488436 -0.00357454 -0.872592
  outer loop
  vertex -1.2674 -8.84677 -4.81652
  vertex -1.5373 -5.41383 -4.98166
  vertex -1.2674 -5.41197 -4.83059
  endloop
 endfacet

 facet normal 0.645888 -0.0053901 -0.763413
  outer loop
  vertex -1.5373 -8.80895 -4.96093
  vertex -1.7739 -8.7581 -5.15521
  vertex -1.7739 -5.41626 -5.18506
  endloop
 endfacet

 facet normal 0.65192 -0.00462989 -0.758274
  outer loop
  vertex -1.5373 -8.80895 -4.96093
  vertex -1.7739 -5.41626 -5.18506
  vertex -1.5373 -5.41383 -4.98166
  endloop
 endfacet

 facet normal 0.782378 -0.00631485 -0.622771
  outer loop
  vertex -1.7739 -8.7581 -5.15521
  vertex -1.968 -8.69618 -5.392
  vertex -1.968 -5.41931 -5.43291
  endloop
 endfacet

 facet normal 0.787325 -0.00550683 -0.616514
  outer loop
  vertex -1.7739 -8.7581 -5.15521
  vertex -1.968 -5.41931 -5.43291
  vertex -1.7739 -5.41626 -5.18506
  endloop
 endfacet

 facet normal 0.88758 -0.00641754 -0.460609
  outer loop
  vertex -1.968 -8.69618 -5.392
  vertex -2.1123 -8.62538 -5.66213
  vertex -2.1123 -5.42271 -5.71567
  endloop
 endfacet

 facet normal 0.890731 -0.0056741 -0.454495
  outer loop
  vertex -1.968 -8.69618 -5.392
  vertex -2.1123 -5.42271 -5.71567
  vertex -1.968 -5.41931 -5.43291
  endloop
 endfacet

 facet normal 0.959277 -0.00519092 -0.282418
  outer loop
  vertex -2.1123 -8.62538 -5.66213
  vertex -2.2011 -8.54874 -5.95526
  vertex -2.2011 -5.42647 -6.02255
  endloop
 endfacet

 facet normal 0.960597 -0.00464586 -0.277906
  outer loop
  vertex -2.1123 -8.62538 -5.66213
  vertex -2.2011 -5.42647 -6.02255
  vertex -2.1123 -5.42271 -5.71567
  endloop
 endfacet

 facet normal 0.99545 -0.00222673 -0.0952623
  outer loop
  vertex -2.2011 -8.54874 -5.95526
  vertex -2.2311 -8.46892 -6.2601
  vertex -2.2311 -5.43028 -6.34164
  endloop
 endfacet

 facet normal 0.99561 -0.00201682 -0.0935805
  outer loop
  vertex -2.2011 -8.54874 -5.95526
  vertex -2.2311 -5.43028 -6.34164
  vertex -2.2011 -5.42647 -6.02255
  endloop
 endfacet

 facet normal 0.995444 0.00274095 0.0953103
  outer loop
  vertex -2.2311 -8.46892 -6.2601
  vertex -2.2011 -8.3891 -6.56495
  vertex -2.2011 -5.43419 -6.6607
  endloop
 endfacet

 facet normal 0.995608 0.00251123 0.0935825
  outer loop
  vertex -2.2311 -8.46892 -6.2601
  vertex -2.2011 -5.43419 -6.6607
  vertex -2.2311 -5.43028 -6.34164
  endloop
 endfacet

 facet normal 0.95912 0.00972023 0.282832
  outer loop
  vertex -2.2011 -8.3891 -6.56495
  vertex -2.1123 -8.31233 -6.858
  vertex -2.1123 -5.43783 -6.96751
  endloop
 endfacet

 facet normal 0.960565 0.00900529 0.27791
  outer loop
  vertex -2.2011 -8.3891 -6.56495
  vertex -2.1123 -5.43783 -6.96751
  vertex -2.2011 -5.43419 -6.6607
  endloop
 endfacet

 facet normal 0.843729 0.0159658 0.536532
  outer loop
  vertex -2.1123 -8.31233 -6.858
  vertex -1.968 -8.24166 -7.1282
  vertex -1.9172 -5.44132 -7.25024
  endloop
 endfacet

 facet normal 0.82299 0.0216256 0.567644
  outer loop
  vertex -2.1123 -8.31233 -6.858
  vertex -1.9172 -5.44132 -7.25024
  vertex -2.1123 -5.43783 -6.96751
  endloop
 endfacet

 facet normal -0.843302 0.0125781 0.537292
  outer loop
  vertex 0.628 -8.24166 -7.1282
  vertex 0.7722 -8.31233 -6.858
  vertex 0.7722 -5.43783 -6.96751
  endloop
 endfacet

 facet normal -0.823211 0.00980486 0.567651
  outer loop
  vertex 0.628 -8.24166 -7.1282
  vertex 0.7722 -5.43783 -6.96751
  vertex 0.5772 -5.44132 -7.25024
  endloop
 endfacet

 facet normal -0.959159 0.0102148 0.282684
  outer loop
  vertex 0.7722 -8.31233 -6.858
  vertex 0.861 -8.3891 -6.56495
  vertex 0.861 -5.43419 -6.6607
  endloop
 endfacet

 facet normal -0.960555 0.0105867 0.277888
  outer loop
  vertex 0.7722 -8.31233 -6.858
  vertex 0.861 -5.43419 -6.6607
  vertex 0.7722 -5.43783 -6.96751
  endloop
 endfacet

 facet normal -0.995448 0.00290363 0.0952582
  outer loop
  vertex 0.861 -8.3891 -6.56495
  vertex 0.891 -8.46892 -6.2601
  vertex 0.891 -5.43028 -6.34164
  endloop
 endfacet

 facet normal -0.995608 0.0030322 0.093576
  outer loop
  vertex 0.861 -8.3891 -6.56495
  vertex 0.891 -5.43028 -6.34164
  vertex 0.861 -5.43419 -6.6607
  endloop
 endfacet

 facet normal -0.995454 -0.00238156 -0.095213
  outer loop
  vertex 0.891 -8.46892 -6.2601
  vertex 0.861 -8.54874 -5.95526
  vertex 0.861 -5.42647 -6.02255
  endloop
 endfacet

 facet normal -0.995609 -0.00251102 -0.0935745
  outer loop
  vertex 0.891 -8.46892 -6.2601
  vertex 0.861 -5.42647 -6.02255
  vertex 0.891 -5.43028 -6.34164
  endloop
 endfacet

 facet normal -0.959311 -0.00561484 -0.282294
  outer loop
  vertex 0.861 -8.54874 -5.95526
  vertex 0.7722 -8.62538 -5.66213
  vertex 0.7722 -5.42271 -5.71567
  endloop
 endfacet

 facet normal -0.960595 -0.00598897 -0.277888
  outer loop
  vertex 0.861 -8.54874 -5.95526
  vertex 0.7722 -5.42271 -5.71567
  vertex 0.861 -5.42647 -6.02255
  endloop
 endfacet

 facet normal -0.887784 -0.00702727 -0.460207
  outer loop
  vertex 0.7722 -8.62538 -5.66213
  vertex 0.628 -8.69618 -5.392
  vertex 0.628 -5.41931 -5.43291
  endloop
 endfacet

 facet normal -0.890857 -0.00759339 -0.454221
  outer loop
  vertex 0.7722 -8.62538 -5.66213
  vertex 0.628 -5.41931 -5.43291
  vertex 0.7722 -5.42271 -5.71567
  endloop
 endfacet

 facet normal -0.782322 -0.00702377 -0.622835
  outer loop
  vertex 0.628 -8.69618 -5.392
  vertex 0.4338 -8.7581 -5.15521
  vertex 0.4338 -5.41626 -5.18506
  endloop
 endfacet

 facet normal -0.787172 -0.00769895 -0.616685
  outer loop
  vertex 0.628 -8.69618 -5.392
  vertex 0.4338 -5.41626 -5.18506
  vertex 0.628 -5.41931 -5.43291
  endloop
 endfacet

 facet normal -0.646145 -0.00608848 -0.76319
  outer loop
  vertex 0.4338 -8.7581 -5.15521
  vertex 0.1973 -8.80895 -4.96093
  vertex 0.1973 -5.41383 -4.98166
  endloop
 endfacet

 facet normal -0.652083 -0.00677166 -0.758117
  outer loop
  vertex 0.4338 -8.7581 -5.15521
  vertex 0.1973 -5.41383 -4.98166
  vertex 0.4338 -5.41626 -5.18506
  endloop
 endfacet

 facet normal -0.482771 -0.00475635 -0.875733
  outer loop
  vertex 0.1973 -8.80895 -4.96093
  vertex -0.0726 -8.84677 -4.81652
  vertex -0.0726 -5.41197 -4.83059
  endloop
 endfacet

 facet normal -0.488441 -0.00532783 -0.87258
  outer loop
  vertex 0.1973 -8.80895 -4.96093
  vertex -0.0726 -5.41197 -4.83059
  vertex 0.1973 -5.41383 -4.98166
  endloop
 endfacet

 facet normal -0.298715 -0.00351932 -0.954336
  outer loop
  vertex -0.0726 -8.84677 -4.81652
  vertex -0.3655 -8.87004 -4.72757
  vertex -0.3655 -5.41084 -4.73751
  endloop
 endfacet

 facet normal -0.302874 -0.00390402 -0.953023
  outer loop
  vertex -0.0726 -8.84677 -4.81652
  vertex -0.3655 -5.41084 -4.73751
  vertex -0.0726 -5.41197 -4.83059
  endloop
 endfacet

 facet normal -0.101189 -0.00271203 -0.994864
  outer loop
  vertex -0.3655 -8.87004 -4.72757
  vertex -0.67 -8.87795 -4.6976
  vertex -0.67 -5.41048 -4.70603
  endloop
 endfacet

 facet normal -0.102838 -0.00285829 -0.994694
  outer loop
  vertex -0.3655 -8.87004 -4.72757
  vertex -0.67 -5.41048 -4.70603
  vertex -0.3655 -5.41084 -4.73751
  endloop
 endfacet

 facet normal -6.91965e-05 -0.999927 0.0121048
  outer loop
  vertex -0.67 -5.43028 -6.34164
  vertex -0.67 -5.41048 -4.70603
  vertex -0.9746 -5.41084 -4.73751
  endloop
 endfacet

 facet normal 6.70847e-06 -0.999927 0.0121192
  outer loop
  vertex -0.67 -5.43028 -6.34164
  vertex -0.9746 -5.41084 -4.73751
  vertex -1.2674 -5.41197 -4.83059
  endloop
 endfacet

 facet normal 8.82331e-05 -0.999926 0.0121514
  outer loop
  vertex -0.67 -5.43028 -6.34164
  vertex -1.2674 -5.41197 -4.83059
  vertex -1.5373 -5.41383 -4.98166
  endloop
 endfacet

 facet normal -8.29247e-05 -0.999927 0.0120423
  outer loop
  vertex -0.67 -5.43028 -6.34164
  vertex -1.5373 -5.41383 -4.98166
  vertex -1.7739 -5.41626 -5.18506
  endloop
 endfacet

 facet normal 0.000106361 -0.999925 0.0122229
  outer loop
  vertex -0.67 -5.43028 -6.34164
  vertex -1.7739 -5.41626 -5.18506
  vertex -1.968 -5.41931 -5.43291
  endloop
 endfacet

 facet normal -2.48232e-05 -0.999928 0.0120356
  outer loop
  vertex -0.67 -5.43028 -6.34164
  vertex -1.968 -5.41931 -5.43291
  vertex -2.1123 -5.42271 -5.71567
  endloop
 endfacet

 facet normal 6.10078e-05 -0.999925 0.0122333
  outer loop
  vertex -0.67 -5.43028 -6.34164
  vertex -2.1123 -5.42271 -5.71567
  vertex -2.2011 -5.42647 -6.02255
  endloop
 endfacet

 facet normal 0 -0.999929 0.0119406
  outer loop
  vertex -0.67 -5.43028 -6.34164
  vertex -2.2011 -5.42647 -6.02255
  vertex -2.2311 -5.43028 -6.34164
  endloop
 endfacet

 facet normal 0 -0.999925 0.0122525
  outer loop
  vertex -0.67 -5.43028 -6.34164
  vertex -2.2311 -5.43028 -6.34164
  vertex -2.2011 -5.43419 -6.6607
  endloop
 endfacet

 facet normal 7.64235e-05 -0.999929 0.0118859
  outer loop
  vertex -0.67 -5.43028 -6.34164
  vertex -2.2011 -5.43419 -6.6607
  vertex -2.1123 -5.43783 -6.96751
  endloop
 endfacet

 facet normal -9.38381e-05 -0.999925 0.0122782
  outer loop
  vertex -0.67 -5.43028 -6.34164
  vertex -2.1123 -5.43783 -6.96751
  vertex -1.9172 -5.44132 -7.25024
  endloop
 endfacet

 facet normal 0 -0.999926 0.0121494
  outer loop
  vertex -0.67 -5.43028 -6.34164
  vertex -1.9172 -5.44132 -7.25024
  vertex 0.5772 -5.44132 -7.25024
  endloop
 endfacet

 facet normal 9.38542e-05 -0.999925 0.0122782
  outer loop
  vertex -0.67 -5.43028 -6.34164
  vertex 0.5772 -5.44132 -7.25024
  vertex 0.7722 -5.43783 -6.96751
  endloop
 endfacet

 facet normal -7.64283e-05 -0.999929 0.0118859
  outer loop
  vertex -0.67 -5.43028 -6.34164
  vertex 0.7722 -5.43783 -6.96751
  vertex 0.861 -5.43419 -6.6607
  endloop
 endfacet

 facet normal 0 -0.999925 0.0122525
  outer loop
  vertex -0.67 -5.43028 -6.34164
  vertex 0.861 -5.43419 -6.6607
  vertex 0.891 -5.43028 -6.34164
  endloop
 endfacet

 facet normal 0 -0.999929 0.0119406
  outer loop
  vertex -0.67 -5.43028 -6.34164
  vertex 0.891 -5.43028 -6.34164
  vertex 0.861 -5.42647 -6.02255
  endloop
 endfacet

 facet normal -6.10116e-05 -0.999925 0.0122333
  outer loop
  vertex -0.67 -5.43028 -6.34164
  vertex 0.861 -5.42647 -6.02255
  vertex 0.7722 -5.42271 -5.71567
  endloop
 endfacet

 facet normal 2.48278e-05 -0.999928 0.0120356
  outer loop
  vertex -0.67 -5.43028 -6.34164
  vertex 0.7722 -5.42271 -5.71567
  vertex 0.628 -5.41931 -5.43291
  endloop
 endfacet

 facet normal -0.000106341 -0.999925 0.0122229
  outer loop
  vertex -0.67 -5.43028 -6.34164
  vertex 0.628 -5.41931 -5.43291
  vertex 0.4338 -5.41626 -5.18506
  endloop
 endfacet

 facet normal 8.29473e-05 -0.999928 0.0120423
  outer loop
  vertex -0.67 -5.43028 -6.34164
  vertex 0.4338 -5.41626 -5.18506
  vertex 0.1973 -5.41383 -4.98166
  endloop
 endfacet

 facet normal -8.82331e-05 -0.999926 0.0121514
  outer loop
  vertex -0.67 -5.43028 -6.34164
  vertex 0.1973 -5.41383 -4.98166
  vertex -0.0726 -5.41197 -4.83059
  endloop
 endfacet

 facet normal -6.70643e-06 -0.999927 0.0121192
  outer loop
  vertex -0.67 -5.43028 -6.34164
  vertex -0.0726 -5.41197 -4.83059
  vertex -0.3655 -5.41084 -4.73751
  endloop
 endfacet

 facet normal 6.92192e-05 -0.999927 0.0121048
  outer loop
  vertex -0.67 -5.43028 -6.34164
  vertex -0.3655 -5.41084 -4.73751
  vertex -0.67 -5.41048 -4.70603
  endloop
 endfacet

 facet normal 0 -0.000763433 -1
  outer loop
  vertex 0.5772 -5.44132 -7.25024
  vertex -1.9172 -5.44132 -7.25024
  vertex -4.3577 -2.29773 -7.25264
  endloop
 endfacet

 facet normal 0 -0.000763433 -1
  outer loop
  vertex 0.5772 -5.44132 -7.25024
  vertex -4.3577 -2.29773 -7.25264
  vertex 3.2662 -2.29773 -7.25264
  endloop
 endfacet

 facet normal -0.0121441 -0.0155414 -0.999805
  outer loop
  vertex 0.628 -8.24166 -7.1282
  vertex 0.5772 -5.44132 -7.25024
  vertex 3.2662 -2.29773 -7.25264
  endloop
 endfacet

 facet normal -0.0426522 -0.00198543 -0.999088
  outer loop
  vertex 0.628 -8.24166 -7.1282
  vertex 3.2662 -2.29773 -7.25264
  vertex 3.2634 -8.21063 -7.24077
  endloop
 endfacet

 facet normal 0.014418 -0.0161233 -0.999766
  outer loop
  vertex -1.9172 -5.44132 -7.25024
  vertex -1.968 -8.24166 -7.1282
  vertex -4.3574 -8.21063 -7.24077
  endloop
 endfacet

 facet normal -0.00160252 -0.00200753 -0.999997
  outer loop
  vertex -1.9172 -5.44132 -7.25024
  vertex -4.3574 -8.21063 -7.24077
  vertex -4.3577 -2.29773 -7.25264
  endloop
 endfacet

 facet normal 0.00190584 -0.957724 -0.287684
  outer loop
  vertex -0.9746 -8.87004 -4.72757
  vertex -0.67 -8.87795 -4.6976
  vertex 3.2617 -9.06934 -4.03602
  endloop
 endfacet

 facet normal 0 -0.960892 -0.276922
  outer loop
  vertex -0.9746 -8.87004 -4.72757
  vertex 3.2617 -9.06934 -4.03602
  vertex -4.3831 -9.06934 -4.03602
  endloop
 endfacet

 facet normal 0.00417431 -0.96615 -0.257949
  outer loop
  vertex -2.1123 -8.62538 -5.66213
  vertex -1.968 -8.69618 -5.392
  vertex -4.3831 -9.06934 -4.03602
  endloop
 endfacet

 facet normal 0.00352774 -0.965927 -0.258791
  outer loop
  vertex -2.1123 -8.62538 -5.66213
  vertex -4.3831 -9.06934 -4.03602
  vertex -4.3574 -8.21063 -7.24077
  endloop
 endfacet

 facet normal -0.00220839 -0.966419 -0.256963
  outer loop
  vertex 0.628 -8.69618 -5.392
  vertex 0.7722 -8.62538 -5.66213
  vertex 3.2634 -8.21063 -7.24077
  endloop
 endfacet

 facet normal -0.00360271 -0.965919 -0.258819
  outer loop
  vertex 0.628 -8.69618 -5.392
  vertex 3.2634 -8.21063 -7.24077
  vertex 3.2617 -9.06934 -4.03602
  endloop
 endfacet

 facet normal -0.000626895 -0.967375 -0.253349
  outer loop
  vertex -4.3574 -8.21063 -7.24077
  vertex -1.968 -8.24166 -7.1282
  vertex -2.1123 -8.31233 -6.858
  endloop
 endfacet

 facet normal -0.000584266 -0.967314 -0.253583
  outer loop
  vertex -4.3574 -8.21063 -7.24077
  vertex -2.1123 -8.31233 -6.858
  vertex -2.2011 -8.3891 -6.56495
  endloop
 endfacet

 facet normal -0.000660646 -0.967373 -0.253355
  outer loop
  vertex -4.3574 -8.21063 -7.24077
  vertex -2.2011 -8.3891 -6.56495
  vertex -2.2311 -8.46892 -6.2601
  endloop
 endfacet

 facet normal -0.000718009 -0.967404 -0.253238
  outer loop
  vertex -4.3574 -8.21063 -7.24077
  vertex -2.2311 -8.46892 -6.2601
  vertex -2.2011 -8.54874 -5.95526
  endloop
 endfacet

 facet normal -0.00110169 -0.967561 -0.252636
  outer loop
  vertex -4.3574 -8.21063 -7.24077
  vertex -2.2011 -8.54874 -5.95526
  vertex -2.1123 -8.62538 -5.66213
  endloop
 endfacet

 facet normal 0.000569696 -0.967382 -0.25332
  outer loop
  vertex 3.2634 -8.21063 -7.24077
  vertex 0.7722 -8.31233 -6.858
  vertex 0.628 -8.24166 -7.1282
  endloop
 endfacet

 facet normal 0.000529118 -0.967318 -0.253567
  outer loop
  vertex 3.2634 -8.21063 -7.24077
  vertex 0.861 -8.3891 -6.56495
  vertex 0.7722 -8.31233 -6.858
  endloop
 endfacet

 facet normal 0.000594794 -0.967375 -0.253349
  outer loop
  vertex 3.2634 -8.21063 -7.24077
  vertex 0.891 -8.46892 -6.2601
  vertex 0.861 -8.3891 -6.56495
  endloop
 endfacet

 facet normal 0.000640367 -0.967402 -0.253246
  outer loop
  vertex 3.2634 -8.21063 -7.24077
  vertex 0.861 -8.54874 -5.95526
  vertex 0.891 -8.46892 -6.2601
  endloop
 endfacet

 facet normal 0.000966986 -0.967551 -0.252674
  outer loop
  vertex 3.2634 -8.21063 -7.24077
  vertex 0.7722 -8.62538 -5.66213
  vertex 0.861 -8.54874 -5.95526
  endloop
 endfacet

 facet normal 0.00509127 -0.966428 -0.256888
  outer loop
  vertex -4.3831 -9.06934 -4.03602
  vertex -1.968 -8.69618 -5.392
  vertex -1.7739 -8.7581 -5.15521
  endloop
 endfacet

 facet normal 0.00445152 -0.96606 -0.258278
  outer loop
  vertex -4.3831 -9.06934 -4.03602
  vertex -1.7739 -8.7581 -5.15521
  vertex -1.5373 -8.80895 -4.96093
  endloop
 endfacet

 facet normal 0.00383386 -0.965589 -0.260045
  outer loop
  vertex -4.3831 -9.06934 -4.03602
  vertex -1.5373 -8.80895 -4.96093
  vertex -1.2674 -8.84677 -4.81652
  endloop
 endfacet

 facet normal 0.00312075 -0.964876 -0.262689
  outer loop
  vertex -4.3831 -9.06934 -4.03602
  vertex -1.2674 -8.84677 -4.81652
  vertex -0.9746 -8.87004 -4.72757
  endloop
 endfacet

 facet normal -0.00479367 -0.966489 -0.256663
  outer loop
  vertex 3.2617 -9.06934 -4.03602
  vertex 0.4338 -8.7581 -5.15521
  vertex 0.628 -8.69618 -5.392
  endloop
 endfacet

 facet normal -0.00422011 -0.966132 -0.258013
  outer loop
  vertex 3.2617 -9.06934 -4.03602
  vertex 0.1973 -8.80895 -4.96093
  vertex 0.4338 -8.7581 -5.15521
  endloop
 endfacet

 facet normal -0.00365932 -0.965671 -0.259741
  outer loop
  vertex 3.2617 -9.06934 -4.03602
  vertex -0.0726 -8.84677 -4.81652
  vertex 0.1973 -8.80895 -4.96093
  endloop
 endfacet

 facet normal -0.00300505 -0.964972 -0.262336
  outer loop
  vertex 3.2617 -9.06934 -4.03602
  vertex -0.3655 -8.87004 -4.72757
  vertex -0.0726 -8.84677 -4.81652
  endloop
 endfacet

 facet normal -0.0015172 -0.962981 -0.269566
  outer loop
  vertex 3.2617 -9.06934 -4.03602
  vertex -0.67 -8.87795 -4.6976
  vertex -0.3655 -8.87004 -4.72757
  endloop
 endfacet

endsolid AssimpScene
