solid AssimpScene
 facet normal -0.0871997 0 0.996191
  outer loop
  vertex -0.59 11.9023 6.8758
  vertex -0.9373 11.9023 6.8454
  vertex -0.9373 -11.6759 6.8454
  endloop
 endfacet

 facet normal -0.0871997 0 0.996191
  outer loop
  vertex -0.59 11.9023 6.8758
  vertex -0.9373 -11.6759 6.8454
  vertex -0.59 -11.6759 6.8758
  endloop
 endfacet

 facet normal -0.259036 0 0.965868
  outer loop
  vertex -0.9373 11.9023 6.8454
  vertex -1.274 11.9023 6.7551
  vertex -1.274 -11.6759 6.7551
  endloop
 endfacet

 facet normal -0.259036 0 0.965868
  outer loop
  vertex -0.9373 11.9023 6.8454
  vertex -1.274 -11.6759 6.7551
  vertex -0.9373 -11.6759 6.8454
  endloop
 endfacet

 facet normal -0.422493 0 0.906366
  outer loop
  vertex -1.274 11.9023 6.7551
  vertex -1.59 11.9023 6.6078
  vertex -1.59 -11.6759 6.6078
  endloop
 endfacet

 facet normal -0.422493 0 0.906366
  outer loop
  vertex -1.274 11.9023 6.7551
  vertex -1.59 -11.6759 6.6078
  vertex -1.274 -11.6759 6.7551
  endloop
 endfacet

 facet normal -0.573616 0 0.819124
  outer loop
  vertex -1.59 11.9023 6.6078
  vertex -1.8756 11.9023 6.4078
  vertex -1.8756 -11.6759 6.4078
  endloop
 endfacet

 facet normal -0.573616 0 0.819124
  outer loop
  vertex -1.59 11.9023 6.6078
  vertex -1.8756 -11.6759 6.4078
  vertex -1.59 -11.6759 6.6078
  endloop
 endfacet

 facet normal -0.707107 0 0.707107
  outer loop
  vertex -1.8756 11.9023 6.4078
  vertex -2.1221 11.9023 6.1613
  vertex -2.1221 -11.6759 6.1613
  endloop
 endfacet

 facet normal -0.707107 0 0.707107
  outer loop
  vertex -1.8756 11.9023 6.4078
  vertex -2.1221 -11.6759 6.1613
  vertex -1.8756 -11.6759 6.4078
  endloop
 endfacet

 facet normal -0.81903 0 0.573751
  outer loop
  vertex -2.1221 11.9023 6.1613
  vertex -2.3221 11.9023 5.8758
  vertex -2.3221 -11.6759 5.8758
  endloop
 endfacet

 facet normal -0.81903 0 0.573751
  outer loop
  vertex -2.1221 11.9023 6.1613
  vertex -2.3221 -11.6759 5.8758
  vertex -2.1221 -11.6759 6.1613
  endloop
 endfacet

 facet normal -0.906366 0 0.422493
  outer loop
  vertex -2.3221 11.9023 5.8758
  vertex -2.4694 11.9023 5.5598
  vertex -2.4694 -11.6759 5.5598
  endloop
 endfacet

 facet normal -0.906366 0 0.422493
  outer loop
  vertex -2.3221 11.9023 5.8758
  vertex -2.4694 -11.6759 5.5598
  vertex -2.3221 -11.6759 5.8758
  endloop
 endfacet

 facet normal -0.965939 0 0.258769
  outer loop
  vertex -2.4694 11.9023 5.5598
  vertex -2.5596 11.9023 5.2231
  vertex -2.5596 -11.6759 5.2231
  endloop
 endfacet

 facet normal -0.965939 0 0.258769
  outer loop
  vertex -2.4694 11.9023 5.5598
  vertex -2.5596 -11.6759 5.2231
  vertex -2.4694 -11.6759 5.5598
  endloop
 endfacet

 facet normal -0.996191 0 0.0871991
  outer loop
  vertex -2.5596 11.9023 5.2231
  vertex -2.59 11.9023 4.8758
  vertex -2.59 -11.6759 4.8758
  endloop
 endfacet

 facet normal -0.996191 0 0.0871991
  outer loop
  vertex -2.5596 11.9023 5.2231
  vertex -2.59 -11.6759 4.8758
  vertex -2.5596 -11.6759 5.2231
  endloop
 endfacet

 facet normal -0.996191 0 -0.0871991
  outer loop
  vertex -2.59 11.9023 4.8758
  vertex -2.5596 11.9023 4.5285
  vertex -2.5596 -11.6759 4.5285
  endloop
 endfacet

 facet normal -0.996191 0 -0.0871991
  outer loop
  vertex -2.59 11.9023 4.8758
  vertex -2.5596 -11.6759 4.5285
  vertex -2.59 -11.6759 4.8758
  endloop
 endfacet

 facet normal -0.965958 0 -0.258698
  outer loop
  vertex -2.5596 11.9023 4.5285
  vertex -2.4694 11.9023 4.1917
  vertex -2.4694 -11.6759 4.1917
  endloop
 endfacet

 facet normal -0.965958 0 -0.258698
  outer loop
  vertex -2.5596 11.9023 4.5285
  vertex -2.4694 -11.6759 4.1917
  vertex -2.5596 -11.6759 4.5285
  endloop
 endfacet

 facet normal -0.906315 0 -0.422603
  outer loop
  vertex -2.4694 11.9023 4.1917
  vertex -2.3221 11.9023 3.8758
  vertex -2.3221 -11.6759 3.8758
  endloop
 endfacet

 facet normal -0.906315 0 -0.422603
  outer loop
  vertex -2.4694 11.9023 4.1917
  vertex -2.3221 -11.6759 3.8758
  vertex -2.4694 -11.6759 4.1917
  endloop
 endfacet

 facet normal -0.819125 0 -0.573616
  outer loop
  vertex -2.3221 11.9023 3.8758
  vertex -2.1221 11.9023 3.5902
  vertex -2.1221 -11.6759 3.5902
  endloop
 endfacet

 facet normal -0.819125 0 -0.573616
  outer loop
  vertex -2.3221 11.9023 3.8758
  vertex -2.1221 -11.6759 3.5902
  vertex -2.3221 -11.6759 3.8758
  endloop
 endfacet

 facet normal -0.707107 0 -0.707107
  outer loop
  vertex -2.1221 11.9023 3.5902
  vertex -1.8756 11.9023 3.3437
  vertex -1.8756 -11.6759 3.3437
  endloop
 endfacet

 facet normal -0.707107 0 -0.707107
  outer loop
  vertex -2.1221 11.9023 3.5902
  vertex -1.8756 -11.6759 3.3437
  vertex -2.1221 -11.6759 3.5902
  endloop
 endfacet

 facet normal -0.573616 0 -0.819124
  outer loop
  vertex -1.8756 11.9023 3.3437
  vertex -1.59 11.9023 3.1437
  vertex -1.59 -11.6759 3.1437
  endloop
 endfacet

 facet normal -0.573616 0 -0.819124
  outer loop
  vertex -1.8756 11.9023 3.3437
  vertex -1.59 -11.6759 3.1437
  vertex -1.8756 -11.6759 3.3437
  endloop
 endfacet

 facet normal -0.422493 0 -0.906366
  outer loop
  vertex -1.59 11.9023 3.1437
  vertex -1.274 11.9023 2.9964
  vertex -1.274 -11.6759 2.9964
  endloop
 endfacet

 facet normal -0.422493 0 -0.906366
  outer loop
  vertex -1.59 11.9023 3.1437
  vertex -1.274 -11.6759 2.9964
  vertex -1.59 -11.6759 3.1437
  endloop
 endfacet

 facet normal -0.259037 0 -0.965867
  outer loop
  vertex -1.274 11.9023 2.9964
  vertex -0.9373 11.9023 2.9061
  vertex -0.9373 -11.6759 2.9061
  endloop
 endfacet

 facet normal -0.259037 0 -0.965867
  outer loop
  vertex -1.274 11.9023 2.9964
  vertex -0.9373 -11.6759 2.9061
  vertex -1.274 -11.6759 2.9964
  endloop
 endfacet

 facet normal -0.086914 0 -0.996216
  outer loop
  vertex -0.9373 11.9023 2.9061
  vertex -0.59 11.9023 2.8758
  vertex -0.59 -11.6759 2.8758
  endloop
 endfacet

 facet normal -0.086914 0 -0.996216
  outer loop
  vertex -0.9373 11.9023 2.9061
  vertex -0.59 -11.6759 2.8758
  vertex -0.9373 -11.6759 2.9061
  endloop
 endfacet

 facet normal 0.086914 0 -0.996216
  outer loop
  vertex -0.59 11.9023 2.8758
  vertex -0.2427 11.9023 2.9061
  vertex -0.2427 -11.6759 2.9061
  endloop
 endfacet

 facet normal 0.086914 0 -0.996216
  outer loop
  vertex -0.59 11.9023 2.8758
  vertex -0.2427 -11.6759 2.9061
  vertex -0.59 -11.6759 2.8758
  endloop
 endfacet

 facet normal 0.259037 0 -0.965867
  outer loop
  vertex -0.2427 11.9023 2.9061
  vertex 0.094 11.9023 2.9964
  vertex 0.094 -11.6759 2.9964
  endloop
 endfacet

 facet normal 0.259037 0 -0.965867
  outer loop
  vertex -0.2427 11.9023 2.9061
  vertex 0.094 -11.6759 2.9964
  vertex -0.2427 -11.6759 2.9061
  endloop
 endfacet

 facet normal 0.422493 0 -0.906366
  outer loop
  vertex 0.094 11.9023 2.9964
  vertex 0.41 11.9023 3.1437
  vertex 0.41 -11.6759 3.1437
  endloop
 endfacet

 facet normal 0.422493 0 -0.906366
  outer loop
  vertex 0.094 11.9023 2.9964
  vertex 0.41 -11.6759 3.1437
  vertex 0.094 -11.6759 2.9964
  endloop
 endfacet

 facet normal 0.573616 0 -0.819124
  outer loop
  vertex 0.41 11.9023 3.1437
  vertex 0.6956 11.9023 3.3437
  vertex 0.6956 -11.6759 3.3437
  endloop
 endfacet

 facet normal 0.573616 0 -0.819124
  outer loop
  vertex 0.41 11.9023 3.1437
  vertex 0.6956 -11.6759 3.3437
  vertex 0.41 -11.6759 3.1437
  endloop
 endfacet

 facet normal 0.707107 0 -0.707107
  outer loop
  vertex 0.6956 11.9023 3.3437
  vertex 0.9421 11.9023 3.5902
  vertex 0.9421 -11.6759 3.5902
  endloop
 endfacet

 facet normal 0.707107 0 -0.707107
  outer loop
  vertex 0.6956 11.9023 3.3437
  vertex 0.9421 -11.6759 3.5902
  vertex 0.6956 -11.6759 3.3437
  endloop
 endfacet

 facet normal 0.819124 0 -0.573616
  outer loop
  vertex 0.9421 11.9023 3.5902
  vertex 1.1421 11.9023 3.8758
  vertex 1.1421 -11.6759 3.8758
  endloop
 endfacet

 facet normal 0.819124 0 -0.573616
  outer loop
  vertex 0.9421 11.9023 3.5902
  vertex 1.1421 -11.6759 3.8758
  vertex 0.9421 -11.6759 3.5902
  endloop
 endfacet

 facet normal 0.906315 0 -0.422603
  outer loop
  vertex 1.1421 11.9023 3.8758
  vertex 1.2894 11.9023 4.1917
  vertex 1.2894 -11.6759 4.1917
  endloop
 endfacet

 facet normal 0.906315 0 -0.422603
  outer loop
  vertex 1.1421 11.9023 3.8758
  vertex 1.2894 -11.6759 4.1917
  vertex 1.1421 -11.6759 3.8758
  endloop
 endfacet

 facet normal 0.965958 0 -0.258698
  outer loop
  vertex 1.2894 11.9023 4.1917
  vertex 1.3796 11.9023 4.5285
  vertex 1.3796 -11.6759 4.5285
  endloop
 endfacet

 facet normal 0.965958 0 -0.258698
  outer loop
  vertex 1.2894 11.9023 4.1917
  vertex 1.3796 -11.6759 4.5285
  vertex 1.2894 -11.6759 4.1917
  endloop
 endfacet

 facet normal 0.996191 0 -0.0871987
  outer loop
  vertex 1.3796 11.9023 4.5285
  vertex 1.41 11.9023 4.8758
  vertex 1.41 -11.6759 4.8758
  endloop
 endfacet

 facet normal 0.996191 0 -0.0871987
  outer loop
  vertex 1.3796 11.9023 4.5285
  vertex 1.41 -11.6759 4.8758
  vertex 1.3796 -11.6759 4.5285
  endloop
 endfacet

 facet normal 0.996189 0 0.0872237
  outer loop
  vertex 1.41 11.9023 4.8758
  vertex 1.3796 11.9023 5.223
  vertex 1.3796 -11.6759 5.223
  endloop
 endfacet

 facet normal 0.996189 0 0.0872237
  outer loop
  vertex 1.41 11.9023 4.8758
  vertex 1.3796 -11.6759 5.223
  vertex 1.41 -11.6759 4.8758
  endloop
 endfacet

 facet normal 0.965958 0 0.258698
  outer loop
  vertex 1.3796 11.9023 5.223
  vertex 1.2894 11.9023 5.5598
  vertex 1.2894 -11.6759 5.5598
  endloop
 endfacet

 facet normal 0.965958 0 0.258698
  outer loop
  vertex 1.3796 11.9023 5.223
  vertex 1.2894 -11.6759 5.5598
  vertex 1.3796 -11.6759 5.223
  endloop
 endfacet

 facet normal 0.906366 0 0.422493
  outer loop
  vertex 1.2894 11.9023 5.5598
  vertex 1.1421 11.9023 5.8758
  vertex 1.1421 -11.6759 5.8758
  endloop
 endfacet

 facet normal 0.906366 0 0.422493
  outer loop
  vertex 1.2894 11.9023 5.5598
  vertex 1.1421 -11.6759 5.8758
  vertex 1.2894 -11.6759 5.5598
  endloop
 endfacet

 facet normal 0.81903 0 0.573751
  outer loop
  vertex 1.1421 11.9023 5.8758
  vertex 0.9421 11.9023 6.1613
  vertex 0.9421 -11.6759 6.1613
  endloop
 endfacet

 facet normal 0.81903 0 0.573751
  outer loop
  vertex 1.1421 11.9023 5.8758
  vertex 0.9421 -11.6759 6.1613
  vertex 1.1421 -11.6759 5.8758
  endloop
 endfacet

 facet normal 0.707107 0 0.707107
  outer loop
  vertex 0.9421 11.9023 6.1613
  vertex 0.6956 11.9023 6.4078
  vertex 0.6956 -11.6759 6.4078
  endloop
 endfacet

 facet normal 0.707107 0 0.707107
  outer loop
  vertex 0.9421 11.9023 6.1613
  vertex 0.6956 -11.6759 6.4078
  vertex 0.9421 -11.6759 6.1613
  endloop
 endfacet

 facet normal 0.573616 0 0.819124
  outer loop
  vertex 0.6956 11.9023 6.4078
  vertex 0.41 11.9023 6.6078
  vertex 0.41 -11.6759 6.6078
  endloop
 endfacet

 facet normal 0.573616 0 0.819124
  outer loop
  vertex 0.6956 11.9023 6.4078
  vertex 0.41 -11.6759 6.6078
  vertex 0.6956 -11.6759 6.4078
  endloop
 endfacet

 facet normal 0.422493 0 0.906366
  outer loop
  vertex 0.41 11.9023 6.6078
  vertex 0.094 11.9023 6.7551
  vertex 0.094 -11.6759 6.7551
  endloop
 endfacet

 facet normal 0.422493 0 0.906366
  outer loop
  vertex 0.41 11.9023 6.6078
  vertex 0.094 -11.6759 6.7551
  vertex 0.41 -11.6759 6.6078
  endloop
 endfacet

 facet normal 0.259036 0 0.965868
  outer loop
  vertex 0.094 11.9023 6.7551
  vertex -0.2427 11.9023 6.8454
  vertex -0.2427 -11.6759 6.8454
  endloop
 endfacet

 facet normal 0.259036 0 0.965868
  outer loop
  vertex 0.094 11.9023 6.7551
  vertex -0.2427 -11.6759 6.8454
  vertex 0.094 -11.6759 6.7551
  endloop
 endfacet

 facet normal 0.0871998 0 0.996191
  outer loop
  vertex -0.2427 11.9023 6.8454
  vertex -0.59 11.9023 6.8758
  vertex -0.59 -11.6759 6.8758
  endloop
 endfacet

 facet normal 0.0871998 0 0.996191
  outer loop
  vertex -0.2427 11.9023 6.8454
  vertex -0.59 -11.6759 6.8758
  vertex -0.2427 -11.6759 6.8454
  endloop
 endfacet

 facet normal 0 1 0
  outer loop
  vertex -0.59 11.9023 4.8758
  vertex -0.9373 11.9023 6.8454
  vertex -0.59 11.9023 6.8758
  endloop
 endfacet

 facet normal 0 1 0
  outer loop
  vertex -0.59 11.9023 4.8758
  vertex -1.274 11.9023 6.7551
  vertex -0.9373 11.9023 6.8454
  endloop
 endfacet

 facet normal 0 1 0
  outer loop
  vertex -0.59 11.9023 4.8758
  vertex -1.59 11.9023 6.6078
  vertex -1.274 11.9023 6.7551
  endloop
 endfacet

 facet normal 0 1 0
  outer loop
  vertex -0.59 11.9023 4.8758
  vertex -1.8756 11.9023 6.4078
  vertex -1.59 11.9023 6.6078
  endloop
 endfacet

 facet normal 0 1 0
  outer loop
  vertex -0.59 11.9023 4.8758
  vertex -2.1221 11.9023 6.1613
  vertex -1.8756 11.9023 6.4078
  endloop
 endfacet

 facet normal 0 1 0
  outer loop
  vertex -0.59 11.9023 4.8758
  vertex -2.3221 11.9023 5.8758
  vertex -2.1221 11.9023 6.1613
  endloop
 endfacet

 facet normal 0 1 0
  outer loop
  vertex -0.59 11.9023 4.8758
  vertex -2.4694 11.9023 5.5598
  vertex -2.3221 11.9023 5.8758
  endloop
 endfacet

 facet normal 0 1 0
  outer loop
  vertex -0.59 11.9023 4.8758
  vertex -2.5596 11.9023 5.2231
  vertex -2.4694 11.9023 5.5598
  endloop
 endfacet

 facet normal 0 1 0
  outer loop
  vertex -0.59 11.9023 4.8758
  vertex -2.59 11.9023 4.8758
  vertex -2.5596 11.9023 5.2231
  endloop
 endfacet

 facet normal 0 1 0
  outer loop
  vertex -0.59 11.9023 4.8758
  vertex -2.5596 11.9023 4.5285
  vertex -2.59 11.9023 4.8758
  endloop
 endfacet

 facet normal 0 1 0
  outer loop
  vertex -0.59 11.9023 4.8758
  vertex -2.4694 11.9023 4.1917
  vertex -2.5596 11.9023 4.5285
  endloop
 endfacet

 facet normal 0 1 0
  outer loop
  vertex -0.59 11.9023 4.8758
  vertex -2.3221 11.9023 3.8758
  vertex -2.4694 11.9023 4.1917
  endloop
 endfacet

 facet normal 0 1 0
  outer loop
  vertex -0.59 11.9023 4.8758
  vertex -2.1221 11.9023 3.5902
  vertex -2.3221 11.9023 3.8758
  endloop
 endfacet

 facet normal 0 1 0
  outer loop
  vertex -0.59 11.9023 4.8758
  vertex -1.8756 11.9023 3.3437
  vertex -2.1221 11.9023 3.5902
  endloop
 endfacet

 facet normal 0 1 0
  outer loop
  vertex -0.59 11.9023 4.8758
  vertex -1.59 11.9023 3.1437
  vertex -1.8756 11.9023 3.3437
  endloop
 endfacet

 facet normal 0 1 0
  outer loop
  vertex -0.59 11.9023 4.8758
  vertex -1.274 11.9023 2.9964
  vertex -1.59 11.9023 3.1437
  endloop
 endfacet

 facet normal 0 1 0
  outer loop
  vertex -0.59 11.9023 4.8758
  vertex -0.9373 11.9023 2.9061
  vertex -1.274 11.9023 2.9964
  endloop
 endfacet

 facet normal 0 1 0
  outer loop
  vertex -0.59 11.9023 4.8758
  vertex -0.59 11.9023 2.8758
  vertex -0.9373 11.9023 2.9061
  endloop
 endfacet

 facet normal 0 1 0
  outer loop
  vertex -0.59 11.9023 4.8758
  vertex -0.2427 11.9023 2.9061
  vertex -0.59 11.9023 2.8758
  endloop
 endfacet

 facet normal 0 1 0
  outer loop
  vertex -0.59 11.9023 4.8758
  vertex 0.094 11.9023 2.9964
  vertex -0.2427 11.9023 2.9061
  endloop
 endfacet

 facet normal 0 1 0
  outer loop
  vertex -0.59 11.9023 4.8758
  vertex 0.41 11.9023 3.1437
  vertex 0.094 11.9023 2.9964
  endloop
 endfacet

 facet normal 0 1 0
  outer loop
  vertex -0.59 11.9023 4.8758
  vertex 0.6956 11.9023 3.3437
  vertex 0.41 11.9023 3.1437
  endloop
 endfacet

 facet normal 0 1 0
  outer loop
  vertex -0.59 11.9023 4.8758
  vertex 0.9421 11.9023 3.5902
  vertex 0.6956 11.9023 3.3437
  endloop
 endfacet

 facet normal 0 1 0
  outer loop
  vertex -0.59 11.9023 4.8758
  vertex 1.1421 11.9023 3.8758
  vertex 0.9421 11.9023 3.5902
  endloop
 endfacet

 facet normal 0 1 0
  outer loop
  vertex -0.59 11.9023 4.8758
  vertex 1.2894 11.9023 4.1917
  vertex 1.1421 11.9023 3.8758
  endloop
 endfacet

 facet normal 0 1 0
  outer loop
  vertex -0.59 11.9023 4.8758
  vertex 1.3796 11.9023 4.5285
  vertex 1.2894 11.9023 4.1917
  endloop
 endfacet

 facet normal 0 1 0
  outer loop
  vertex -0.59 11.9023 4.8758
  vertex 1.41 11.9023 4.8758
  vertex 1.3796 11.9023 4.5285
  endloop
 endfacet

 facet normal 0 1 0
  outer loop
  vertex -0.59 11.9023 4.8758
  vertex 1.3796 11.9023 5.223
  vertex 1.41 11.9023 4.8758
  endloop
 endfacet

 facet normal 0 1 0
  outer loop
  vertex -0.59 11.9023 4.8758
  vertex 1.2894 11.9023 5.5598
  vertex 1.3796 11.9023 5.223
  endloop
 endfacet

 facet normal 0 1 0
  outer loop
  vertex -0.59 11.9023 4.8758
  vertex 1.1421 11.9023 5.8758
  vertex 1.2894 11.9023 5.5598
  endloop
 endfacet

 facet normal 0 1 0
  outer loop
  vertex -0.59 11.9023 4.8758
  vertex 0.9421 11.9023 6.1613
  vertex 1.1421 11.9023 5.8758
  endloop
 endfacet

 facet normal 0 1 0
  outer loop
  vertex -0.59 11.9023 4.8758
  vertex 0.6956 11.9023 6.4078
  vertex 0.9421 11.9023 6.1613
  endloop
 endfacet

 facet normal 0 1 0
  outer loop
  vertex -0.59 11.9023 4.8758
  vertex 0.41 11.9023 6.6078
  vertex 0.6956 11.9023 6.4078
  endloop
 endfacet

 facet normal 0 1 0
  outer loop
  vertex -0.59 11.9023 4.8758
  vertex 0.094 11.9023 6.7551
  vertex 0.41 11.9023 6.6078
  endloop
 endfacet

 facet normal 0 1 0
  outer loop
  vertex -0.59 11.9023 4.8758
  vertex -0.2427 11.9023 6.8454
  vertex 0.094 11.9023 6.7551
  endloop
 endfacet

 facet normal 0 1 0
  outer loop
  vertex -0.59 11.9023 4.8758
  vertex -0.59 11.9023 6.8758
  vertex -0.2427 11.9023 6.8454
  endloop
 endfacet

 facet normal 0 -1 0
  outer loop
  vertex -0.59 -11.6759 4.8758
  vertex -0.59 -11.6759 6.8758
  vertex -0.9373 -11.6759 6.8454
  endloop
 endfacet

 facet normal 0 -1 0
  outer loop
  vertex -0.59 -11.6759 4.8758
  vertex -0.9373 -11.6759 6.8454
  vertex -1.274 -11.6759 6.7551
  endloop
 endfacet

 facet normal 0 -1 0
  outer loop
  vertex -0.59 -11.6759 4.8758
  vertex -1.274 -11.6759 6.7551
  vertex -1.59 -11.6759 6.6078
  endloop
 endfacet

 facet normal 0 -1 0
  outer loop
  vertex -0.59 -11.6759 4.8758
  vertex -1.59 -11.6759 6.6078
  vertex -1.8756 -11.6759 6.4078
  endloop
 endfacet

 facet normal 0 -1 0
  outer loop
  vertex -0.59 -11.6759 4.8758
  vertex -1.8756 -11.6759 6.4078
  vertex -2.1221 -11.6759 6.1613
  endloop
 endfacet

 facet normal 0 -1 0
  outer loop
  vertex -0.59 -11.6759 4.8758
  vertex -2.1221 -11.6759 6.1613
  vertex -2.3221 -11.6759 5.8758
  endloop
 endfacet

 facet normal 0 -1 0
  outer loop
  vertex -0.59 -11.6759 4.8758
  vertex -2.3221 -11.6759 5.8758
  vertex -2.4694 -11.6759 5.5598
  endloop
 endfacet

 facet normal 0 -1 0
  outer loop
  vertex -0.59 -11.6759 4.8758
  vertex -2.4694 -11.6759 5.5598
  vertex -2.5596 -11.6759 5.2231
  endloop
 endfacet

 facet normal 0 -1 0
  outer loop
  vertex -0.59 -11.6759 4.8758
  vertex -2.5596 -11.6759 5.2231
  vertex -2.59 -11.6759 4.8758
  endloop
 endfacet

 facet normal 0 -1 0
  outer loop
  vertex -0.59 -11.6759 4.8758
  vertex -2.59 -11.6759 4.8758
  vertex -2.5596 -11.6759 4.5285
  endloop
 endfacet

 facet normal 0 -1 0
  outer loop
  vertex -0.59 -11.6759 4.8758
  vertex -2.5596 -11.6759 4.5285
  vertex -2.4694 -11.6759 4.1917
  endloop
 endfacet

 facet normal 0 -1 0
  outer loop
  vertex -0.59 -11.6759 4.8758
  vertex -2.4694 -11.6759 4.1917
  vertex -2.3221 -11.6759 3.8758
  endloop
 endfacet

 facet normal 0 -1 0
  outer loop
  vertex -0.59 -11.6759 4.8758
  vertex -2.3221 -11.6759 3.8758
  vertex -2.1221 -11.6759 3.5902
  endloop
 endfacet

 facet normal 0 -1 0
  outer loop
  vertex -0.59 -11.6759 4.8758
  vertex -2.1221 -11.6759 3.5902
  vertex -1.8756 -11.6759 3.3437
  endloop
 endfacet

 facet normal 0 -1 0
  outer loop
  vertex -0.59 -11.6759 4.8758
  vertex -1.8756 -11.6759 3.3437
  vertex -1.59 -11.6759 3.1437
  endloop
 endfacet

 facet normal 0 -1 0
  outer loop
  vertex -0.59 -11.6759 4.8758
  vertex -1.59 -11.6759 3.1437
  vertex -1.274 -11.6759 2.9964
  endloop
 endfacet

 facet normal 0 -1 0
  outer loop
  vertex -0.59 -11.6759 4.8758
  vertex -1.274 -11.6759 2.9964
  vertex -0.9373 -11.6759 2.9061
  endloop
 endfacet

 facet normal 0 -1 0
  outer loop
  vertex -0.59 -11.6759 4.8758
  vertex -0.9373 -11.6759 2.9061
  vertex -0.59 -11.6759 2.8758
  endloop
 endfacet

 facet normal 0 -1 0
  outer loop
  vertex -0.59 -11.6759 4.8758
  vertex -0.59 -11.6759 2.8758
  vertex -0.2427 -11.6759 2.9061
  endloop
 endfacet

 facet normal 0 -1 0
  outer loop
  vertex -0.59 -11.6759 4.8758
  vertex -0.2427 -11.6759 2.9061
  vertex 0.094 -11.6759 2.9964
  endloop
 endfacet

 facet normal 0 -1 0
  outer loop
  vertex -0.59 -11.6759 4.8758
  vertex 0.094 -11.6759 2.9964
  vertex 0.41 -11.6759 3.1437
  endloop
 endfacet

 facet normal 0 -1 0
  outer loop
  vertex -0.59 -11.6759 4.8758
  vertex 0.41 -11.6759 3.1437
  vertex 0.6956 -11.6759 3.3437
  endloop
 endfacet

 facet normal 0 -1 0
  outer loop
  vertex -0.59 -11.6759 4.8758
  vertex 0.6956 -11.6759 3.3437
  vertex 0.9421 -11.6759 3.5902
  endloop
 endfacet

 facet normal 0 -1 0
  outer loop
  vertex -0.59 -11.6759 4.8758
  vertex 0.9421 -11.6759 3.5902
  vertex 1.1421 -11.6759 3.8758
  endloop
 endfacet

 facet normal 0 -1 0
  outer loop
  vertex -0.59 -11.6759 4.8758
  vertex 1.1421 -11.6759 3.8758
  vertex 1.2894 -11.6759 4.1917
  endloop
 endfacet

 facet normal 0 -1 0
  outer loop
  vertex -0.59 -11.6759 4.8758
  vertex 1.2894 -11.6759 4.1917
  vertex 1.3796 -11.6759 4.5285
  endloop
 endfacet

 facet normal 0 -1 0
  outer loop
  vertex -0.59 -11.6759 4.8758
  vertex 1.3796 -11.6759 4.5285
  vertex 1.41 -11.6759 4.8758
  endloop
 endfacet

 facet normal 0 -1 0
  outer loop
  vertex -0.59 -11.6759 4.8758
  vertex 1.41 -11.6759 4.8758
  vertex 1.3796 -11.6759 5.223
  endloop
 endfacet

 facet normal 0 -1 0
  outer loop
  vertex -0.59 -11.6759 4.8758
  vertex 1.3796 -11.6759 5.223
  vertex 1.2894 -11.6759 5.5598
  endloop
 endfacet

 facet normal 0 -1 0
  outer loop
  vertex -0.59 -11.6759 4.8758
  vertex 1.2894 -11.6759 5.5598
  vertex 1.1421 -11.6759 5.8758
  endloop
 endfacet

 facet normal 0 -1 0
  outer loop
  vertex -0.59 -11.6759 4.8758
  vertex 1.1421 -11.6759 5.8758
  vertex 0.9421 -11.6759 6.1613
  endloop
 endfacet

 facet normal 0 -1 0
  outer loop
  vertex -0.59 -11.6759 4.8758
  vertex 0.9421 -11.6759 6.1613
  vertex 0.6956 -11.6759 6.4078
  endloop
 endfacet

 facet normal 0 -1 0
  outer loop
  vertex -0.59 -11.6759 4.8758
  vertex 0.6956 -11.6759 6.4078
  vertex 0.41 -11.6759 6.6078
  endloop
 endfacet

 facet normal 0 -1 0
  outer loop
  vertex -0.59 -11.6759 4.8758
  vertex 0.41 -11.6759 6.6078
  vertex 0.094 -11.6759 6.7551
  endloop
 endfacet

 facet normal 0 -1 0
  outer loop
  vertex -0.59 -11.6759 4.8758
  vertex 0.094 -11.6759 6.7551
  vertex -0.2427 -11.6759 6.8454
  endloop
 endfacet

 facet normal 0 -1 0
  outer loop
  vertex -0.59 -11.6759 4.8758
  vertex -0.2427 -11.6759 6.8454
  vertex -0.59 -11.6759 6.8758
  endloop
 endfacet

endsolid AssimpScene
